<svg width="250" height="11" viewBox="0 0 250 11" fill="none" xmlns="http://www.w3.org/2000/svg">
<g clip-path="url(#clip0_465_1701)">
<path fill-rule="evenodd" clip-rule="evenodd" d="M4.97856 3.99843L6.41195 3.24895C6.31639 2.98663 6.29578 2.74117 6.15712 2.5819C5.43387 1.77808 3.82622 1.73499 3.03739 2.48447C2.31976 3.1665 1.99748 4.03028 1.76139 4.9203C1.67588 5.3395 1.75291 5.77554 1.97687 6.14008C2.2468 6.65647 2.62918 7.10569 3.09583 7.45463C3.56248 7.80356 4.1015 8.04331 4.67314 8.1562C5.52193 8.35542 6.38911 8.46594 7.26074 8.48597C8.67164 8.50471 10.0713 8.47285 11.4897 8.43163C12.6889 8.3979 13.8937 8.5197 15.0966 8.58528C18.0439 8.74267 20.9876 8.96002 23.9386 9.04996C26.1871 9.11928 28.4356 9.02935 30.684 9.00124C30.9757 9.00539 31.2668 8.97138 31.5497 8.90006C32.6851 8.58153 33.8543 8.63961 35.0179 8.63024C37.1414 8.61151 39.2594 8.63462 41.3717 8.69957C42.657 8.73892 43.948 8.63961 45.2371 8.61338C46.026 8.59652 46.8242 8.66772 47.6036 8.58153C48.265 8.50845 48.9152 8.49721 49.5823 8.47098C51.1599 8.40915 52.7395 8.3267 54.319 8.27424C54.8961 8.25363 55.477 8.2911 56.0578 8.30609C56.9253 8.3267 57.791 8.30609 58.6604 8.34357C60.6559 8.41851 62.6552 8.39978 64.6563 8.44662C67.7348 8.5197 70.8114 8.58902 73.8881 8.70519C76.2152 8.79326 78.5386 8.97501 80.8658 9.07057C82.4453 9.13615 84.0286 9.11741 85.61 9.15301C87.272 9.19236 88.934 9.26731 90.5959 9.29354C91.2986 9.30665 92.005 9.23733 92.7095 9.20173C92.9999 9.18674 93.2885 9.15301 93.5789 9.14926C96.4494 9.10991 99.3199 9.08181 102.198 9.03871C104.943 8.99937 107.688 8.94503 110.433 8.90193C111.389 8.88694 112.345 8.87945 113.302 8.87945C114.713 8.85039 116.121 8.72519 117.516 8.50471C118.338 8.39228 119.168 8.32858 119.994 8.24426C120.118 8.23114 120.246 8.23489 120.369 8.21803C122.26 7.95571 123.332 6.81649 123.242 5.07207C123.232 4.33935 123.005 3.62602 122.59 3.02223C121.939 2.11535 120.139 1.97295 119.329 2.50883C119.254 2.5657 119.193 2.63974 119.152 2.72479C119.111 2.80984 119.091 2.90345 119.093 2.99787C119.14 3.43257 119.406 3.6443 119.903 3.73049C120.103 3.74326 120.303 3.77271 120.499 3.81855C120.69 3.88269 120.865 3.98608 121.014 4.12209C121.092 4.1972 121.147 4.29348 121.172 4.39925C121.197 4.50503 121.191 4.61578 121.154 4.71808C121.118 4.82039 121.052 4.90987 120.966 4.97569C120.879 5.04151 120.776 5.08084 120.667 5.08893C120.083 5.16013 119.487 5.12078 118.981 4.81162C118.608 4.59002 118.288 4.29155 118.04 3.93613C117.792 3.58072 117.623 3.17652 117.544 2.75054C117.478 2.46401 117.506 2.16416 117.623 1.89458C117.74 1.62499 117.94 1.39974 118.194 1.25157C119.451 0.42901 121.482 0.453368 122.798 1.25157C123.852 1.87364 124.358 2.8105 124.731 3.82417C125.235 5.19011 124.992 6.53731 124.323 7.80956C124.105 8.2278 123.793 8.58914 123.41 8.86446C122.489 9.49609 121.423 9.88297 120.311 9.98869C118.25 10.191 116.172 10.3634 114.104 10.5508C113.898 10.5825 113.691 10.6013 113.483 10.607C111.537 10.562 109.59 10.4946 107.643 10.4609C106.706 10.4459 105.751 10.4815 104.802 10.5096C103.809 10.5377 102.816 10.5808 101.823 10.6183C101.782 10.616 101.74 10.611 101.7 10.6033C99.6254 10.4159 97.5549 10.5471 95.4826 10.6295C92.3273 10.7569 89.1682 10.7625 86.0147 10.6295C84.8905 10.5808 83.7794 10.5208 82.6533 10.5827C81.7876 10.6295 80.9126 10.4702 80.0413 10.4309C78.0065 10.3391 75.9697 10.2641 73.9349 10.1779C71.025 10.0561 68.1264 9.92685 65.2071 9.80319C64.334 9.76759 63.4608 9.72637 62.584 9.73573C59.8802 9.76571 57.1783 9.63268 54.4783 9.6383C52.4041 9.6383 50.328 9.72074 48.2557 9.92685C46.9441 10.0561 45.595 9.99618 44.2647 10.0205C44.0567 10.0205 43.8468 9.99993 43.6407 10.0205C41.07 10.266 38.488 10.2079 35.9079 10.2435C35.6577 10.2409 35.4075 10.2516 35.1584 10.2754C32.3479 10.6314 29.5186 10.429 26.7005 10.5227C23.4927 10.6295 20.3055 10.3185 17.1108 10.1929C16.2377 10.1592 15.3664 10.058 14.4876 10.0468C12.6982 10.0224 10.9089 10.0355 9.11946 10.0468C7.749 10.0773 6.37863 9.98261 5.0254 9.76384C4.10903 9.60966 3.23511 9.26525 2.45994 8.75277C1.68478 8.2403 1.02556 7.57113 0.524744 6.78839C0.230751 6.33977 0.0548042 5.82417 0.0132204 5.28942C-0.0954549 3.60308 0.45729 2.13783 1.98999 1.08481C2.25567 0.894135 2.55235 0.750868 2.86688 0.66135C4.79681 0.1517 6.88787 0.936785 7.90342 2.54443C8.33812 3.23208 8.31189 3.76609 7.68607 4.28323C7.26322 4.5957 6.80698 4.86026 6.32576 5.07207C6.13874 5.16322 5.92918 5.19777 5.72281 5.17148C5.51643 5.14518 5.32223 5.05918 5.16405 4.92404C4.83241 4.68421 4.80055 4.34881 4.97856 3.99843Z" fill="#333333"/>
<path fill-rule="evenodd" clip-rule="evenodd" d="M116.835 4.53807C116.002 5.21448 115.095 5.54613 114.045 5.45806C113.637 5.42448 113.236 5.33561 112.852 5.19387C111.641 4.74231 111.604 3.23772 112.543 2.57068C112.669 2.46593 112.83 2.41227 112.994 2.42025C113.158 2.42822 113.313 2.49725 113.429 2.61377C113.679 2.86326 113.827 3.19754 113.843 3.55063C113.847 3.61048 113.863 3.66889 113.89 3.72252C113.917 3.77614 113.955 3.82392 114 3.8631C114.045 3.90227 114.098 3.93208 114.155 3.95081C114.212 3.96953 114.272 3.97681 114.332 3.97221C114.643 3.99095 114.949 3.88227 115.039 3.59747C115.333 2.68497 115.151 1.7425 113.826 1.74062C112.453 1.74062 111.077 1.7706 109.704 1.87366C108.173 1.97165 106.639 1.98916 105.106 1.92612C100.326 1.77997 95.5501 1.73875 90.7683 1.83431C87.9428 1.89614 85.1172 2.01231 82.2898 2.03292C80.3805 2.04791 78.4693 1.94111 76.5581 1.88677C74.6469 1.83243 72.7376 1.78934 70.8264 1.70877C69.4642 1.65256 68.1095 1.60571 66.7436 1.68441C65.7168 1.74437 64.6825 1.5495 63.6389 1.54201C61.1881 1.52702 58.7354 1.557 56.2846 1.56824C54.8006 1.88677 53.3091 1.53451 51.8214 1.61134C50.8302 1.6638 49.839 1.55325 48.8422 1.6919C48.2801 1.76873 47.6936 1.63757 47.1165 1.63195C45.9567 1.6207 44.8024 1.52702 43.6389 1.70315C42.955 1.80808 42.2336 1.71252 41.5309 1.70315C41.1562 1.70315 40.7815 1.65443 40.4067 1.68441C38.8022 1.83118 37.1911 1.89373 35.58 1.87178C34.0061 1.83993 32.4303 1.93361 30.8545 1.94298C28.7335 1.95797 26.6125 1.96359 24.4839 1.94298C23.028 1.92612 21.5759 1.81932 20.12 1.79871C18.6642 1.7781 17.2064 1.72751 15.7618 1.97109C15.5131 2.00517 15.261 2.00517 15.0123 1.97109C14.0754 1.87366 13.1779 2.09475 12.3029 2.28962C11.8888 2.37124 11.5047 2.56422 11.1921 2.84782C10.8794 3.13142 10.65 3.49489 10.5285 3.89914C10.5021 4.0067 10.498 4.11853 10.5163 4.22776C10.5347 4.33698 10.5752 4.4413 10.6353 4.53433C10.8958 4.90907 11.7951 5.09644 12.2186 4.90907C12.364 4.8378 12.4819 4.72058 12.554 4.57555C12.597 4.46918 12.597 4.35026 12.554 4.2439C12.5186 4.17391 12.4982 4.09729 12.4942 4.01897C12.4902 3.94064 12.5026 3.86235 12.5307 3.78911C12.5588 3.71587 12.6018 3.64932 12.6572 3.59372C12.7125 3.53813 12.7788 3.49473 12.8519 3.46631C13.1929 3.2958 13.4965 3.49067 13.7682 3.66867C14.1485 3.94276 14.4586 4.30296 14.6732 4.71982C14.409 5.65668 13.7363 6.13635 12.7695 6.32934C12.5269 6.38049 12.2776 6.39251 12.0312 6.36494C11.2518 6.27089 10.4989 6.02247 9.8165 5.63419C8.77097 5.04397 8.41121 4.12211 8.86653 3.07845C9.32184 2.03479 10.1781 1.25908 11.3511 0.813134C12.2917 0.455256 13.2866 0.374686 14.2853 0.342833C16.8167 0.277253 19.3443 0.236031 21.8776 0.187315C22.044 0.175297 22.2112 0.182212 22.376 0.207926C24.1485 0.567678 25.936 0.340959 27.7273 0.37656C30.0957 0.425276 32.4659 0.419655 34.8362 0.399044C36.3351 0.385928 37.821 0.301611 39.3143 0.249147C39.5635 0.226037 39.8136 0.216031 40.0638 0.219168C42.346 0.374686 44.6244 0.101124 46.9085 0.149841C49.1926 0.198557 51.4841 0.206052 53.7719 0.202304C54.8118 0.202304 55.8498 0.117987 56.8879 0.0767658C57.5531 0.0524075 58.2163 0.0186807 58.8815 0.0186807C61.0419 0.0186807 63.2023 0.0486601 65.3646 0.0355441C66.3164 0.0355441 67.2701 0.264137 68.2238 0.00931218C68.3662 -0.028162 68.5461 0.056155 68.711 0.0636498C69.2893 0.121923 69.8705 0.147572 70.4517 0.140472C72.7432 0.016807 75.0179 0.21542 77.302 0.327843C79.0408 0.408413 80.7871 0.554562 82.5353 0.363444C83.0243 0.31098 83.5283 0.363444 84.0342 0.363444C85.6531 0.325969 87.2739 0.267884 88.8946 0.2454C91.303 0.206676 93.7119 0.182943 96.1215 0.174199C97.9503 0.174199 99.7809 0.185441 101.612 0.206052C102.65 0.217294 103.689 0.266011 104.727 0.281C106.226 0.301611 107.725 0.400918 109.202 0.290369C110.403 0.200431 111.608 0.162957 112.805 0.0467864C113.508 -0.0532876 114.225 0.0399876 114.879 0.316601C115.352 0.544746 115.805 0.80976 116.236 1.10918C116.377 1.24297 116.484 1.40968 116.545 1.59447C117.003 2.50596 117.106 3.55473 116.835 4.53807Z" fill="#333333"/>
<path fill-rule="evenodd" clip-rule="evenodd" d="M83.9686 4.24398C83.852 4.26918 83.7444 4.32553 83.6573 4.40703C83.5702 4.48852 83.5068 4.59212 83.4739 4.70679C83.362 4.99445 83.346 5.3106 83.4284 5.60808C83.5108 5.90556 83.6871 6.16845 83.9311 6.35753C84.199 6.60969 84.5272 6.78869 84.8842 6.87729C85.2412 6.96589 85.6151 6.96112 85.9697 6.86343C86.6799 6.67606 86.8017 6.09708 86.8185 5.50311C86.8185 5.42817 86.8185 5.35322 86.8298 5.27827C86.8522 4.71615 86.6855 4.42948 86.1309 4.22712C85.8046 4.13178 85.4722 4.05916 85.1359 4.00977C84.7593 4.08471 84.3621 4.15592 83.9686 4.24398ZM85.4676 5.37945C85.4964 5.42238 85.5126 5.47256 85.5143 5.52425C85.5159 5.57595 85.503 5.62706 85.4769 5.67175C85.3008 5.87411 85.0872 5.82539 84.6806 5.51998C85.1116 5.19208 85.254 5.15835 85.4676 5.37945Z" fill="#333333"/>
<path fill-rule="evenodd" clip-rule="evenodd" d="M108.16 6.55798C108.941 6.49989 109.178 6.31252 109.318 5.63236C109.352 5.48583 109.372 5.3366 109.38 5.18642C109.397 4.64304 108.992 4.12215 108.381 3.87482C107.842 3.66309 107.07 3.79425 106.674 4.16337C106.191 4.62805 105.936 5.15644 106.136 5.80475C106.256 6.17949 106.976 6.64792 107.789 6.56922C107.913 6.56922 108.036 6.55798 108.16 6.55798ZM107.585 5.08149C107.689 5.04123 107.803 5.03022 107.913 5.04964C107.946 5.04964 108.01 5.1808 107.991 5.20328C107.928 5.29149 107.84 5.35873 107.739 5.39628C107.615 5.40042 107.492 5.38525 107.373 5.35131C107.463 5.23514 107.502 5.12084 107.585 5.07775V5.08149Z" fill="#333333"/>
<path fill-rule="evenodd" clip-rule="evenodd" d="M94.7556 5.95467C95.0329 5.22767 94.5307 4.12592 93.7569 3.82426C93.452 3.69451 93.1126 3.66947 92.7919 3.75305C92.4805 3.81868 92.1976 3.98069 91.9833 4.2161C91.7691 4.45152 91.6344 4.7484 91.5984 5.06465C91.4897 5.67923 91.812 6.09519 92.3628 6.37625C92.6672 6.51053 92.9802 6.62445 93.2997 6.71727C94.1635 6.72851 94.5532 6.48867 94.7556 5.95467ZM93.7232 5.29887C93.785 5.4394 93.5208 5.63801 93.3297 5.62677C93.0505 5.61178 92.7676 5.3963 92.865 5.24078C92.9624 5.08526 93.1329 5.01594 93.3334 4.86604C93.4825 4.99179 93.6137 5.13743 93.7232 5.29887Z" fill="#333333"/>
<path fill-rule="evenodd" clip-rule="evenodd" d="M50.9164 4.18018C50.5679 4.49684 50.4686 5.10392 50.7084 5.44307C51.035 5.89048 51.5153 6.20158 52.0571 6.31672C52.5989 6.43187 53.1642 6.34295 53.6445 6.06701C53.8232 5.9852 53.9627 5.83644 54.0328 5.65278C54.1029 5.46913 54.098 5.26529 54.0192 5.08519C53.9293 4.83411 53.8113 4.5924 53.7082 4.34507C53.6189 4.10109 53.4499 3.89437 53.2286 3.75836C53.0072 3.62235 52.7464 3.565 52.4884 3.59559C52.1993 3.56848 51.9078 3.60696 51.6356 3.70818C51.3634 3.8094 51.1175 3.97075 50.9164 4.18018ZM52.2954 5.26694C52.228 5.26694 52.1474 5.12828 52.0743 5.05146C52.1866 4.95813 52.3131 4.88348 52.4491 4.83036C52.5128 4.81537 52.6196 4.95965 52.7732 5.08893C52.623 5.17022 52.4622 5.23014 52.2954 5.26694Z" fill="#333333"/>
<path fill-rule="evenodd" clip-rule="evenodd" d="M77.1128 4.24947C76.9569 4.19824 76.795 4.16738 76.6312 4.15766C76.331 4.14227 76.0335 4.22079 75.7799 4.38231C75.5264 4.54383 75.3295 4.78032 75.2166 5.05892C74.9486 5.67724 75.1004 6.14192 75.6307 6.56725C76.2452 7.06566 76.8879 7.06004 77.5812 6.75462C78.1939 6.48668 78.4506 6.08384 78.3307 5.47301C78.2484 5.1694 78.1432 4.8725 78.0159 4.58487C77.7161 4.47432 77.4201 4.35253 77.1128 4.24947ZM76.5019 5.74844C76.4588 5.73533 76.4514 5.62103 76.427 5.56107L76.9891 5.42429C76.8804 5.72783 76.7324 5.82526 76.5019 5.75406V5.74844Z" fill="#333333"/>
<path fill-rule="evenodd" clip-rule="evenodd" d="M67.5548 3.91214C67.4067 3.96972 67.2766 4.06566 67.1778 4.19013C67.079 4.31459 67.0151 4.4631 66.9927 4.6204C66.8746 5.17127 67.2944 5.98821 67.8265 6.29363C68.1511 6.47347 68.5211 6.55472 68.8912 6.52743C69.2613 6.50014 69.6154 6.36549 69.9101 6.13998C69.9762 6.07551 70.0272 5.99725 70.0596 5.91077C70.092 5.82429 70.1049 5.73174 70.0974 5.6397C70.0384 5.2668 69.9603 4.89719 69.8632 4.53234C69.7452 3.97022 69.2674 3.62921 68.4392 3.65357C68.2593 3.70416 67.8977 3.7866 67.5548 3.91214ZM68.6303 5.27245C68.6303 5.29119 68.4692 5.36427 68.4579 5.35302C68.3933 5.27341 68.335 5.18883 68.2837 5.10007L68.5254 4.99889C68.5704 5.08592 68.6056 5.17767 68.6303 5.27245Z" fill="#333333"/>
<path fill-rule="evenodd" clip-rule="evenodd" d="M33.8712 5.86101C34.0557 6.1751 34.3212 6.43385 34.64 6.6102C34.9587 6.78654 35.319 6.87401 35.6831 6.86345C36.3689 6.86345 36.7212 6.45685 37.0303 6.00716C37.3057 5.60431 36.991 5.29702 36.738 4.99723C36.6387 4.87731 36.5357 4.75927 36.4476 4.62249C36.319 4.43124 36.146 4.27403 35.9433 4.16438C35.7407 4.05472 35.5144 3.99588 35.284 3.99292C33.8712 3.99854 33.2698 4.89043 33.8712 5.86101ZM35.7356 5.54061C35.61 5.62118 35.4882 5.75608 35.3608 5.76732C35.0648 5.79356 34.7987 5.57059 34.8774 5.39258C34.928 5.27454 35.0854 5.20521 35.2634 5.04032L35.7356 5.54061Z" fill="#333333"/>
<path fill-rule="evenodd" clip-rule="evenodd" d="M101.808 6.43624C102.502 6.23388 102.811 5.68675 102.492 5.09466C102.328 4.77018 102.087 4.49077 101.79 4.28078C101.493 4.07078 101.15 3.93658 100.789 3.88987C100.283 3.81679 99.5804 4.1372 99.4156 4.50819C99.3132 4.71616 99.2752 4.94998 99.3066 5.17966C99.338 5.40935 99.4373 5.62442 99.5917 5.7973C99.9927 6.29384 100.562 6.47746 101.252 6.54679C101.407 6.52243 101.613 6.49432 101.808 6.43624ZM100.856 5.27454L100.744 5.38321C100.72 5.35698 100.675 5.33262 100.673 5.30639C100.671 5.28016 100.718 5.2558 100.742 5.23332L100.856 5.27454Z" fill="#333333"/>
<path fill-rule="evenodd" clip-rule="evenodd" d="M26.0448 4.19697C25.3834 4.40121 25.1491 4.83403 25.3852 5.44486C25.6775 6.19435 26.3108 6.56909 27.1578 6.67777C27.866 6.76396 28.2351 6.57846 28.5443 5.98824C28.771 5.55541 28.6755 5.18629 28.2295 4.77782C28.0967 4.63171 27.9484 4.50041 27.7873 4.38622C27.5175 4.2307 27.2252 4.1164 26.9835 4.01147C26.6069 4.0808 26.3165 4.12202 26.0448 4.19697ZM27.169 5.43362C27.169 5.63598 26.9816 5.6491 26.8299 5.62099C26.7343 5.60038 26.6631 5.49358 26.5807 5.42425L26.9104 5.16755C27.0322 5.27623 27.169 5.34743 27.169 5.43362Z" fill="#333333"/>
<path fill-rule="evenodd" clip-rule="evenodd" d="M59.0913 5.80843C59.4661 6.41738 60.3767 6.63661 61.0438 6.33494C61.7576 6.01079 61.9806 5.47491 61.6808 4.72355C61.6204 4.54166 61.5319 4.37034 61.4185 4.21577C61.295 4.06299 61.137 3.94164 60.9576 3.86164C60.6584 3.73152 60.3254 3.70098 60.0076 3.77453C59.6898 3.84807 59.4041 4.02181 59.1925 4.27011C59.0614 4.41439 58.9546 4.5774 58.7466 4.84534C58.8628 5.18261 58.9171 5.52925 59.0913 5.80843ZM60.4029 5.21259C60.3673 5.26693 60.2774 5.29128 60.2156 5.32876C60.1968 5.25943 60.1425 5.17699 60.1669 5.12827C60.1912 5.07956 60.2943 5.06644 60.3655 5.03833C60.3767 5.10391 60.4254 5.18261 60.4011 5.21821L60.4029 5.21259Z" fill="#333333"/>
<path fill-rule="evenodd" clip-rule="evenodd" d="M44.5758 6.18313C44.9037 5.71095 44.6863 4.58673 44.201 4.21011C43.6089 3.7548 42.5484 3.83537 42.0669 4.35813C41.6247 4.8453 41.8308 5.89833 42.4903 6.25246C42.8935 6.43155 43.3102 6.57877 43.7364 6.69278C43.9047 6.6733 44.0669 6.61767 44.2118 6.52971C44.3567 6.44175 44.4808 6.32352 44.5758 6.18313ZM43.519 5.32684C43.5011 5.37662 43.4709 5.42108 43.4313 5.45612C43.3917 5.49116 43.3439 5.51565 43.2923 5.52733C43.2431 5.51783 43.1972 5.4955 43.1594 5.4626C43.1215 5.4297 43.0931 5.38739 43.0768 5.33996C43.0768 5.26314 43.2061 5.18819 43.3054 5.08139C43.3972 5.17882 43.5284 5.26314 43.519 5.32872V5.32684Z" fill="#333333"/>
<path fill-rule="evenodd" clip-rule="evenodd" d="M18.1581 5.39058C18.2131 5.5323 18.2815 5.66845 18.3624 5.79718C18.8383 6.59725 20.2192 6.5935 20.8413 5.73909C20.9201 5.60989 20.9555 5.4589 20.9425 5.30814C20.905 4.49495 20.2436 3.91597 19.3629 3.90285C18.3624 3.88786 17.8509 4.50994 18.1581 5.39058ZM19.5147 4.99148C19.5878 4.97836 19.6815 5.07018 19.7658 5.11327C19.6552 5.19009 19.5466 5.26879 19.4304 5.33624C19.377 5.28574 19.3275 5.23125 19.2824 5.17323C19.3573 5.10952 19.4266 5.0046 19.5147 4.99148Z" fill="#333333"/>
<path fill-rule="evenodd" clip-rule="evenodd" d="M129.978 3.99837L131.411 3.24889C131.315 2.98657 131.297 2.74111 131.156 2.58185C130.44 1.77053 128.825 1.72743 128.038 2.47692C127.321 3.15895 126.996 4.02273 126.762 4.91274C126.676 5.33172 126.752 5.76774 126.976 6.13253C127.245 6.64962 127.628 7.09957 128.094 7.44918C128.561 7.79878 129.1 8.0391 129.672 8.15239C130.521 8.35162 131.388 8.46214 132.26 8.48217C133.672 8.5009 135.07 8.46905 136.489 8.42783C137.688 8.3941 138.894 8.51589 140.096 8.58147C143.043 8.73886 145.988 8.95621 148.938 9.04615C151.186 9.11548 153.435 9.02554 155.683 8.99744C155.975 9.00181 156.266 8.96779 156.549 8.89626C157.686 8.57772 158.853 8.63581 160.017 8.62644C162.14 8.6077 164.258 8.63081 166.371 8.69577C167.656 8.73512 168.947 8.63581 170.236 8.60958C171.025 8.59271 171.823 8.66391 172.603 8.57772C173.264 8.50465 173.914 8.49341 174.581 8.46718C176.161 8.40534 177.738 8.3229 179.318 8.27044C179.897 8.24982 180.478 8.2873 181.059 8.30229C181.924 8.3229 182.792 8.30229 183.659 8.33976C185.655 8.41471 187.654 8.39597 189.655 8.44282C192.734 8.51589 195.812 8.58522 198.889 8.70139C201.216 8.78945 203.538 8.9712 205.865 9.06676C207.444 9.13234 209.028 9.11361 210.609 9.14921C212.271 9.18855 213.933 9.2635 215.595 9.28974C216.299 9.30285 217.004 9.23352 217.708 9.19792C217.999 9.18293 218.287 9.14921 218.578 9.14546C221.448 9.10611 224.319 9.07801 227.197 9.03491C229.942 8.99556 232.687 8.94122 235.441 8.89813C236.397 8.88314 237.353 8.87564 238.31 8.87564C239.721 8.84659 241.128 8.72138 242.522 8.5009C243.345 8.38848 244.175 8.32477 245.001 8.24046C245.125 8.22734 245.252 8.23109 245.376 8.21422C247.264 7.9519 248.336 6.81269 248.246 5.06826C248.237 4.3354 248.01 3.62181 247.594 3.01842C246.944 2.11155 245.145 1.96914 244.334 2.50503C244.263 2.56365 244.207 2.6378 244.17 2.72167C244.133 2.80554 244.116 2.89684 244.12 2.98844C244.169 3.42314 244.433 3.63487 244.93 3.72106C245.131 3.73383 245.331 3.76329 245.527 3.80913C245.711 3.87885 245.878 3.98534 246.018 4.12204C246.097 4.19727 246.152 4.2937 246.177 4.39963C246.202 4.50556 246.195 4.61644 246.159 4.71881C246.122 4.82118 246.056 4.91063 245.969 4.97632C245.882 5.04201 245.778 5.08111 245.67 5.08887C245.087 5.16007 244.489 5.12073 243.983 4.81156C243.611 4.58968 243.291 4.29113 243.043 3.93576C242.795 3.58039 242.626 3.17634 242.546 2.75048C242.481 2.46396 242.509 2.1641 242.626 1.89452C242.743 1.62494 242.943 1.39968 243.197 1.25151C244.454 0.428953 246.485 0.453311 247.802 1.25151C248.842 1.87921 249.357 2.82168 249.728 3.83161C250.232 5.19755 249.989 6.54475 249.32 7.817C249.104 8.23604 248.791 8.59764 248.407 8.8719C247.487 9.50383 246.42 9.89074 245.308 9.99612C243.247 10.1985 241.171 10.3709 239.101 10.5582C238.896 10.5899 238.689 10.6087 238.482 10.6144C236.535 10.5695 234.589 10.502 232.642 10.4683C231.705 10.4533 230.748 10.4889 229.801 10.517C228.806 10.5451 227.815 10.5882 226.822 10.6257C226.78 10.6235 226.738 10.6185 226.697 10.6107C224.624 10.4233 222.552 10.5545 220.48 10.6369C217.324 10.7643 214.165 10.77 211.012 10.6369C209.888 10.5882 208.778 10.5283 207.65 10.5901C206.787 10.6369 205.912 10.4777 205.038 10.4383C203.004 10.3465 200.969 10.2716 198.932 10.1854C196.022 10.0636 193.123 9.93429 190.204 9.81063C189.333 9.77503 188.458 9.7338 187.581 9.74317C184.879 9.77315 182.177 9.64012 179.475 9.64574C177.403 9.64574 175.325 9.72818 173.253 9.93429C171.941 10.0636 170.594 10.0036 169.262 10.028C169.054 10.028 168.844 10.0074 168.638 10.028C166.067 10.2734 163.485 10.2153 160.905 10.2509C160.655 10.2483 160.405 10.2589 160.156 10.2828C157.345 10.6388 154.514 10.4364 151.696 10.5301C148.488 10.6369 145.301 10.3259 142.106 10.2004C141.233 10.1666 140.363 10.0655 139.483 10.0542C137.693 10.0299 135.904 10.043 134.117 10.0542C132.75 10.0796 131.384 9.98047 130.036 9.75816C129.117 9.60668 128.241 9.26404 127.464 8.75244C126.687 8.24085 126.026 7.5717 125.524 6.78833C125.229 6.33968 125.053 5.82418 125.01 5.28936C124.902 3.60302 125.454 2.13778 126.987 1.08475C127.254 0.897025 127.551 0.756924 127.866 0.670662C129.798 0.151644 131.887 0.936729 132.902 2.54437C133.339 3.23203 133.311 3.76603 132.685 4.28318C132.263 4.59602 131.807 4.86061 131.327 5.07201C131.14 5.1634 130.93 5.19809 130.724 5.17178C130.517 5.14548 130.323 5.05934 130.165 4.92399C129.831 4.68415 129.8 4.34876 129.978 3.99837Z" fill="#333333"/>
<path fill-rule="evenodd" clip-rule="evenodd" d="M241.835 4.53807C241.001 5.21448 240.094 5.54613 239.045 5.45806C238.637 5.42407 238.235 5.33521 237.851 5.19387C236.641 4.74231 236.605 3.23772 237.542 2.57068C237.668 2.46593 237.829 2.41227 237.993 2.42025C238.157 2.42822 238.313 2.49725 238.428 2.61377C238.678 2.8636 238.827 3.19753 238.844 3.55063C238.848 3.61048 238.864 3.66889 238.891 3.72252C238.918 3.77614 238.956 3.82392 239.001 3.8631C239.046 3.90227 239.099 3.93208 239.156 3.95081C239.213 3.96953 239.273 3.97681 239.333 3.97221C239.644 3.99095 239.948 3.88227 240.038 3.59747C240.332 2.68497 240.15 1.7425 238.825 1.74062C237.454 1.74062 236.077 1.7706 234.703 1.87366C233.173 1.97166 231.638 1.98917 230.105 1.92612C225.325 1.77997 220.549 1.73875 215.769 1.83431C212.942 1.89614 210.116 2.01231 207.291 2.03292C205.38 2.04791 203.468 1.94111 201.557 1.88677C199.646 1.83243 197.731 1.79871 195.818 1.71814C194.456 1.66193 193.103 1.61508 191.735 1.69378C190.709 1.75374 189.674 1.55887 188.631 1.55138C186.18 1.53639 183.729 1.56637 181.276 1.57761C179.792 1.89614 178.301 1.54388 176.813 1.6207C175.824 1.67317 174.833 1.56262 173.836 1.70127C173.274 1.7781 172.685 1.64694 172.108 1.64131C170.948 1.63007 169.794 1.53639 168.631 1.71252C167.947 1.81744 167.227 1.72188 166.523 1.71252C166.148 1.71252 165.773 1.6638 165.398 1.69378C163.794 1.84055 162.183 1.9031 160.572 1.88115C158.998 1.8493 157.422 1.94298 155.846 1.95235C153.725 1.96734 151.604 1.97296 149.476 1.95235C148.02 1.93549 146.566 1.82869 145.11 1.80808C143.654 1.78746 142.198 1.73687 140.753 1.98046C140.505 2.01454 140.253 2.01454 140.004 1.98046C139.067 1.88302 138.17 2.10412 137.295 2.29899C136.88 2.38002 136.496 2.57281 136.183 2.85649C135.87 3.14017 135.641 3.50396 135.52 3.90851C135.493 4.01599 135.488 4.12799 135.507 4.23735C135.525 4.34671 135.566 4.45105 135.627 4.54369C135.886 4.91844 136.787 5.10581 137.208 4.91844C137.344 4.84276 137.453 4.72688 137.519 4.58679C137.562 4.48043 137.562 4.3615 137.519 4.25514C137.484 4.18516 137.464 4.10854 137.46 4.03021C137.456 3.95189 137.468 3.87359 137.496 3.80035C137.524 3.72712 137.567 3.66056 137.623 3.60497C137.678 3.54937 137.744 3.50597 137.817 3.47755C138.158 3.30704 138.46 3.50191 138.734 3.67991C139.113 3.95459 139.422 4.31468 139.637 4.73107C139.373 5.66792 138.691 6.14759 137.733 6.34058C137.491 6.39166 137.242 6.40368 136.997 6.37618C136.217 6.28213 135.463 6.03372 134.78 5.64544C133.735 5.05522 133.377 4.13335 133.832 3.08969C134.287 2.04604 135.155 1.27032 136.328 0.824377C137.265 0.466498 138.263 0.380307 139.262 0.354075C141.793 0.288495 144.321 0.247274 146.856 0.198557C147.023 0.18662 147.19 0.193534 147.355 0.219168C149.127 0.57892 150.915 0.352201 152.704 0.387802C155.072 0.436518 157.444 0.430897 159.813 0.410286C161.312 0.39717 162.8 0.312853 164.293 0.26039C164.542 0.237235 164.792 0.227228 165.042 0.23041C167.347 0.374686 169.624 0.101124 171.908 0.149841C174.192 0.198557 176.485 0.206052 178.773 0.202304C179.811 0.202304 180.849 0.117987 181.889 0.0767658C182.552 0.0524075 183.217 0.0186807 183.881 0.0186807C186.041 0.0186807 188.203 0.0486601 190.364 0.0355441C191.316 0.0355441 192.271 0.264137 193.223 0.00931218C193.367 -0.028162 193.545 0.056155 193.71 0.0636498C194.289 0.12188 194.87 0.147528 195.451 0.140472C197.742 0.016807 200.019 0.21542 202.301 0.327843C204.04 0.408413 205.786 0.554562 207.534 0.363444C208.025 0.31098 208.528 0.363444 209.033 0.363444C210.654 0.325969 212.273 0.267884 213.894 0.2454C216.307 0.214171 218.72 0.19481 221.134 0.187315C222.963 0.187315 224.793 0.198557 226.624 0.219168C227.662 0.23041 228.702 0.279127 229.74 0.294116C231.239 0.314727 232.738 0.414034 234.216 0.303485C235.415 0.213547 236.62 0.176073 237.817 0.0599024C238.52 -0.040267 239.238 0.0530115 239.892 0.329717C240.364 0.557862 240.817 0.822876 241.248 1.1223C241.386 1.25712 241.489 1.42375 241.548 1.60759C242.001 2.51581 242.103 3.55926 241.835 4.53807Z" fill="#333333"/>
<path fill-rule="evenodd" clip-rule="evenodd" d="M208.97 4.24398C208.853 4.26906 208.745 4.32534 208.658 4.40683C208.57 4.48832 208.506 4.59198 208.473 4.70679C208.361 4.9946 208.345 5.31097 208.428 5.60854C208.511 5.90612 208.688 6.16889 208.932 6.35753C209.2 6.60969 209.528 6.7887 209.884 6.87731C210.241 6.96592 210.615 6.96114 210.969 6.86343C211.681 6.67606 211.803 6.09708 211.82 5.50311C211.82 5.42817 211.82 5.35322 211.831 5.27827C211.851 4.71615 211.685 4.42948 211.13 4.22712C210.804 4.13178 210.471 4.05916 210.135 4.00977C209.76 4.08471 209.361 4.15592 208.97 4.24398ZM210.469 5.37945C210.495 5.42355 210.509 5.47409 210.509 5.5256C210.509 5.57711 210.495 5.62764 210.469 5.67175C210.281 5.87411 210.077 5.82539 209.67 5.51998C210.111 5.19208 210.257 5.15835 210.469 5.37945Z" fill="#333333"/>
<path fill-rule="evenodd" clip-rule="evenodd" d="M233.159 6.55798C233.941 6.49989 234.177 6.31252 234.317 5.63236C234.352 5.48605 234.374 5.33674 234.381 5.18642C234.396 4.64304 233.991 4.12215 233.382 3.87482C232.841 3.66309 232.071 3.79425 231.675 4.16337C231.19 4.62805 230.926 5.15644 231.137 5.80475C231.256 6.17949 231.975 6.64792 232.79 6.56922C232.914 6.56922 233.037 6.55798 233.159 6.55798ZM232.584 5.08149C232.688 5.04123 232.802 5.03022 232.912 5.04964C232.947 5.04964 233.011 5.1808 232.991 5.20328C232.93 5.2921 232.845 5.36068 232.745 5.40002C232.622 5.40413 232.5 5.38896 232.382 5.35505C232.462 5.23514 232.502 5.12084 232.584 5.07775V5.08149Z" fill="#333333"/>
<path fill-rule="evenodd" clip-rule="evenodd" d="M219.755 5.95449C220.034 5.22749 219.53 4.12575 218.758 3.82408C218.536 3.73448 218.297 3.69638 218.058 3.71265C217.819 3.72891 217.587 3.79913 217.38 3.91801C217.172 4.03688 216.994 4.20132 216.859 4.39893C216.724 4.59655 216.636 4.82219 216.601 5.05886C216.491 5.67344 216.815 6.0894 217.366 6.37046C217.67 6.50502 217.983 6.61895 218.302 6.71147C219.164 6.72833 219.552 6.4885 219.755 5.95449ZM218.724 5.29869C218.784 5.43922 218.52 5.63783 218.331 5.62659C218.049 5.6116 217.768 5.39613 217.864 5.24061C217.96 5.08509 218.132 5.01576 218.334 4.86587C218.483 4.99213 218.614 5.1377 218.724 5.29869Z" fill="#333333"/>
<path fill-rule="evenodd" clip-rule="evenodd" d="M175.915 4.18019C175.569 4.49685 175.469 5.10393 175.709 5.44307C176.036 5.89048 176.516 6.20158 177.058 6.31673C177.6 6.43187 178.165 6.34295 178.645 6.06702C178.824 5.9852 178.964 5.83644 179.034 5.65279C179.104 5.46913 179.099 5.26529 179.02 5.08519C178.93 4.83411 178.814 4.59241 178.709 4.34508C178.62 4.10124 178.451 3.89458 178.23 3.75855C178.009 3.62253 177.749 3.56511 177.491 3.59559C177.201 3.56804 176.909 3.60631 176.636 3.70754C176.363 3.80876 176.117 3.97034 175.915 4.18019ZM177.294 5.26694C177.229 5.26694 177.146 5.12829 177.073 5.05146C177.186 4.95827 177.312 4.88363 177.448 4.83037C177.51 4.81538 177.617 4.95965 177.77 5.08894C177.621 5.17036 177.461 5.23028 177.294 5.26694Z" fill="#333333"/>
<path fill-rule="evenodd" clip-rule="evenodd" d="M202.114 4.24941C201.957 4.19818 201.795 4.16732 201.63 4.15759C201.33 4.14246 201.033 4.22133 200.779 4.38321C200.526 4.54509 200.33 4.78193 200.217 5.06072C199.949 5.67905 200.101 6.14373 200.63 6.56906C201.244 7.06747 201.887 7.06185 202.58 6.75643C203.193 6.48849 203.451 6.08564 203.33 5.47481C203.247 5.17118 203.141 4.87428 203.013 4.58667C202.717 4.47425 202.419 4.35246 202.114 4.24941ZM201.501 5.74838C201.458 5.73526 201.452 5.62096 201.428 5.561L201.99 5.42422C201.879 5.72776 201.731 5.8252 201.501 5.754V5.74838Z" fill="#333333"/>
<path fill-rule="evenodd" clip-rule="evenodd" d="M192.554 3.91214C192.406 3.96955 192.275 4.06545 192.177 4.18994C192.078 4.31444 192.014 4.46303 191.992 4.6204C191.874 5.17127 192.292 5.98821 192.824 6.29363C193.149 6.4734 193.519 6.5546 193.889 6.52732C194.26 6.50003 194.614 6.36543 194.909 6.13998C194.975 6.07528 195.026 5.99698 195.058 5.91056C195.091 5.82415 195.104 5.73171 195.097 5.6397C195.038 5.26683 194.961 4.89722 194.864 4.53234C194.744 3.97022 194.266 3.62921 193.438 3.65357C193.258 3.70416 192.897 3.7866 192.554 3.91214ZM193.629 5.27245C193.629 5.29119 193.47 5.36427 193.459 5.35302C193.393 5.27391 193.334 5.18928 193.283 5.10007L193.524 4.99889C193.57 5.08555 193.605 5.1774 193.629 5.27245Z" fill="#333333"/>
<path fill-rule="evenodd" clip-rule="evenodd" d="M158.87 5.86101C159.055 6.17525 159.321 6.43407 159.64 6.61042C159.959 6.78676 160.32 6.87415 160.684 6.86345C161.368 6.86345 161.722 6.45685 162.029 6.00716C162.305 5.60431 161.99 5.29702 161.739 4.99723C161.638 4.87731 161.535 4.75927 161.447 4.62249C161.318 4.43112 161.145 4.27383 160.942 4.16416C160.74 4.05449 160.513 3.99572 160.283 3.99292C158.87 3.99854 158.269 4.89043 158.87 5.86101ZM160.744 5.54061C160.618 5.62118 160.497 5.75608 160.369 5.76732C160.071 5.79356 159.807 5.57059 159.886 5.39258C159.935 5.27454 160.092 5.20521 160.261 5.04032L160.744 5.54061Z" fill="#333333"/>
<path fill-rule="evenodd" clip-rule="evenodd" d="M226.809 6.43624C227.501 6.23388 227.81 5.68675 227.491 5.09466C227.328 4.77022 227.087 4.4908 226.79 4.28078C226.494 4.07077 226.15 3.93656 225.79 3.88987C225.282 3.81679 224.581 4.1372 224.416 4.50819C224.314 4.71599 224.276 4.9497 224.307 5.17937C224.338 5.40905 224.437 5.62422 224.591 5.7973C224.994 6.29384 225.561 6.47746 226.253 6.54679C226.408 6.52243 226.612 6.49432 226.809 6.43624ZM225.855 5.27454L225.743 5.38321C225.719 5.35698 225.674 5.33262 225.674 5.30639C225.674 5.28016 225.719 5.2558 225.741 5.23332L225.855 5.27454Z" fill="#333333"/>
<path fill-rule="evenodd" clip-rule="evenodd" d="M151.046 4.19697C150.384 4.40121 150.152 4.83403 150.388 5.44486C150.678 6.19435 151.312 6.56909 152.159 6.67777C152.867 6.76396 153.236 6.57846 153.545 5.98824C153.774 5.55541 153.676 5.18629 153.232 4.77782C153.099 4.6326 152.95 4.50138 152.79 4.38622C152.52 4.2307 152.228 4.1164 151.986 4.01147C151.606 4.0808 151.317 4.12202 151.046 4.19697ZM152.17 5.42425C152.17 5.62661 151.983 5.63973 151.831 5.61162C151.737 5.59101 151.664 5.48421 151.582 5.41488L151.911 5.15819C152.031 5.27623 152.164 5.34743 152.166 5.43362L152.17 5.42425Z" fill="#333333"/>
<path fill-rule="evenodd" clip-rule="evenodd" d="M184.092 5.80837C184.467 6.41733 185.376 6.63655 186.045 6.33488C186.759 6.01073 186.982 5.47485 186.68 4.72349C186.619 4.5416 186.531 4.37028 186.418 4.21572C186.294 4.06252 186.136 3.94108 185.957 3.86159C185.656 3.73045 185.322 3.69992 185.002 3.77454C184.683 3.84917 184.397 4.02495 184.186 4.27568C184.053 4.41995 183.946 4.58296 183.74 4.8509C183.862 5.18255 183.916 5.52919 184.092 5.80837ZM185.404 5.21253C185.368 5.26687 185.28 5.29123 185.216 5.3287C185.196 5.25937 185.142 5.17693 185.166 5.12821C185.19 5.0795 185.295 5.06638 185.364 5.03828C185.376 5.10386 185.424 5.18255 185.4 5.21815L185.404 5.21253Z" fill="#333333"/>
<path fill-rule="evenodd" clip-rule="evenodd" d="M169.571 6.18313C169.897 5.71095 169.68 4.58673 169.196 4.21011C168.606 3.7548 167.546 3.83537 167.062 4.35813C166.62 4.8453 166.828 5.89833 167.488 6.25246C167.89 6.43184 168.306 6.57907 168.732 6.69278C168.9 6.6733 169.062 6.61767 169.207 6.52971C169.352 6.44175 169.476 6.32352 169.571 6.18313ZM168.512 5.32684C168.495 5.37662 168.464 5.42108 168.425 5.45612C168.385 5.49116 168.337 5.51565 168.286 5.52733C168.237 5.51748 168.191 5.49502 168.153 5.46217C168.115 5.42932 168.087 5.3872 168.07 5.33996C168.07 5.26314 168.2 5.18819 168.301 5.08139C168.398 5.17882 168.529 5.26314 168.518 5.32872L168.512 5.32684Z" fill="#333333"/>
<path fill-rule="evenodd" clip-rule="evenodd" d="M143.152 5.39058C143.207 5.53282 143.277 5.66905 143.36 5.79718C143.836 6.59725 145.218 6.5935 145.84 5.73909C145.919 5.60972 145.953 5.45871 145.94 5.30814C145.902 4.49495 145.243 3.91597 144.36 3.90285C143.358 3.88786 142.85 4.50994 143.152 5.39058ZM144.506 4.99148C144.579 4.97836 144.673 5.07018 144.757 5.11327C144.649 5.19009 144.538 5.26879 144.422 5.33624C144.369 5.28521 144.32 5.23076 144.274 5.17323C144.358 5.10952 144.428 5.0046 144.514 4.99148H144.506Z" fill="#333333"/>
</g>
<defs>
<clipPath id="clip0_465_1701">
<rect width="250" height="10.7251" fill="white"/>
</clipPath>
</defs>
</svg>
