<svg width="319" height="262" viewBox="0 0 319 262" fill="none" xmlns="http://www.w3.org/2000/svg">
<path d="M260.527 3.99023C258.5 4.36262 256.473 4.78255 254.461 5.2421C264.046 6.39852 273.72 6.54982 283.334 5.69372" stroke="#333333" stroke-width="5" stroke-miterlimit="10"/>
<path d="M263.211 4.33887C255.083 4.54487 246.961 4.93839 238.843 5.51942C248.136 5.85113 257.44 5.61567 266.706 4.81426" stroke="#333333" stroke-width="5" stroke-miterlimit="10"/>
<path d="M263.135 4.37109C254.426 4.60351 245.737 4.9891 237.069 5.52788C250.357 6.05609 263.647 6.09571 276.94 5.64673" stroke="#333333" stroke-width="5" stroke-miterlimit="10"/>
<path d="M244.388 3.02344C234.822 3.34841 225.285 4.30642 215.837 5.89163M215.837 5.89163C219.661 5.83617 223.577 6.15309 227.394 5.49547C223.541 5.09631 219.655 5.22953 215.837 5.89163ZM215.837 5.89163C236.059 5.79655 256.282 5.39247 276.504 5.00423" stroke="#333333" stroke-width="5" stroke-miterlimit="10"/>
<path d="M221.772 3.57046C232.368 3.4701 242.958 3.41992 253.544 3.41992" stroke="#333333" stroke-width="5" stroke-miterlimit="10"/>
<path d="M221.887 3.6416C222.751 3.6416 223.615 3.6416 224.487 3.6416" stroke="#333333" stroke-width="5" stroke-miterlimit="10"/>
<path d="M253.964 3.19824C243.257 3.3884 232.503 3.46763 221.772 3.57063" stroke="#333333" stroke-width="5" stroke-miterlimit="10"/>
<path d="M219.325 4.00618C230.818 3.81075 242.313 3.54664 253.811 3.21387" stroke="#333333" stroke-width="5" stroke-miterlimit="10"/>
<path d="M263.157 4.05345C249.487 3.78406 235.82 3.6837 222.155 3.75237" stroke="#333333" stroke-width="5" stroke-miterlimit="10"/>
<path d="M214.254 5.00488C235.073 5.00488 255.892 5.04978 276.711 5.13958" stroke="#333333" stroke-width="5" stroke-miterlimit="10"/>
<path d="M219.271 4.56055C240.912 4.70882 262.531 5.99668 284.045 8.41913L222.002 6.88204L204.349 6.44626" stroke="#333333" stroke-width="5" stroke-miterlimit="10"/>
<path d="M214.583 5.00456C225.29 4.82233 236.082 4.41033 246.805 3.47539M246.805 3.47539C244.113 3.34862 241.222 2.96831 238.545 3.25354C241.281 3.65241 244.053 3.72684 246.805 3.47539ZM246.805 3.47539C242.726 3.28523 238.647 3.12677 234.568 3" stroke="#333333" stroke-width="5" stroke-miterlimit="10"/>
<path d="M214.269 5.50419C220.48 5.10803 226.685 4.63528 232.885 4.08594L219.478 4.21271" stroke="#333333" stroke-width="5" stroke-miterlimit="10"/>
<path d="M204.181 6.074C206.669 5.9578 209.155 5.8231 211.638 5.66992" stroke="#333333" stroke-width="5" stroke-miterlimit="10"/>
<path d="M188.157 6.69979L192.961 6.58887" stroke="#333333" stroke-width="5" stroke-miterlimit="10"/>
<path d="M221.864 3.61067H224.006L221.963 3.23828" stroke="#333333" stroke-width="5" stroke-miterlimit="10"/>
<path d="M219.195 4.71964C225.992 4.19143 232.791 3.63417 239.593 3.04785" stroke="#333333" stroke-width="5" stroke-miterlimit="10"/>
<path d="M214.483 5.07614L218.147 4.79883" stroke="#333333" stroke-width="5" stroke-miterlimit="10"/>
<path d="M188.242 6.80279L192.456 6.58887" stroke="#333333" stroke-width="5" stroke-miterlimit="10"/>
<path d="M166.536 7.79404C169.549 7.69368 172.56 7.57484 175.568 7.4375" stroke="#333333" stroke-width="5" stroke-miterlimit="10"/>
<path d="M302.463 217.188L302.18 221.014" stroke="#333333" stroke-width="5" stroke-miterlimit="10"/>
<path d="M302.287 213.915L302.241 217.782C302.195 216.498 302.149 215.222 302.118 213.939" stroke="#333333" stroke-width="5" stroke-miterlimit="10"/>
<path d="M302.531 175.123C302.649 170.401 302.766 165.676 302.883 160.948L302.723 175.297" stroke="#333333" stroke-width="5" stroke-miterlimit="10"/>
<path d="M302.348 182.175C302.348 180.55 302.432 178.926 302.47 177.294" stroke="#333333" stroke-width="5" stroke-miterlimit="10"/>
<path d="M301.315 225.475C301.397 220.953 301.489 216.429 301.591 211.902" stroke="#333333" stroke-width="5" stroke-miterlimit="10"/>
<path d="M301.621 202.783C301.553 210.358 301.43 217.932 301.315 225.507" stroke="#333333" stroke-width="5" stroke-miterlimit="10"/>
<path d="M302.799 150.514L297.797 212.108L302.164 152.376C301.369 174.856 299.839 197.305 297.575 219.723L300.673 162.311C300.795 182.024 300.063 201.711 298.478 221.371C300.298 199.82 301.183 178.213 301.132 156.551C301.453 165.156 301.606 173.768 301.652 182.381" stroke="#333333" stroke-width="5" stroke-miterlimit="10"/>
<path d="M301.621 148.668C300.948 171.608 299.375 194.49 296.902 217.314C298.126 194.982 300 172.696 302.524 150.459" stroke="#333333" stroke-width="5" stroke-miterlimit="10"/>
<path d="M301.606 147.297C300.55 167.961 299.054 188.592 297.116 209.193L300.275 110.153L301.178 81.9307L297.873 188.204L296.948 218.138L300.428 119.003L301.422 90.7571C301.881 103.434 302.07 116.127 301.988 128.836" stroke="#333333" stroke-width="5" stroke-miterlimit="10"/>
<path d="M303.48 82.7227C303.398 95.3997 303.143 108.077 302.715 120.754" stroke="#333333" stroke-width="5" stroke-miterlimit="10"/>
<path d="M295.288 133.424C294.822 156.171 294.684 178.919 294.523 201.674C295.671 181.224 296.719 160.775 297.958 140.341C299.9 108.751 302.195 77.8508 303.243 45.8174M303.243 45.8174C303.311 49.8424 303.854 54.3665 303.204 58.3598C302.524 54.3982 303.013 49.8344 303.243 45.8174ZM303.243 45.8174C303.375 52.7951 303.454 59.7727 303.48 66.7504" stroke="#333333" stroke-width="5" stroke-miterlimit="10"/>
<path d="M297.109 80.0928C296.905 84.1177 296.716 88.1454 296.543 92.1756" stroke="#333333" stroke-width="5" stroke-miterlimit="10"/>
<path d="M298.256 114.297C299.181 85.7732 299.946 57.2497 300.895 28.5361M300.895 28.5361C299.365 43.8596 300.704 34.8113 300.895 28.5361ZM300.895 28.5361C299.365 43.8596 298.271 59.2226 297.422 74.6015" stroke="#333333" stroke-width="5" stroke-miterlimit="10"/>
<path d="M298.256 116.476C298.97 137.118 299.493 157.766 299.824 178.419C296.52 170.345 296.818 161.337 297.078 152.756L297.973 123.709" stroke="#333333" stroke-width="5" stroke-miterlimit="10"/>
<path d="M296.78 79.9971C297.157 88.2847 297.501 96.575 297.812 104.868" stroke="#333333" stroke-width="5" stroke-miterlimit="10"/>
<path d="M294.692 55.7133L294.095 28.6318C294.646 37.8333 295.156 47.0374 295.625 56.2441" stroke="#333333" stroke-width="5" stroke-miterlimit="10"/>
<path d="M294.944 133.811C295.656 150.529 296.581 167.239 297.499 183.949L296.375 132.567" stroke="#333333" stroke-width="5" stroke-miterlimit="10"/>
<path d="M297.025 59.6741L295.808 18.6875C294.86 30.5723 294.279 42.5125 293.927 54.4448" stroke="#333333" stroke-width="5" stroke-miterlimit="10"/>
<path d="M298.256 109.788C298.603 130.732 299.462 151.659 300.833 172.571L299.457 116.879C299.189 87.3576 297.659 58.8342 297.315 29.5977M297.315 29.5977C297.575 40.1276 297.736 48.851 297.315 29.5977ZM297.315 29.5977C298.424 78.6421 299.189 128.558 300.55 177.761M300.55 177.761C299.732 150.228 300.313 166.883 300.55 177.761ZM300.55 177.761C299.189 142.028 298.424 107.166 297.415 71.8916" stroke="#333333" stroke-width="5" stroke-miterlimit="10"/>
<path d="M301.621 130.983C301.453 97.7059 300.688 63.6363 299.388 30.4619M299.388 30.4619C299.22 34.162 298.677 38.1949 299.12 41.8951C299.885 38.2979 299.495 34.1066 299.388 30.4619ZM299.388 30.4619C299.158 54.9128 297.629 80.267 298.156 104.861" stroke="#333333" stroke-width="5" stroke-miterlimit="10"/>
<path d="M301.636 148.525C301.749 157.193 301.907 165.856 302.111 174.513C302.039 165.877 301.953 157.236 301.851 148.589" stroke="#333333" stroke-width="5" stroke-miterlimit="10"/>
<path d="M301.897 148.754L302.379 178.688C299.396 142.305 299.839 105.732 301.025 69.2692C301.361 59.0007 301.736 48.7323 302.149 38.4639C301.491 66.7549 301.236 95.0538 301.384 123.361C301.42 131.379 301.496 139.397 301.614 147.415" stroke="#333333" stroke-width="5" stroke-miterlimit="10"/>
<path d="M297.185 103.363C297.695 82.4457 298.682 61.5523 300.145 40.6826L301.292 111.627L301.613 131.577" stroke="#333333" stroke-width="5" stroke-miterlimit="10"/>
<path d="M296.413 132.497C296.489 138.022 296.604 143.541 296.757 149.056C296.711 142.448 296.711 135.845 296.757 129.248" stroke="#333333" stroke-width="5" stroke-miterlimit="10"/>
<path d="M297.04 80.085C296.816 86.1436 296.647 92.218 296.535 98.3083" stroke="#333333" stroke-width="5" stroke-miterlimit="10"/>
<path d="M297.43 65.7281L297.958 60.2373C297.744 64.0985 297.55 67.9571 297.376 71.8131" stroke="#333333" stroke-width="5" stroke-miterlimit="10"/>
<path d="M295.763 58.9617L296.787 24.2344L295.12 56.3391" stroke="#333333" stroke-width="5" stroke-miterlimit="10"/>
<path d="M300.451 5.79688C298.707 23.5131 297.318 41.2637 296.283 59.0485" stroke="#333333" stroke-width="5" stroke-miterlimit="10"/>
<path d="M301.705 6.20117C300.464 20.3556 299.987 34.5708 300.275 48.7803C299.287 34.6041 299.328 20.371 300.397 6.20117" stroke="#333333" stroke-width="5" stroke-miterlimit="10"/>
<path d="M302.118 5.66992C300.742 16.1761 299.857 26.7403 299.464 37.3626L302.417 6.02646" stroke="#333333" stroke-width="5" stroke-miterlimit="10"/>
<path d="M304.007 6.10593L302.761 16.4853L303.732 6.00293" stroke="#333333" stroke-width="5" stroke-miterlimit="10"/>
<path d="M305.331 5.92383L304.566 15.2336L305.14 5.99514" stroke="#333333" stroke-width="5" stroke-miterlimit="10"/>
<path d="M304.879 5.88379L304.994 10.8437L305.239 5.93133" stroke="#333333" stroke-width="5" stroke-miterlimit="10"/>
<path d="M301.828 5.70215C301.927 9.46566 302.187 13.2292 302.592 16.9689C303.408 13.38 304.003 9.7413 304.375 6.07454" stroke="#333333" stroke-width="5" stroke-miterlimit="10"/>
<path d="M301.017 6.1299C300.961 9.75344 301.012 13.3743 301.17 16.9926L301.751 6.05859" stroke="#333333" stroke-width="5" stroke-miterlimit="10"/>
<path d="M300.872 5.89941L299.418 32.4579L301.201 5.99449" stroke="#333333" stroke-width="5" stroke-miterlimit="10"/>
<path d="M299.908 5.86776C299.541 12.2063 299.38 18.5448 299.426 24.8834C300.222 18.5448 300.828 12.1693 301.246 5.75684" stroke="#333333" stroke-width="5" stroke-miterlimit="10"/>
<path d="M302.31 6.12988C301.564 18.0978 301.487 30.1003 302.08 42.0773L301.629 6.20911" stroke="#333333" stroke-width="5" stroke-miterlimit="10"/>
<path d="M304.596 6.20103C303.732 18.5929 303.449 31.0402 303.77 43.44L304.168 5.93164" stroke="#333333" stroke-width="5" stroke-miterlimit="10"/>
<path d="M304.749 5.86816C304.222 20.8192 304.398 35.8019 305.277 50.7371C306.706 35.9159 306.916 20.9956 305.904 6.13755" stroke="#333333" stroke-width="5" stroke-miterlimit="10"/>
<path d="M303.801 5.68555L303.357 59.5631C302.493 41.633 301.828 23.6157 303.357 5.68555" stroke="#333333" stroke-width="5" stroke-miterlimit="10"/>
<path d="M299.962 6.16919C297.82 30.7786 296.474 55.5385 297.774 80.235C298.141 87.2074 298.722 94.164 299.556 101.097M299.556 101.097C299.426 97.3412 299.487 93.4905 299.036 89.7587C298.938 93.5462 299.112 97.336 299.556 101.097ZM299.556 101.097C297.629 70.7193 296.864 40.6112 299.158 9.71085C299.158 8.91853 302.218 8.91853 301.453 8.91853C300.688 28.7265 300.688 49.3267 301.591 69.0475M301.591 69.0475C301.713 65.3791 302.302 61.1243 301.591 57.4718C300.742 61.0055 301.361 65.4583 301.591 69.0475ZM301.591 69.0475C302.146 48.0617 302.796 27.0732 303.541 6.08203" stroke="#333333" stroke-width="5" stroke-miterlimit="10"/>
<path d="M298.707 5.79688C298.31 25.0264 299.709 44.2322 301.721 63.335L301.063 5.89988" stroke="#333333" stroke-width="5" stroke-miterlimit="10"/>
<path d="M297.384 69.8799C298.21 48.4873 298.86 27.0947 299.212 5.70215" stroke="#333333" stroke-width="5" stroke-miterlimit="10"/>
<path d="M296.833 79.791L296.925 81.9937C296.925 81.2647 296.986 80.5279 297.009 79.791" stroke="#333333" stroke-width="5" stroke-miterlimit="10"/>
<path d="M303.954 6.14551C302.218 42.196 296.864 78.6426 302.065 114.067M302.065 114.067C301.881 109.535 301.973 104.829 301.361 100.328C301.236 104.92 301.472 109.515 302.065 114.067ZM302.065 114.067C299.159 80.2272 300.688 46.9499 297.965 13.0624M297.965 13.0624C297.759 15.8514 297.201 19.0207 297.591 21.7779C298.279 19.0682 298.073 15.8118 297.965 13.0624ZM297.965 13.0624C296.864 28.2908 296.339 43.5455 296.39 58.8267" stroke="#333333" stroke-width="5" stroke-miterlimit="10"/>
<path d="M303.924 5.97857C303.641 9.14785 303.686 12.7767 302.776 15.835C302.386 12.6657 303.159 8.93392 303.541 5.76465" stroke="#333333" stroke-width="5" stroke-miterlimit="10"/>
<path d="M301.598 136.172C298.394 92.904 296.099 49.3265 303.327 6.02637" stroke="#333333" stroke-width="5" stroke-miterlimit="10"/>
<path d="M302.661 150.427C302.886 152.978 303.118 155.529 303.357 158.081C303.143 155.529 302.937 152.97 302.73 150.419" stroke="#333333" stroke-width="5" stroke-miterlimit="10"/>
<path d="M301.621 205.635C301.377 212.327 300.764 218.998 299.786 225.617M299.786 225.617C299.916 220.959 299.396 215.317 300.55 210.793C301.315 215.436 300.283 220.998 299.786 225.617ZM299.786 225.617C300.657 161.043 302.187 97.6581 298.73 33.5596M298.73 33.5596C298.608 39.4306 297.912 45.7533 298.608 51.6006C299.51 45.8326 298.96 39.3752 298.73 33.5596ZM298.73 33.5596C298.363 68.3423 299.128 102.412 301.56 137.29" stroke="#333333" stroke-width="5" stroke-miterlimit="10"/>
<path d="M301.698 148.303C302.134 159.601 302.463 170.915 302.424 182.222" stroke="#333333" stroke-width="5" stroke-miterlimit="10"/>
<path d="M300.956 225.269C302.983 162.612 301.453 99.2266 300.459 36.8633M300.459 36.8633C300.053 41.3161 298.646 47.3139 299.625 51.7668C301.155 47.4803 300.535 41.332 300.459 36.8633ZM300.459 36.8633C296.864 73.0801 300.688 109.527 301.606 146.092" stroke="#333333" stroke-width="5" stroke-miterlimit="10"/>
<path d="M300.933 225.617C300.933 224.682 300.971 223.74 301.048 222.805C301.093 223.732 301.048 224.675 301.048 225.602" stroke="#333333" stroke-width="5" stroke-miterlimit="10"/>
<path d="M297.109 80.0928C300.688 128.559 302.218 176.89 301.155 225.206" stroke="#333333" stroke-width="5" stroke-miterlimit="10"/>
<path d="M301.614 129.295C301.16 111.305 299.763 93.3537 297.43 75.5205" stroke="#333333" stroke-width="5" stroke-miterlimit="10"/>
<path d="M301.621 206.586C300.688 165.005 300.688 123.804 298.715 82.5957M298.715 82.5957C298.715 88.855 298.592 95.1381 298.814 101.389C299.013 95.146 298.86 88.8471 298.715 82.5957ZM298.715 82.5957C300.688 129.342 298.394 176.882 299.028 223.628M299.028 223.628C299.082 217.979 299.227 212.322 299.166 206.673C298.99 212.322 299.013 217.979 299.028 223.628ZM299.028 223.628C299.128 191.23 300.084 158.84 300.313 126.45C300.375 117.376 300.375 108.306 300.313 99.2423M300.313 99.2423C300.527 104.915 301.032 110.691 300.849 116.372C300.326 110.679 300.147 104.958 300.313 99.2423ZM300.313 99.2423C303.763 142.027 299.939 184.813 299.587 227.962M299.587 227.962C299.755 224.199 299.916 220.435 300.114 216.672C299.969 220.435 299.77 224.199 299.587 227.962ZM299.587 227.962C300.703 201.459 302.233 174.52 301.927 148.58" stroke="#333333" stroke-width="5" stroke-miterlimit="10"/>
<path d="M301.805 213.598C301.866 216.157 301.927 218.708 301.996 221.267L301.79 213.661" stroke="#333333" stroke-width="5" stroke-miterlimit="10"/>
<path d="M301.621 205.461L301.552 202.751C301.552 203.829 301.598 204.906 301.621 205.992" stroke="#333333" stroke-width="5" stroke-miterlimit="10"/>
<path d="M301.774 213.638C301.851 216.179 301.925 218.722 301.996 221.268C301.935 218.717 301.876 216.171 301.82 213.63" stroke="#333333" stroke-width="5" stroke-miterlimit="10"/>
<path d="M302.118 182.484C301.453 149.935 299.923 117.45 298.294 84.8779M298.294 84.8779C298.462 90.955 298.539 97.04 298.822 103.101C298.822 97.0242 298.539 90.9392 298.294 84.8779ZM298.294 84.8779C298.371 126.166 300.665 166.574 301.591 208.17" stroke="#333333" stroke-width="5" stroke-miterlimit="10"/>
<path d="M302.646 150.545C302.85 158.817 303.044 167.089 303.227 175.36" stroke="#333333" stroke-width="5" stroke-miterlimit="10"/>
<path d="M301.629 221.236C301.453 181.62 301.453 141.212 301.545 101.351M301.545 101.351C301.644 106.707 301.851 112.086 301.797 117.443C301.552 112.094 301.545 106.707 301.545 101.351ZM301.545 101.351C301.698 110.388 301.884 119.423 302.103 128.456" stroke="#333333" stroke-width="5" stroke-miterlimit="10"/>
<path d="M301.652 213.447C301.652 216.07 301.652 218.692 301.652 221.315" stroke="#333333" stroke-width="5" stroke-miterlimit="10"/>
<path d="M301.652 221.117C301.652 218.605 301.652 216.101 301.652 213.59" stroke="#333333" stroke-width="5" stroke-miterlimit="10"/>
<path d="M303.113 120.596C302.86 111.88 302.432 103.165 301.767 94.4492M301.767 94.4492C301.767 100.36 301.331 106.532 301.912 112.427C302.463 106.556 302.103 100.328 301.767 94.4492ZM301.767 94.4492C301.453 136.482 301.453 179.267 301.629 221.22" stroke="#333333" stroke-width="5" stroke-miterlimit="10"/>
<path d="M302.898 175.273C303.12 166.891 303.296 158.5 303.373 150.109" stroke="#333333" stroke-width="5" stroke-miterlimit="10"/>
<path d="M301.315 225.403C301.428 221.415 301.55 217.433 301.683 213.455" stroke="#333333" stroke-width="5" stroke-miterlimit="10"/>
<path d="M301.384 225.737C301.545 221.934 301.338 217.766 302.073 214.026C302.219 216.402 302.186 218.787 301.973 221.157" stroke="#333333" stroke-width="5" stroke-miterlimit="10"/>
<path d="M302.455 215.761C302.317 217.559 302.187 219.358 302.05 221.156" stroke="#333333" stroke-width="5" stroke-miterlimit="10"/>
<path d="M304.551 150.949C304.551 152.399 304.619 153.857 304.642 155.307" stroke="#333333" stroke-width="5" stroke-miterlimit="10"/>
<path d="M303.235 120.683C302.631 104.282 301.636 87.8892 299.908 71.5596C301.078 88.0002 302.248 104.441 303.128 120.897" stroke="#333333" stroke-width="5" stroke-miterlimit="10"/>
<path d="M304.168 161.954C304.122 158.104 304.066 154.25 304 150.395" stroke="#333333" stroke-width="5" stroke-miterlimit="10"/>
<path d="M303.472 150.331L303.824 168.031" stroke="#333333" stroke-width="5" stroke-miterlimit="10"/>
<path d="M304.161 111.904C303.651 104.055 303.013 96.2133 302.249 88.3799L302.883 120.461" stroke="#333333" stroke-width="5" stroke-miterlimit="10"/>
<path d="M302.577 175.194L304.375 150.926" stroke="#333333" stroke-width="5" stroke-miterlimit="10"/>
<path d="M302.034 182.365L302.455 176.818" stroke="#333333" stroke-width="5" stroke-miterlimit="10"/>
<path d="M301.598 198.623C300.93 204.962 300.191 211.3 299.38 217.639L301.621 187.848" stroke="#333333" stroke-width="5" stroke-miterlimit="10"/>
<path d="M301.889 128.701C302.939 113.499 304.265 98.3154 305.866 83.1504" stroke="#333333" stroke-width="5" stroke-miterlimit="10"/>
<path d="M302.08 148.47C301.736 169.07 300.902 189.67 298.967 210.199M298.967 210.199C298.967 204.653 298.447 198.615 299.25 193.101C300.015 198.568 299.465 204.724 298.967 210.199ZM298.967 210.199C298.417 184.845 300.711 158.698 301.614 133.099" stroke="#333333" stroke-width="5" stroke-miterlimit="10"/>
<path d="M301.614 189.425C301.507 190.637 301.369 191.841 301.17 193.038C300.795 160.355 301.644 127.68 301.981 95.0043C302.073 85.8821 302.113 76.7599 302.103 67.6377M302.103 67.6377C301.988 71.211 301.767 74.8161 301.828 78.3894C302.103 74.8319 302.073 71.211 302.103 67.6377ZM302.103 67.6377C300.688 115.09 298.394 163.421 297.514 211.348M297.514 211.348C297.728 205.477 297.973 199.606 298.149 193.735C297.889 199.606 297.705 205.477 297.514 211.348ZM297.514 211.348C299.182 168.175 300.711 124.597 302.233 81.7568M302.233 81.7568C302.279 87.4536 302.593 93.2612 302.233 98.9501C301.9 93.2242 301.9 87.4827 302.233 81.7568ZM302.233 81.7568C302.233 97.3813 302.34 112.998 302.271 128.622" stroke="#333333" stroke-width="5" stroke-miterlimit="10"/>
<path d="M301.568 190.336C301.438 191.239 301.308 192.134 301.17 193.038C301.17 188.608 301.231 184.179 301.415 179.75C301.381 178.497 301.492 177.245 301.744 176.019C302.271 178.039 301.996 180.535 301.958 182.611" stroke="#333333" stroke-width="5" stroke-miterlimit="10"/>
<path d="M303.488 82.6045C304.084 90.871 304.561 99.1428 304.918 107.42" stroke="#333333" stroke-width="5" stroke-miterlimit="10"/>
<path d="M302.08 128.472C301.438 103.205 302.203 77.0581 300.879 52.0684M300.879 52.0684C301.178 55.5229 301.744 59.1358 301.606 62.6062C300.918 59.223 300.956 55.4753 300.879 52.0684ZM300.879 52.0684C301.44 57.9474 301.968 63.829 302.463 69.7133" stroke="#333333" stroke-width="5" stroke-miterlimit="10"/>
<path d="M303.311 172.976C302.975 165.444 302.72 157.906 302.547 150.363" stroke="#333333" stroke-width="5" stroke-miterlimit="10"/>
<path d="M303.311 171.05C303.227 166.566 303.021 162.05 303.105 157.581C303.304 161.178 303.289 164.799 303.334 168.404" stroke="#333333" stroke-width="5" stroke-miterlimit="10"/>
<path d="M303.228 150.038C303.258 156.06 303.294 162.084 303.335 168.111" stroke="#333333" stroke-width="5" stroke-miterlimit="10"/>
<path d="M303.059 81.8594C303.059 94.8745 303.074 107.892 303.105 120.913" stroke="#333333" stroke-width="5" stroke-miterlimit="10"/>
<path d="M298.256 120.492C298.424 85.773 303.013 51.7033 303.258 16.4531M303.258 16.4531C303.258 20.1136 303.457 23.8851 303.158 27.5456C302.969 23.8495 303.003 20.1449 303.258 16.4531ZM303.258 16.4531C303.171 34.2222 303.118 51.9991 303.097 69.784" stroke="#333333" stroke-width="5" stroke-miterlimit="10"/>
<path d="M305.377 5.83691C301.453 50.1195 296.864 93.697 299.327 138.202M299.327 138.202C299.166 132.449 299.204 126.634 298.768 120.905C298.669 126.65 299.013 132.465 299.327 138.202ZM299.327 138.202C298.419 105.183 298.23 72.1698 298.761 39.1618C298.914 29.7596 299.125 20.3522 299.396 10.9394C299.816 34.0038 300.306 57.0682 300.16 80.1325C299.893 115.906 299.128 151.56 294.982 187.476M294.982 187.476C295.181 183.261 294.982 178.641 295.87 174.498C296.275 178.681 295.441 183.324 294.982 187.476ZM294.982 187.476L298.042 123.837" stroke="#333333" stroke-width="5" stroke-miterlimit="10"/>
<path d="M301.598 139.849C300.94 145.768 300.13 151.671 299.12 157.534C298.942 137.742 299.148 117.952 299.74 98.1653C300.326 78.5 301.346 58.8716 302.799 39.2803C303.633 28.1878 304.551 17.0954 305.461 6.00293" stroke="#333333" stroke-width="5" stroke-miterlimit="10"/>
<path d="M303.319 118.163C303.266 119.074 303.22 119.993 303.166 120.904" stroke="#333333" stroke-width="5" stroke-miterlimit="10"/>
<path d="M304.13 82.3828C304.13 93.396 303.969 104.409 303.449 115.415" stroke="#333333" stroke-width="5" stroke-miterlimit="10"/>
<path d="M303.923 5.94727C303.985 26.2834 304.048 46.6196 304.115 66.9557" stroke="#333333" stroke-width="5" stroke-miterlimit="10"/>
<path d="M304.65 6.04256C302.983 42.196 302.983 78.6426 300.925 115.176M300.925 115.176C299.396 86.7797 301.201 107.142 300.925 115.176ZM300.925 115.176C299.069 78.7417 300.01 42.2119 303.74 5.93164" stroke="#333333" stroke-width="5" stroke-miterlimit="10"/>
<path d="M302.47 75.9886C301.731 89.5847 300.94 103.178 300.099 116.769C299.783 87.8865 300.548 59.0277 302.394 30.1926C302.904 22.111 303.513 14.0425 304.222 5.9873" stroke="#333333" stroke-width="5" stroke-miterlimit="10"/>
<path d="M305.851 5.95508C304.953 27.2843 303.934 48.6055 302.792 69.9189" stroke="#333333" stroke-width="5" stroke-miterlimit="10"/>
<path d="M304.673 5.79688C300.813 36.4683 299.807 67.4529 301.667 98.3237M301.667 98.3237C300.688 74.269 301.308 91.5177 301.667 98.3237ZM301.667 98.3237C300.688 67.5422 299.158 36.6418 303.541 5.97911" stroke="#333333" stroke-width="5" stroke-miterlimit="10"/>
<path d="M306.073 5.92383C303.013 31.1037 299.954 57.2502 298.195 82.7786M298.195 82.7786C298.669 77.169 300.03 62.9707 298.195 82.7786ZM298.195 82.7786C300.688 57.2898 302.983 31.1433 305.277 6.16945" stroke="#333333" stroke-width="5" stroke-miterlimit="10"/>
<path d="M307.021 5.79669C303.668 23.7279 301.311 41.8436 299.961 60.0546C299.95 41.8299 301.426 23.6369 304.375 5.66992" stroke="#333333" stroke-width="5" stroke-miterlimit="10"/>
<path d="M308 10.5037L307.059 22.531C306.907 16.9595 307.096 11.3837 307.625 5.83691" stroke="#333333" stroke-width="5" stroke-miterlimit="10"/>
<path d="M266.676 239.76C268.516 239.326 270.412 239.205 272.29 239.404H260.932L267.777 239.348C260.407 240.188 252.948 239.333 245.933 236.845" stroke="#333333" stroke-width="5" stroke-miterlimit="10"/>
<path d="M286.148 240.323H268.06" stroke="#333333" stroke-width="5" stroke-miterlimit="10"/>
<path d="M10.9981 236.512C12.3442 210.167 13.1091 184.021 13.8816 157.716L14.5699 224.849C16.1684 200.659 15.4036 175.305 14.4246 151.076C11.5666 173.627 11.9351 196.491 15.5183 218.93C15.4163 196.349 14.7764 173.779 13.5986 151.219C11.5794 180.067 14.6387 208.591 14.6464 237.066M14.6464 237.066C14.8223 233.335 15.2659 229.595 14.9982 225.855C14.4681 229.566 14.3501 233.328 14.6464 237.066ZM14.6464 237.066C16.1761 209.383 14.6464 181.652 12.4972 153.604M12.4972 153.604C12.5507 157.407 12.3901 161.234 12.8108 165.021C13.0467 161.213 12.9417 157.391 12.4972 153.604ZM12.4972 153.604C13.1091 182.444 13.1091 210.967 13.828 239.348M13.828 239.348C13.7209 235.474 13.5756 231.599 13.5221 227.725C13.6903 231.599 13.7668 235.474 13.828 239.348ZM13.828 239.348C12.3442 210.167 11.5794 181.644 9.91205 151.971M9.91205 151.971C9.85086 155.822 9.55257 159.673 9.91205 163.516C10.2371 159.675 10.2371 155.812 9.91205 151.971ZM9.91205 151.971C9.24468 180.752 10.7971 209.541 14.5546 238.065M14.5546 238.065C14.4169 234.412 14.5087 230.736 13.9886 227.115C13.8173 230.775 14.007 234.444 14.5546 238.065ZM14.5546 238.065C13.8433 210.96 12.3136 184.021 11.4341 156.773M11.4341 156.773C11.4341 160.513 11.4341 164.244 11.5717 167.984C11.6865 164.244 11.5717 160.505 11.4341 156.773ZM11.4341 156.773C11.5488 184.813 13.0785 213.337 14.677 241.171M14.677 241.171C14.5776 237.74 14.5929 234.309 14.3099 230.87C14.241 234.309 14.4475 237.732 14.677 241.171ZM14.677 241.171C14.6081 215.713 14.6081 191.152 14.9447 165.401L15.6254 228.573C14.6212 215.717 14.3657 202.811 14.8605 189.924C11.6363 207.82 11.0484 226.119 13.1167 244.197C16.1349 226.894 16.7069 209.228 14.8147 191.754L14.8529 239C12.9548 224.358 12.3761 209.565 13.1244 194.812L12.8873 233.715L13.2926 196.745C11.0662 209.493 10.9989 222.544 13.0938 235.315C14.1362 221.229 14.4145 207.093 13.9274 192.974L14.8529 243.302V187.444C14.654 204.605 11.5947 222.036 15.4189 240.259C16.9486 245.806 23.0673 244.221 26.8914 242.636C31.4805 241.844 36.0695 241.052 40.4979 239.214C37.3869 238.339 34.0989 238.409 31.0251 239.415C27.9513 240.421 25.221 242.32 23.159 244.887C62.8388 247.39 101.846 247.39 141.388 247.731" stroke="#333333" stroke-width="5" stroke-miterlimit="10"/>
<path d="M10.4856 221.164C10.4646 197.949 11.57 174.747 13.7974 151.646C12.9714 170.464 12.0765 189.29 11.4417 208.115C11.2683 213.534 11.1128 218.954 10.9751 224.373" stroke="#333333" stroke-width="5" stroke-miterlimit="10"/>
<path d="M9.83564 205.461C10.0498 181.612 11.5795 157.843 11.6254 133.732M11.6254 133.732C9.95036 152.154 11.4953 139.065 11.6254 133.732ZM11.6254 133.732C10.8146 157.843 7.75528 181.612 9.70561 205.12" stroke="#333333" stroke-width="5" stroke-miterlimit="10"/>
<path d="M10.2945 221.308C10.8146 187.198 10.8146 153.921 10.891 120.152M10.891 120.152C10.5469 142.337 10.8452 127.616 10.891 120.152ZM10.891 120.152C10.0497 148.375 10.8146 176.898 9.56787 205.406" stroke="#333333" stroke-width="5" stroke-miterlimit="10"/>
<path d="M9.28491 191.405L9.52201 205.231" stroke="#333333" stroke-width="5" stroke-miterlimit="10"/>
<path d="M8.76489 160.973L8.9561 172.065" stroke="#333333" stroke-width="5" stroke-miterlimit="10"/>
<path d="M9.09364 111.967C8.90243 110.533 8.70358 109.107 8.49707 107.673" stroke="#333333" stroke-width="5" stroke-miterlimit="10"/>
<path d="M9.95805 118.979C9.7541 117.189 9.53484 115.398 9.30029 113.607" stroke="#333333" stroke-width="5" stroke-miterlimit="10"/>
<path d="M9.28491 188.545C10.0803 205.284 11.0746 222.015 12.2678 238.738C13.132 208.004 13.9887 177.215 12.2678 146.496C11.7783 137.844 11.0899 129.208 10.1339 120.604" stroke="#333333" stroke-width="5" stroke-miterlimit="10"/>
<path d="M8.4436 168.666C8.48949 169.775 8.52774 170.877 8.57363 171.978" stroke="#333333" stroke-width="5" stroke-miterlimit="10"/>
<path d="M9.23139 111.968C8.98664 109.242 8.7317 106.519 8.46655 103.799" stroke="#333333" stroke-width="5" stroke-miterlimit="10"/>
<path d="M9.82796 119.098C9.66734 117.094 9.50672 115.097 9.33081 113.101" stroke="#333333" stroke-width="5" stroke-miterlimit="10"/>
<path d="M9.28491 150.419C10.0497 175.305 10.0498 199.867 12.1607 224.223M12.1607 224.223C11.8777 218.811 12.306 198.013 12.1607 224.223ZM12.1607 224.223C12.3443 191.152 12.3443 157.082 10.1492 123.456" stroke="#333333" stroke-width="5" stroke-miterlimit="10"/>
<path d="M9.59082 149.412C10.8146 175.295 11.5794 201.476 11.8853 227.955M11.8853 227.955C11.7171 222.147 12.1454 194.773 11.8853 227.955ZM11.8853 227.955C12.1454 194.773 12.7725 161.559 12.6502 128.368C12.6502 119.352 12.2372 110.272 10.4474 101.43C10.0803 107.293 9.80497 113.161 9.62141 119.035" stroke="#333333" stroke-width="5" stroke-miterlimit="10"/>
<path d="M9.98096 149.507C10.8166 177.15 13.1377 204.723 16.9333 232.098M16.9333 232.098C11.4953 210.912 16.1685 226.013 16.9333 232.098ZM16.9333 232.098C10.0498 204.621 12.3443 175.305 10.1569 147.027" stroke="#333333" stroke-width="5" stroke-miterlimit="10"/>
<path d="M10.1416 125.952C11.5795 161.836 12.3443 196.698 13.8664 232.249M13.8664 232.249C13.3845 199.574 13.5987 224.5 13.8664 232.249ZM13.8664 232.249C13.1015 190.359 12.3367 148.366 12.0002 106.54M12.0002 106.54C12.1378 115.771 12.9103 139.699 12.0002 106.54ZM12.0002 106.54C13.1092 149.159 13.874 191.152 12.329 234.23M12.329 234.23C12.329 206.031 12.7726 224.841 12.329 234.23ZM12.329 234.23C12.329 198.283 12.329 161.836 12.4208 125.865M12.4208 125.865C12.4208 133.788 13.2851 156.44 12.4208 125.865ZM12.4208 125.865C13.874 165.005 14.6388 204.621 15.7402 243.54M15.7402 243.54C15.4955 234.88 15.549 212.037 15.7402 243.54ZM15.7402 243.54C16.1685 203.036 14.6388 162.628 10.1416 122.497" stroke="#333333" stroke-width="5" stroke-miterlimit="10"/>
<path d="M9.30029 114.82C9.36913 112.443 9.43032 110.066 9.49915 107.689L9.88922 118.782" stroke="#333333" stroke-width="5" stroke-miterlimit="10"/>
<path d="M8.60415 171.922C8.55316 168.261 8.52512 164.601 8.52002 160.94" stroke="#333333" stroke-width="5" stroke-miterlimit="10"/>
<path d="M9.912 205.342C9.6596 201.698 9.45309 198.045 9.26953 194.393" stroke="#333333" stroke-width="5" stroke-miterlimit="10"/>
<path d="M9.91213 149.468C9.79485 173.015 10.2257 196.558 11.2047 220.095C10.807 216.276 10.4628 212.454 10.1722 208.63" stroke="#333333" stroke-width="5" stroke-miterlimit="10"/>
<path d="M9.31543 185.289C13.1396 152.328 18.4935 118.259 11.6099 84.9102M11.6099 84.9102C10.9216 99.4333 13.1396 92.041 11.6099 84.9102ZM11.6099 84.9102C10.9216 99.436 10.4423 113.962 10.172 128.488" stroke="#333333" stroke-width="5" stroke-miterlimit="10"/>
<path d="M8.67315 161.091L8.50488 171.605" stroke="#333333" stroke-width="5" stroke-miterlimit="10"/>
<path d="M9.10132 111.825L10.478 48.8359L9.34607 119.099" stroke="#333333" stroke-width="5" stroke-miterlimit="10"/>
<path d="M9.29248 185.819C9.43015 192.211 9.57802 198.607 9.73609 205.009" stroke="#333333" stroke-width="5" stroke-miterlimit="10"/>
<path d="M8.86426 161.131C8.91015 164.606 8.96114 168.082 9.01723 171.558" stroke="#333333" stroke-width="5" stroke-miterlimit="10"/>
<path d="M10.1644 130.024C12.3441 99.2427 15.4035 67.55 14.1186 36.4277M14.1186 36.4277C11.7629 55.895 14.2945 43.3209 14.1186 36.4277ZM14.1186 36.4277C12.3441 62.0037 9.28479 86.5656 9.04004 111.785" stroke="#333333" stroke-width="5" stroke-miterlimit="10"/>
<path d="M9.30029 186.659C10.4526 199.675 11.7937 212.674 13.3233 225.657L13.2392 145.404C13.1092 103.205 13.1092 62.0041 13.1168 20.3203M13.1168 20.3203C13.0556 45.8488 13.1168 35.3743 13.1168 20.3203ZM13.1168 20.3203C13.1168 81.0198 13.1168 142.028 13.1168 203.037C13.1104 205.952 12.0862 208.766 10.2334 210.96" stroke="#333333" stroke-width="5" stroke-miterlimit="10"/>
<path d="M10.1338 125.635L10.2638 78.0485C10.4474 97.698 10.7304 117.355 10.8068 137.005C10.8068 167.382 12.3365 198.283 11.6635 228.074M11.6635 228.074C11.7629 224.112 12.0688 220.087 11.8547 216.134C11.5729 220.107 11.5091 224.093 11.6635 228.074ZM11.6635 228.074C13.109 176.098 13.8738 124.597 15.7936 72.534M15.7936 72.534C15.7936 76.7174 15.893 80.9405 15.6636 85.116C15.4953 80.9405 15.6636 76.7174 15.7936 72.534ZM15.7936 72.534C14.6387 92.1121 14.6387 112.712 15.4035 132.52C15.4035 167.382 14.6387 202.244 15.0899 237.336M15.0899 237.336C14.8069 236.702 15.327 225.277 15.0899 237.336ZM15.0899 237.336C14.8069 236.702 12.0688 229.991 13.6138 229.516C15.1588 229.04 15.0976 236.742 15.0899 237.336ZM15.0899 237.336C11.0975 228.541 10.9216 218.598 11.4799 209.074C14.6387 165.005 17.698 121.428 12.9178 76.757M12.9178 76.757C10.9675 97.3573 14.2333 88.6893 12.9178 76.757ZM12.9178 76.757C7.75514 129.359 11.5793 182.444 16.1378 235.07M16.1378 235.07C16.0077 230.07 16.2219 224.825 15.5565 219.858C15.1817 224.833 15.7477 230.102 16.1378 235.07ZM16.1378 235.07C13.8433 172.144 12.3136 110.343 11.2046 47.5205" stroke="#333333" stroke-width="5" stroke-miterlimit="10"/>
<path d="M9.28491 157.739L9.91208 204.193L10.0574 149.42" stroke="#333333" stroke-width="5" stroke-miterlimit="10"/>
<path d="M8.4436 96.3584L8.65776 111.84" stroke="#333333" stroke-width="5" stroke-miterlimit="10"/>
<path d="M8 64.2861L8.42831 95.2499" stroke="#333333" stroke-width="5" stroke-miterlimit="10"/>
<path d="M8.45898 166.146C8.58136 167.979 8.70883 169.807 8.8414 171.629" stroke="#333333" stroke-width="5" stroke-miterlimit="10"/>
<path d="M8.13013 95.4559C9.33092 79.9898 10.3864 64.5 10.677 48.9785" stroke="#333333" stroke-width="5" stroke-miterlimit="10"/>
<path d="M8.5813 111.888C9.0504 91.5785 9.52205 71.2687 9.99625 50.959" stroke="#333333" stroke-width="5" stroke-miterlimit="10"/>
<path d="M9.14725 50.7686C8.81073 68.7621 9.07842 86.7636 8.4436 104.749" stroke="#333333" stroke-width="5" stroke-miterlimit="10"/>
<path d="M9.85085 50.7373C9.45314 71.1316 8.66535 91.5258 9.1472 111.92" stroke="#333333" stroke-width="5" stroke-miterlimit="10"/>
<path d="M8.46655 111.753C8.50479 91.4459 8.9637 71.1467 9.48379 50.8555" stroke="#333333" stroke-width="5" stroke-miterlimit="10"/>
<path d="M10.1492 49.2637C9.91207 70.0541 10.0574 90.8683 8.77246 111.635" stroke="#333333" stroke-width="5" stroke-miterlimit="10"/>
<path d="M9.50684 118.845C10.3635 95.6617 9.99633 72.4626 10.2028 49.2715" stroke="#333333" stroke-width="5" stroke-miterlimit="10"/>
<path d="M12.0613 33.8447C12.3443 65.9653 12.3443 99.2426 10.1646 131.736" stroke="#333333" stroke-width="5" stroke-miterlimit="10"/>
<path d="M299.51 237.059C291.738 236.363 283.918 236.44 276.16 237.289C280.851 238.351 285.658 238.769 290.455 238.533L282.424 238.651C284.163 239.459 286.071 239.801 287.971 239.646C289.871 239.491 291.704 238.844 293.3 237.764C287.939 235.656 282.081 235.316 276.527 236.789C280.828 237.737 285.274 237.737 289.575 236.789C271.097 235.791 252.598 235.501 234.078 235.918C246.864 236.218 259.656 235.792 272.397 234.642L206.475 233.335L241.191 232.384L203.485 232.146" stroke="#333333" stroke-width="5" stroke-miterlimit="10"/>
<path d="M299.702 234.476C285.768 232.55 271.622 233.035 257.842 235.91C270.799 237.283 283.875 236.867 296.726 234.674C282.398 233.876 268.06 233.784 253.712 234.397C266.566 235.435 279.479 235.411 292.329 234.325C284.181 232.659 275.77 232.979 267.762 235.26C277.907 237.231 288.321 237.18 298.447 235.11C288.367 233.827 278.161 234.032 268.137 235.72C278.046 237.291 288.129 237.278 298.034 235.68C288.767 232.897 279.007 232.355 269.506 234.096C277.901 236.152 286.624 236.325 295.09 234.603C287.679 233.068 280.028 233.304 272.718 235.292C281.088 237.331 289.816 237.184 298.118 234.864C290.733 232.295 282.682 232.719 275.586 236.053C283.474 237.655 291.534 238.151 299.549 237.526" stroke="#333333" stroke-width="5" stroke-miterlimit="10"/>
<path d="M286.569 239.824C270.095 239.243 253.618 239.113 237.138 239.435C251.491 239.716 265.847 239.107 280.129 237.613C265.028 236.36 249.857 236.283 234.744 237.383C252.842 239.431 271.076 239.868 289.246 238.691C271.431 237.486 253.584 237.127 235.708 237.613C253.601 239.26 271.606 239.127 289.476 237.217C274.414 235.519 259.238 235.191 244.121 236.234C261.981 238.151 279.977 238.311 297.866 236.71C278.827 236.477 259.792 236.889 240.763 237.946C260.451 238.769 280.17 237.658 299.656 234.626" stroke="#333333" stroke-width="5" stroke-miterlimit="10"/>
<path d="M282.385 240.679L286.072 240.362" stroke="#333333" stroke-width="5" stroke-miterlimit="10"/>
<path d="M247.585 241.234C242.104 241.382 236.623 241.665 231.141 242.082C236.781 242.23 242.42 242.28 248.06 242.233" stroke="#333333" stroke-width="5" stroke-miterlimit="10"/>
<path d="M249.696 240.188C241.461 240.156 233.244 241.021 225.183 242.771C232.475 243.516 239.782 243.91 247.104 243.952" stroke="#333333" stroke-width="5" stroke-miterlimit="10"/>
<path d="M224.686 243.603C232.442 243.339 240.184 242.811 247.914 242.019L207.47 241.115C220.905 241.332 234.346 241.282 247.792 240.965" stroke="#333333" stroke-width="5" stroke-miterlimit="10"/>
<path d="M247.7 241.995C237.406 241.963 227.113 242.188 216.824 242.669" stroke="#333333" stroke-width="5" stroke-miterlimit="10"/>
<path d="M216.724 243.294C227.08 243.231 237.444 243.033 247.784 242.431" stroke="#333333" stroke-width="5" stroke-miterlimit="10"/>
<path d="M174.987 242.906C173.411 243.038 171.836 243.186 170.26 243.35" stroke="#333333" stroke-width="5" stroke-miterlimit="10"/>
<path d="M208.005 242.47L218.055 241.868C198.776 240.811 179.472 240.722 160.142 241.598C178.768 242.296 197.402 242.296 216.044 241.598C204.275 241.313 192.507 241.596 180.739 242.446" stroke="#333333" stroke-width="5" stroke-miterlimit="10"/>
<path d="M216.938 243.254C222.048 242.526 227.126 241.559 232.143 240.347L201.841 242.47" stroke="#333333" stroke-width="5" stroke-miterlimit="10"/>
<path d="M229.726 244.213C233.031 243.806 236.324 243.352 239.608 242.85C227.646 242.216 215.676 242.089 203.699 242.47" stroke="#333333" stroke-width="5" stroke-miterlimit="10"/>
<path d="M210.843 242.462L233.069 241.115C227.103 241.506 221.137 241.952 215.172 242.454" stroke="#333333" stroke-width="5" stroke-miterlimit="10"/>
<path d="M221.474 243.35C230.046 242.678 238.558 241.354 246.943 239.388C227.51 236.227 207.746 235.902 188.226 238.422L234.063 238.58C218.274 238.086 202.47 238.559 186.735 239.998C203.947 241.847 221.301 241.778 238.499 239.792C231.114 236.76 222.918 236.605 215.432 239.357C221.869 240.531 228.434 240.765 234.935 240.054L205.106 242.494" stroke="#333333" stroke-width="5" stroke-miterlimit="10"/>
<path d="M249.253 240.196C234.4 240.513 219.562 241.271 204.739 242.47" stroke="#333333" stroke-width="5" stroke-miterlimit="10"/>
<path d="M267.716 240.434C273.055 240.402 278.408 240.352 283.778 240.284C278.47 240.146 273.162 240.067 267.854 240.046" stroke="#333333" stroke-width="5" stroke-miterlimit="10"/>
<path d="M249.543 240.053L192.005 238.778L254.064 239.308L271.724 239.459C248.208 238.45 224.674 238.131 201.122 238.5C194.457 238.611 187.798 238.78 181.144 239.007C203.926 239.874 226.721 240.352 249.528 240.441" stroke="#333333" stroke-width="5" stroke-miterlimit="10"/>
<path d="M279.372 240.712L267.663 240.45" stroke="#333333" stroke-width="5" stroke-miterlimit="10"/>
<path d="M253.452 239.824C232.281 239.032 211.087 239.666 189.924 240.387C212.166 241.073 234.428 240.406 256.595 238.39C234.071 238.01 211.546 238.881 189.022 239.254C182.597 239.357 176.172 239.42 169.748 239.404M169.748 239.404C174.559 239.174 179.392 238.802 184.211 238.77C179.423 239.19 174.559 239.341 169.748 239.404ZM169.748 239.404C206.613 237.899 244.09 237.899 280.443 240.68" stroke="#333333" stroke-width="5" stroke-miterlimit="10"/>
<path d="M247.998 241.472C223.44 241.86 198.965 241.86 174.268 242.114M174.268 242.114C178.475 242.05 182.681 241.916 186.903 241.971C182.704 242.145 178.49 242.137 174.268 242.114ZM174.268 242.114C199.73 241.86 224.204 240.275 249.375 240.695" stroke="#333333" stroke-width="5" stroke-miterlimit="10"/>
<path d="M186.49 242.462C206.888 241.353 227.31 241.139 247.731 241.131" stroke="#333333" stroke-width="5" stroke-miterlimit="10"/>
<path d="M249.306 240.601C228.09 241.654 206.835 241.266 185.626 242.455" stroke="#333333" stroke-width="5" stroke-miterlimit="10"/>
<path d="M249.398 240.569C246.339 240.672 243.279 240.822 240.22 240.854C243.333 240.664 246.453 240.616 249.559 240.545" stroke="#333333" stroke-width="5" stroke-miterlimit="10"/>
<path d="M174.559 242.898C157.013 243.397 139.476 244.276 121.923 244.403M121.923 244.403C125.655 244.261 129.387 244.07 133.127 243.983C129.395 244.189 125.655 244.308 121.923 244.403ZM121.923 244.403C150.015 244.237 179.079 241.068 207.745 241.012L142.879 242.597C178.314 241.852 214.261 242.644 249.337 240.568" stroke="#333333" stroke-width="5" stroke-miterlimit="10"/>
<path d="M143.101 245.314C129.173 245.885 115.215 246.194 101.28 245.576M101.28 245.576C105.211 245.235 109.264 244.617 113.219 244.68C109.279 245.402 105.278 245.702 101.28 245.576ZM101.28 245.576C130.129 241.86 159.958 242.652 189.794 242.47" stroke="#333333" stroke-width="5" stroke-miterlimit="10"/>
<path d="M151.025 244.966L147.858 245.108" stroke="#333333" stroke-width="5" stroke-miterlimit="10"/>
<path d="M159.14 244.229L161.763 244.166" stroke="#333333" stroke-width="5" stroke-miterlimit="10"/>
<path d="M37.7982 252.12C39.8785 244.237 32.2301 241.86 26.8763 242.652C25.3466 242.652 23.8169 244.237 21.6448 244.332L65.6765 242.787L26.7386 245.655C52.1465 244.237 77.3862 242.652 102.748 241.694C84.7914 241.557 66.8432 242.552 49.003 244.673L100.721 241.4L34.5935 243.698C72.0705 243.453 108.783 242.66 146.459 241.995C124.049 242.787 101.563 243.627 79.413 247.454C103.391 246.622 127.101 245.829 150.772 244.467" stroke="#333333" stroke-width="5" stroke-miterlimit="10"/>
<path d="M15.656 183.055L14.394 180.947" stroke="#333333" stroke-width="5" stroke-miterlimit="10"/>
<path d="M15.5183 13.625C15.5374 15.8505 15.8724 18.0609 16.5126 20.1854" stroke="#333333" stroke-width="5" stroke-miterlimit="10"/>
<path d="M15.7861 13.7754L11.9619 41.0311L15.266 13.8229" stroke="#333333" stroke-width="5" stroke-miterlimit="10"/>
<path d="M14.9293 13.9972C15.271 28.9984 15.4443 43.9996 15.4494 59.0008L16.2755 18.3628L14.0727 65.062C11.8371 47.9517 12.354 30.5759 15.6024 13.6406" stroke="#333333" stroke-width="5" stroke-miterlimit="10"/>
<path d="M13.4305 15.5024L12.2832 52.3372L13.7364 14.9398C12.9102 25.7882 13.0177 36.6913 14.0576 47.5199L14.7077 14.0049" stroke="#333333" stroke-width="5" stroke-miterlimit="10"/>
<path d="M12.696 17.3726L12.7878 17.8638C13.1996 16.5932 13.5317 15.2964 13.7821 13.9814" stroke="#333333" stroke-width="5" stroke-miterlimit="10"/>
<path d="M12.7114 15.9942L13.0633 19.2665L13.1015 15.4316" stroke="#333333" stroke-width="5" stroke-miterlimit="10"/>
<path d="M12.7495 17.0242C12.9424 18.0436 13.1979 19.0493 13.5143 20.035C14.0914 18.0223 14.2837 15.9123 14.0803 13.8232" stroke="#333333" stroke-width="5" stroke-miterlimit="10"/>
<path d="M14.3253 13.7831L13.2393 24.5032C14.192 20.9611 14.764 17.3207 14.9448 13.6484" stroke="#333333" stroke-width="5" stroke-miterlimit="10"/>
<path d="M14.8607 14.0683L14.0576 21.7459L14.5548 13.7197" stroke="#333333" stroke-width="5" stroke-miterlimit="10"/>
<path d="M12.7344 32.1967L14.7306 14.6944L14.7841 20.0822L15.1819 14.0605" stroke="#333333" stroke-width="5" stroke-miterlimit="10"/>
<path d="M11.8547 39.8662L12.5431 33.8525" stroke="#333333" stroke-width="5" stroke-miterlimit="10"/>
<path d="M11.6177 47.1162C11.5004 49.9633 11.4418 52.813 11.4418 55.6653C11.3398 52.9503 11.2659 50.2327 11.22 47.5124" stroke="#333333" stroke-width="5" stroke-miterlimit="10"/>
<path d="M16.3672 13.8545C14.0423 23.3614 12.5348 33.0629 11.8623 42.8454" stroke="#333333" stroke-width="5" stroke-miterlimit="10"/>
<path d="M10.1722 211.332C10.6821 216.614 11.2736 221.867 11.9467 227.091L10.5011 169.014L10.0805 152.431C9.88925 170.511 10.5394 188.608 12.0231 206.625C11.5948 186.506 12.0359 166.399 13.3463 146.306C13.7236 140.649 14.1621 134.997 14.6618 129.351C13.2392 151.203 12.7293 173.094 13.1322 195.026C13.2545 201.285 13.4508 207.542 13.7211 213.796L13.8282 132.647V109.463L12.2067 180.899L11.7402 200.833C12.7038 176.335 13.3081 151.821 14.2718 127.322C16.9563 88.9661 14.6618 51.7271 16.7192 13.9336" stroke="#333333" stroke-width="5" stroke-miterlimit="10"/>
<path d="M9.30786 200.43C9.41494 202.07 9.53731 203.702 9.65969 205.342" stroke="#333333" stroke-width="5" stroke-miterlimit="10"/>
<path d="M8.59665 161.091C8.52017 163.642 8.46663 166.193 8.43604 168.745" stroke="#333333" stroke-width="5" stroke-miterlimit="10"/>
<path d="M10.1492 211.633C10.6121 218.043 11.4524 224.417 12.6655 230.72C13.8262 210.087 13.4171 189.391 11.4418 168.824C10.8758 162.94 10.1798 157.069 9.35376 151.211" stroke="#333333" stroke-width="5" stroke-miterlimit="10"/>
<path d="M14.7304 169.014L17.6904 216.173C15.3296 197.558 13.8177 178.86 13.1549 160.076C13.1711 183.07 15.2038 206.015 19.2277 228.628L13.2314 159.775C13.7413 178.083 14.965 196.357 16.9026 214.596C17.4533 219.762 18.06 224.92 18.7229 230.07C16.1021 210.589 14.4118 191.006 13.652 171.319C13.8738 196.674 14.6387 222.028 21.1551 245.884M21.1551 245.884C18.9218 225.054 19.9313 240.489 21.1551 245.884ZM21.1551 245.884C17.698 218.882 16.1683 192.736 12.5583 165.496C12.8643 187.691 15.2205 209.805 19.5948 231.536C17.4839 212.758 15.8981 193.924 14.8375 175.035C13.9133 196.317 15.5784 217.634 19.7937 238.484C18.7739 220.261 17.1575 202.09 14.9446 183.973C14.1326 202.137 15.4812 220.336 18.96 238.159C18.7993 219.809 17.247 201.501 14.3174 183.402C12.1162 199.954 12.4958 216.765 15.4417 233.192C16.0922 215.021 15.7475 196.826 14.4092 178.696C12.7814 199.918 13.789 221.268 17.4074 242.224C17.306 220.521 15.7728 198.851 12.8184 177.365C11.3885 197.345 12.772 217.435 16.9255 237.003C16.0485 217.306 14.5188 197.653 12.3365 178.046C10.0119 197.172 11.5035 216.589 16.719 235.093L11.8164 173.768C10.1376 184.157 9.46629 194.695 9.81254 205.223" stroke="#333333" stroke-width="5" stroke-miterlimit="10"/>
<path d="M295.87 5.74902L292.764 10.6772C294.042 9.0926 295.281 7.50797 296.466 5.83618" stroke="#333333" stroke-width="5" stroke-miterlimit="10"/>
<path d="M296.55 6.06626L294.34 9.67923C295.17 8.46348 295.878 7.16252 296.451 5.79688" stroke="#333333" stroke-width="5" stroke-miterlimit="10"/>
<path d="M297.491 6.05858C297.091 7.03559 296.487 7.90932 295.724 8.61777L297.032 5.70996" stroke="#333333" stroke-width="5" stroke-miterlimit="10"/>
<path d="M295.51 5.88379L293.529 10.3366C295.008 9.10723 296.281 7.63513 297.3 5.97887" stroke="#333333" stroke-width="5" stroke-miterlimit="10"/>
<path d="M293.353 5.79688C292.573 7.28336 292.024 8.88755 291.724 10.5508C292.675 10.1181 293.529 9.48756 294.234 8.69838C294.939 7.90919 295.48 6.97821 295.824 5.96326" stroke="#333333" stroke-width="5" stroke-miterlimit="10"/>
<path d="M292.191 5.79688C290.792 7.6577 289.824 9.82616 289.361 12.1354C291.858 10.5918 294.011 8.51796 295.678 6.05042" stroke="#333333" stroke-width="5" stroke-miterlimit="10"/>
<path d="M285.629 5.86816C284.198 8.69674 283.739 12.7296 287.816 12.4602C291.395 12.2226 294.302 8.98197 295.923 5.89986" stroke="#333333" stroke-width="5" stroke-miterlimit="10"/>
<path d="M288.588 5.70996C285.644 7.40552 283.235 11.9613 288.397 12.5001C291.931 12.8646 294.225 9.0377 295.036 5.97143" stroke="#333333" stroke-width="5" stroke-miterlimit="10"/>
<path d="M282.454 5.70996C280.711 8.55438 287.571 10.3609 289.17 10.6144C290.286 10.7887 293.2 11.3037 294.172 10.6144C294.937 10.036 294.883 6.65282 294.057 5.77335" stroke="#333333" stroke-width="5" stroke-miterlimit="10"/>
<path d="M283.258 5.79701C284.443 10.4162 289.728 9.16436 292.895 7.96796C292.379 7.0789 291.688 6.31222 290.868 5.71777" stroke="#333333" stroke-width="5" stroke-miterlimit="10"/>
<path d="M281.774 5.70996C281.231 9.90132 290.248 11.9059 289.56 6.00312" stroke="#333333" stroke-width="5" stroke-miterlimit="10"/>
<path d="M279.319 5.72559C278.516 14.1004 291.418 13.3398 292.604 5.83651" stroke="#333333" stroke-width="5" stroke-miterlimit="10"/>
<path d="M287.617 5.7334C288.382 8.90267 292.092 8.46689 293.246 5.7334" stroke="#333333" stroke-width="5" stroke-miterlimit="10"/>
<path d="M297.155 6.11376C297.155 6.62877 297.071 7.15962 297.025 7.6984C296.928 7.11208 296.851 6.52577 296.795 5.93945" stroke="#333333" stroke-width="5" stroke-miterlimit="10"/>
<path d="M293.736 6.13722L293.552 7.77732C293.751 7.14346 293.965 6.50961 294.202 5.8916" stroke="#333333" stroke-width="5" stroke-miterlimit="10"/>
<path d="M283.915 5.95512C285.804 12.6423 294.118 11.5489 296.352 5.8125" stroke="#333333" stroke-width="5" stroke-miterlimit="10"/>
<path d="M150.405 14.9881C199.73 11.2959 247.914 9.71124 296.489 11.8188M296.489 11.8188C285.782 11.3593 294.883 10.2342 296.489 11.8188ZM296.489 11.8188C294.894 10.1981 293.809 8.11563 293.376 5.84473" stroke="#333333" stroke-width="5" stroke-miterlimit="10"/>
<path d="M134.122 15.3525C132.799 15.5585 131.483 15.8359 130.183 16.1449L133.908 15.9309" stroke="#333333" stroke-width="5" stroke-miterlimit="10"/>
<path d="M149.028 16.5562L151.07 16.1759C150.596 16.057 150.091 15.8986 149.602 15.8193" stroke="#333333" stroke-width="5" stroke-miterlimit="10"/>
<path d="M18.1265 13.8066C19.7403 18.7507 25.4995 20.985 30.1344 21.0801C36.9338 21.2148 43.7179 17.6018 50.4256 20.2244L25.8437 19.1706L50.6856 15.209L33.1555 18.4734L84.1932 14.0919L35.7024 20.272L88.3386 15.732C69.6332 17.0155 50.8693 17.1028 32.1536 15.9934C52.6639 18.5249 73.4071 18.2398 93.8454 15.1457C80.9558 14.5195 68.0395 15.4314 55.3511 17.8633C78.1204 16.8174 101.065 14.4405 124.049 17.4513L101.44 18.7982C112.487 19.6872 123.588 19.5891 134.619 18.5051" stroke="#333333" stroke-width="5" stroke-miterlimit="10"/>
<path d="M15.5185 13.9178L15.1055 26.4523L17.4076 13.7197" stroke="#333333" stroke-width="5" stroke-miterlimit="10"/>
<path d="M21.6371 13.1572L22.2948 15.7085L20.7651 13.593" stroke="#333333" stroke-width="5" stroke-miterlimit="10"/>
<path d="M19.9085 13.8148V22.5303L19.855 13.7197" stroke="#333333" stroke-width="5" stroke-miterlimit="10"/>
<path d="M21.4994 12.8486L19.6943 20.2647L19.8014 13.7836" stroke="#333333" stroke-width="5" stroke-miterlimit="10"/>
<path d="M24.7041 11.3428C23.7496 15.2762 23.2565 19.3144 23.2356 23.3702L23.1897 11.937" stroke="#333333" stroke-width="5" stroke-miterlimit="10"/>
<path d="M24.1533 11.2322V14.5124C24.8638 13.2361 25.4923 11.9127 26.0348 10.5508" stroke="#333333" stroke-width="5" stroke-miterlimit="10"/>
<path d="M25.7365 10.1309L25.9201 15.9465L25.3464 11.0816" stroke="#333333" stroke-width="5" stroke-miterlimit="10"/>
<path d="M23.6792 12.1349L24.6964 15.835L25.1094 11.4297" stroke="#333333" stroke-width="5" stroke-miterlimit="10"/>
<path d="M19.9469 13.8545L19.771 16.0096L20.0387 13.8624" stroke="#333333" stroke-width="5" stroke-miterlimit="10"/>
<path d="M20.1686 13.9656L19.855 16.6278L20.0538 13.9102" stroke="#333333" stroke-width="5" stroke-miterlimit="10"/>
<path d="M22.6772 13.0858L21.5376 17.3327L21.5835 13.0225" stroke="#333333" stroke-width="5" stroke-miterlimit="10"/>
<path d="M27.0521 10.5029C26.3931 13.0509 25.4323 15.5046 24.1916 17.8081C24.0859 15.6967 24.0859 13.581 24.1916 11.4696" stroke="#333333" stroke-width="5" stroke-miterlimit="10"/>
<path d="M27.0597 10.5505L25.8818 18.6797C27.1326 15.9979 27.791 13.0613 27.8092 10.083" stroke="#333333" stroke-width="5" stroke-miterlimit="10"/>
<path d="M22.073 13.0231C21.5223 15.2574 23.8168 19.219 26.1113 18.4267C28.4058 16.8421 27.641 12.8805 27.7787 10.25" stroke="#333333" stroke-width="5" stroke-miterlimit="10"/>
<path d="M19.6943 13.72C21.5389 14.2595 23.4858 14.3033 25.3512 13.8473C27.2166 13.3912 28.9391 12.4503 30.3562 11.1133" stroke="#333333" stroke-width="5" stroke-miterlimit="10"/>
<path d="M32.6355 10.9941C29.6985 11.2741 26.7717 11.6729 23.8551 12.1905C27.9107 14.0908 32.4082 14.7426 36.8115 14.0683C31.961 11.864 26.5119 11.5186 21.4382 13.0938" stroke="#333333" stroke-width="5" stroke-miterlimit="10"/>
<path d="M23.3428 11.8664C31.3203 12.7023 39.3711 12.393 47.2669 10.9473" stroke="#333333" stroke-width="5" stroke-miterlimit="10"/>
<path d="M13.6904 13.9582C21.6468 14.1654 29.5899 13.1725 37.2704 11.0107" stroke="#333333" stroke-width="5" stroke-miterlimit="10"/>
<path d="M27.8858 10.5508C26.555 10.7251 25.2319 10.9311 23.9087 11.1688" stroke="#333333" stroke-width="5" stroke-miterlimit="10"/>
<path d="M22.9832 12.31C30.4863 12.7564 38.0142 12.3231 45.4235 11.0186" stroke="#333333" stroke-width="5" stroke-miterlimit="10"/>
<path d="M23.7939 11.4936C28.3371 11.4936 32.8777 11.3193 37.4157 10.9707" stroke="#333333" stroke-width="5" stroke-miterlimit="10"/>
<path d="M20.8492 13.593C20.8492 14.7339 20.6274 15.0984 21.6141 15.5896C22.4585 15.8601 23.3689 15.8037 24.1763 15.4312C25.6448 14.6388 25.3159 12.8007 24.8264 11.2715" stroke="#333333" stroke-width="5" stroke-miterlimit="10"/>
<path d="M23.3733 11.8421C24.3115 12.1975 25.3191 12.3111 26.3091 12.1731C27.2992 12.0351 28.2419 11.6495 29.056 11.0498" stroke="#333333" stroke-width="5" stroke-miterlimit="10"/>
<path d="M26.2261 10.0908C27.381 11.311 29.2854 12.0478 30.8151 11.0099" stroke="#333333" stroke-width="5" stroke-miterlimit="10"/>
<path d="M21.9507 12.7217C23.3886 18.2045 32.3372 15.3601 33.9051 11.1846" stroke="#333333" stroke-width="5" stroke-miterlimit="10"/>
<path d="M24.207 10.9629C25.6679 17.238 33.2933 16.8023 35.1366 10.9629" stroke="#333333" stroke-width="5" stroke-miterlimit="10"/>
<path d="M25.6831 10.1865C27.4881 12.0089 30.7999 12.6823 32.9032 11.0185" stroke="#333333" stroke-width="5" stroke-miterlimit="10"/>
<path d="M31.7635 10.9629L27.0215 11.6522L31.7482 10.9708" stroke="#333333" stroke-width="5" stroke-miterlimit="10"/>
<path d="M48.3681 10.9943C41.248 12.0712 34.0553 12.5481 26.8608 12.4204L35.1517 10.9863" stroke="#333333" stroke-width="5" stroke-miterlimit="10"/>
<path d="M13.8203 15.1782L42.953 11.0186" stroke="#333333" stroke-width="5" stroke-miterlimit="10"/>
<path d="M38.0045 10.9941C41.0679 11.8568 43.7437 13.8019 45.5687 16.4928L36.6354 16.7305L51.2668 18.8619C40.7492 18.2965 30.2086 19.3404 19.9849 21.9598L37.7903 23.2275C31.8858 21.833 27.5033 16.0967 21.0633 17.8715L50.2878 13.9099C43.292 13.46 36.2708 14.1064 29.4612 15.8273C33.9685 16.7422 38.6333 16.3249 42.9224 14.623C33.2446 13.2675 23.424 13.4438 13.7974 15.1459" stroke="#333333" stroke-width="5" stroke-miterlimit="10"/>
<path d="M46.3718 11.0658C46.8954 11.3082 47.4649 11.4255 48.0382 11.409C48.6114 11.3926 49.1738 11.2428 49.6836 10.9707" stroke="#333333" stroke-width="5" stroke-miterlimit="10"/>
<path d="M50.8156 11.6597C49.372 11.4459 47.9142 11.3505 46.4561 11.3745C47.9284 11.6584 49.4474 11.5271 50.8539 10.9941" stroke="#333333" stroke-width="5" stroke-miterlimit="10"/>
<path d="M53.3626 12.8726C52.5484 13.5934 51.8535 14.4471 51.3052 15.4001C51.8149 15.711 52.3941 15.8789 52.9856 15.8872C53.577 15.8955 54.1604 15.7441 54.6781 15.4477C55.4429 15.0198 57.5157 12.936 55.5271 12.833" stroke="#333333" stroke-width="5" stroke-miterlimit="10"/>
<path d="M51.4427 12.0322C50.6778 14.5756 53.2783 17.7052 55.4734 15.2015C56.5365 14.0051 56.1311 12.9513 54.5709 13.6169C53.9034 13.9387 53.3466 14.4639 52.9749 15.1222C52.6032 15.7805 52.4342 16.5407 52.4905 17.3011C53.7203 17.0986 54.8762 16.5613 55.8397 15.7441C56.8033 14.9269 57.5399 13.8592 57.9744 12.6502" stroke="#333333" stroke-width="5" stroke-miterlimit="10"/>
<path d="M51.0679 11.9453C55.9399 15.2572 61.2938 14.4649 65.5998 12.7376" stroke="#333333" stroke-width="5" stroke-miterlimit="10"/>
<path d="M55.9094 12.7373C56.318 13.3002 56.8436 13.7606 57.4474 14.0843C58.0511 14.408 58.7175 14.5867 59.3971 14.6072C60.3684 14.6468 62.923 14.0367 62.4105 12.8086" stroke="#333333" stroke-width="5" stroke-miterlimit="10"/>
<path d="M51.2135 11.8584C50.5634 15.2574 54.3875 16.8421 56.6821 16.8421C58.9766 16.0498 61.2711 16.0498 62.7243 13.0152" stroke="#333333" stroke-width="5" stroke-miterlimit="10"/>
<path d="M57.8597 12.9987C57.7603 13.2444 57.6609 13.49 57.5691 13.7356C59.5734 13.9325 61.5936 13.6141 63.4507 12.8086" stroke="#333333" stroke-width="5" stroke-miterlimit="10"/>
<path d="M57.8902 12.8564C57.5231 15.0669 63.3206 13.2842 64.3684 12.793" stroke="#333333" stroke-width="5" stroke-miterlimit="10"/>
<path d="M58.1427 12.9273C57.4849 15.0745 63.6266 13.5533 64.5826 12.8164" stroke="#333333" stroke-width="5" stroke-miterlimit="10"/>
<path d="M55.8022 12.7217C57.4102 12.9238 59.0358 12.9238 60.6437 12.7217" stroke="#333333" stroke-width="5" stroke-miterlimit="10"/>
<path d="M54.3875 12.7217C55.9266 13.1813 57.5597 13.1813 59.0988 12.7217" stroke="#333333" stroke-width="5" stroke-miterlimit="10"/>
<path d="M62.0435 12.7927C64.7054 13.5774 67.5281 13.5609 70.1813 12.7451" stroke="#333333" stroke-width="5" stroke-miterlimit="10"/>
<path d="M54.4409 12.7617C58.3492 14.1206 62.5788 14.1206 66.4871 12.7617" stroke="#333333" stroke-width="5" stroke-miterlimit="10"/>
<path d="M65.3706 12.7617C67.2951 13.1776 69.2818 13.1776 71.2063 12.7617" stroke="#333333" stroke-width="5" stroke-miterlimit="10"/>
<path d="M67.229 12.7373C68.8139 13.5886 70.5836 14.0029 72.3679 13.9404C74.1521 13.878 75.8908 13.3409 77.4166 12.3808C77.3019 12.1906 77.1872 12.0084 77.0648 11.8262" stroke="#333333" stroke-width="5" stroke-miterlimit="10"/>
<path d="M76.5447 11.9535C78.7363 11.6012 80.885 11.0062 82.954 10.1787" stroke="#333333" stroke-width="5" stroke-miterlimit="10"/>
<path d="M77.3325 11.4862C78.5534 11.1435 79.7393 10.6791 80.8737 10.0996" stroke="#333333" stroke-width="5" stroke-miterlimit="10"/>
<path d="M76.7129 12.2862C79.656 12.0669 82.542 11.3329 85.2485 10.1152" stroke="#333333" stroke-width="5" stroke-miterlimit="10"/>
<path d="M76.4531 12.6426C79.9477 12.7051 83.4262 12.1367 86.7325 10.9629" stroke="#333333" stroke-width="5" stroke-miterlimit="10"/>
<path d="M60.1848 12.7064C58.9662 13.1713 57.7603 13.6678 56.5671 14.196C66.7478 15.1284 77.0024 13.7522 86.6176 10.1631" stroke="#333333" stroke-width="5" stroke-miterlimit="10"/>
<path d="M77.5925 10.0996C80.4294 10.6938 83.3524 10.6938 86.1893 10.0996" stroke="#333333" stroke-width="5" stroke-miterlimit="10"/>
<path d="M80.7896 10.0996C79.4162 10.8481 78.1561 11.8011 77.0496 12.9282C79.4603 13.9186 82.0716 14.27 84.6467 13.9504C87.2217 13.6308 89.679 12.6503 91.7956 11.0979" stroke="#333333" stroke-width="5" stroke-miterlimit="10"/>
<path d="M76.7283 12.6501C81.8595 13.8307 87.2211 13.2753 92.025 11.0654" stroke="#333333" stroke-width="5" stroke-miterlimit="10"/>
<path d="M77.5544 11.098C80.4148 11.1285 83.2689 10.8147 86.0594 10.1631" stroke="#333333" stroke-width="5" stroke-miterlimit="10"/>
<path d="M95.2297 10.9863C97.7607 11.7984 100.47 11.7984 103 10.9863" stroke="#333333" stroke-width="5" stroke-miterlimit="10"/>
<path d="M133.716 10.6226C125.752 10.4694 117.79 10.3875 109.831 10.377" stroke="#333333" stroke-width="5" stroke-miterlimit="10"/>
<path d="M134.106 10.6699C129.762 11.0714 125.428 11.6154 121.104 12.3021C125.278 12.9684 129.494 13.3074 133.716 13.3163" stroke="#333333" stroke-width="5" stroke-miterlimit="10"/>
<path d="M156.378 10.678L168.562 10.3452C164.911 10.0758 161.258 9.9015 157.602 9.82227" stroke="#333333" stroke-width="5" stroke-miterlimit="10"/>
<path d="M134.152 11.6516L128.286 11.4456L134.122 11.2871" stroke="#333333" stroke-width="5" stroke-miterlimit="10"/>
<path d="M153.197 13.2529C158.856 14.6915 164.778 14.5796 170.383 12.928L153.862 12.3496" stroke="#333333" stroke-width="5" stroke-miterlimit="10"/>
<path d="M163.048 9.19629L206.093 11.4544C188.493 10.8262 170.872 11.2495 153.319 12.7221" stroke="#333333" stroke-width="5" stroke-miterlimit="10"/>
<path d="M166.604 8.05469C179.442 9.67143 192.389 10.1538 205.305 9.49671C192.471 8.63308 179.591 8.41123 166.704 8.83908" stroke="#333333" stroke-width="5" stroke-miterlimit="10"/>
<path d="M157.602 9.38639C168.653 10.1261 179.743 9.98569 190.773 8.96646C182.774 7.7814 174.681 7.40988 166.612 7.85722" stroke="#333333" stroke-width="5" stroke-miterlimit="10"/>
<path d="M156.554 10.3444C165.423 10.0874 174.269 9.29377 183.048 7.96749C181.687 7.76148 180.323 7.58189 178.957 7.42871" stroke="#333333" stroke-width="5" stroke-miterlimit="10"/>
<path d="M134.122 9.46484L132.592 9.71046L134.122 9.83723" stroke="#333333" stroke-width="5" stroke-miterlimit="10"/>
<path d="M133.869 9.45692C129.081 9.40938 124.294 9.49654 119.506 9.71838C124.263 10.0195 129.023 10.1911 133.785 10.2334" stroke="#333333" stroke-width="5" stroke-miterlimit="10"/>
<path d="M133.816 9.40234C128.09 9.55783 122.377 10.0552 116.706 10.8919C122.457 11.9062 128.28 12.4204 134.114 12.429" stroke="#333333" stroke-width="5" stroke-miterlimit="10"/>
<path d="M134.022 11.6761L106.993 11.2324C115.885 11.486 124.783 11.5599 133.686 11.4543" stroke="#333333" stroke-width="5" stroke-miterlimit="10"/>
<path d="M105.28 11.0264L104.27 11.2165C114.149 12.175 124.071 12.5717 133.992 12.405" stroke="#333333" stroke-width="5" stroke-miterlimit="10"/>
<path d="M134.007 10.2501C125.988 9.22654 117.876 9.24517 109.861 10.3055" stroke="#333333" stroke-width="5" stroke-miterlimit="10"/>
<path d="M133.862 15.3042C121.987 14.5859 110.085 14.533 98.2049 15.1458C109.611 16.851 121.238 15.9752 132.286 12.5786C118.788 11.0751 105.191 10.7703 91.6426 11.6675C105.689 12.5377 119.773 12.5086 133.816 11.5803" stroke="#333333" stroke-width="5" stroke-miterlimit="10"/>
<path d="M96.1628 11.1768C98.2814 15.6692 104.347 17.8639 108.553 15.1938C104.252 12.2075 99.0202 11.016 93.9066 11.8582C104.219 13.4929 114.652 14.1769 125.081 13.9023L90.5642 15.8118C103.312 15.6058 116.059 15.7141 128.806 16.1367L93.1723 15.8118C106.723 17.0899 120.35 17.2356 133.923 16.2476" stroke="#333333" stroke-width="5" stroke-miterlimit="10"/>
<path d="M11.1205 233.921C11.457 234.864 11.8165 235.807 12.1913 236.734C11.9236 233.953 11.5335 231.188 11.0364 228.431" stroke="#333333" stroke-width="5" stroke-miterlimit="10"/>
<path d="M27.5569 242.035L28.4059 241.155C26.968 241.995 29.033 241.203 27.5569 242.035Z" stroke="#333333" stroke-width="5" stroke-miterlimit="10"/>
<path d="M122.343 248.611L122.848 248.5C111.108 247.143 99.2447 247.439 87.5813 249.379C88.4186 249.332 89.2583 249.363 90.09 249.474" stroke="#333333" stroke-width="5" stroke-miterlimit="10"/>
<path d="M108.194 248.635L137.694 246.258L96.3923 247.533L124.829 248.207L115.766 248.619" stroke="#333333" stroke-width="5" stroke-miterlimit="10"/>
<path d="M140.753 249.269H133.869" stroke="#333333" stroke-width="5" stroke-miterlimit="10"/>
<path d="M140.982 249.308L133.51 249.49" stroke="#333333" stroke-width="5" stroke-miterlimit="10"/>
<path d="M55.7259 251.059L45.783 250.361C47.7358 250.979 49.6989 251.545 51.6722 252.057" stroke="#333333" stroke-width="5" stroke-miterlimit="10"/>
<path d="M66.9077 250.195C64.9871 249.972 63.0457 250.031 61.1409 250.37" stroke="#333333" stroke-width="5" stroke-miterlimit="10"/>
<path d="M52.4218 251.692C50.6348 251.843 48.8655 252.167 47.1367 252.659C47.5711 252.793 48.013 252.898 48.4599 252.976" stroke="#333333" stroke-width="5" stroke-miterlimit="10"/>
<path d="M20.8571 251.273L15.1743 249.934C15.3515 250.631 15.6083 251.304 15.9392 251.938" stroke="#333333" stroke-width="5" stroke-miterlimit="10"/>
<path d="M31.1516 251.209C25.2059 249.711 19.0524 249.306 12.9714 250.012" stroke="#333333" stroke-width="5" stroke-miterlimit="10"/>
<path d="M32.6814 251.217L33.6451 250.916C31.06 250.916 28.4825 251.019 25.9126 251.241" stroke="#333333" stroke-width="5" stroke-miterlimit="10"/>
<path d="M37.9281 252.152C32.867 247.787 26.4378 245.492 19.855 245.703C21.2483 247.358 22.9787 248.673 24.9215 249.553C26.8643 250.432 28.9712 250.855 31.0904 250.789C29.0866 251.106 27.0368 250.948 25.0329 251.257" stroke="#333333" stroke-width="5" stroke-miterlimit="10"/>
<path d="M62.9918 250.369C59.9324 249.498 56.7507 249.292 53.8137 250.671L55.9017 251.106" stroke="#333333" stroke-width="5" stroke-miterlimit="10"/>
<path d="M80.3765 250.361C82.6975 248.963 84.808 247.22 86.6405 245.188C86.8081 245.911 86.8335 246.662 86.7152 247.395C86.597 248.129 86.3374 248.83 85.9521 249.458" stroke="#333333" stroke-width="5" stroke-miterlimit="10"/>
<path d="M78.1052 250.671C74.9299 249.337 71.478 248.868 68.0781 249.308C68.2514 249.677 68.4755 250.019 68.7435 250.322" stroke="#333333" stroke-width="5" stroke-miterlimit="10"/>
<path d="M66.8618 250.354C72.7587 249.792 85.042 249.562 88.4914 243.223C89.6999 240.997 88.4914 237.059 85.7763 239.38C82.9081 241.837 83.0687 246.836 82.3345 250.251" stroke="#333333" stroke-width="5" stroke-miterlimit="10"/>
<path d="M72.6288 250.306C73.8783 249.973 75.109 249.568 76.3153 249.094L65.9211 250.369" stroke="#333333" stroke-width="5" stroke-miterlimit="10"/>
<path d="M88.2545 249.49C81.2262 248.932 74.1589 249.232 67.1985 250.386" stroke="#333333" stroke-width="5" stroke-miterlimit="10"/>
<path d="M85.2562 249.514C77.5558 248.782 69.7968 249.066 62.1658 250.362" stroke="#333333" stroke-width="5" stroke-miterlimit="10"/>
<path d="M81.998 250.362L83.5276 250.203C78.1601 249.684 72.7555 249.732 67.3972 250.346" stroke="#333333" stroke-width="5" stroke-miterlimit="10"/>
<path d="M75.1909 250.719C76.0705 250.719 76.9424 250.719 77.8143 250.655" stroke="#333333" stroke-width="5" stroke-miterlimit="10"/>
<path d="M75.1452 250.512C83.0479 249.577 90.8908 248.161 98.6334 246.273L60.7739 249.878C71.6689 250.136 82.5608 249.239 93.2795 247.2C82.8309 246.779 72.371 247.646 62.12 249.783C63.6497 250.021 65.2406 250.211 66.8085 250.362" stroke="#333333" stroke-width="5" stroke-miterlimit="10"/>
<path d="M88.5526 249.45C90.9491 249.022 93.3354 248.557 95.7115 248.056L71.3667 250.377" stroke="#333333" stroke-width="5" stroke-miterlimit="10"/>
<path d="M110.106 248.61C114.149 248.357 118.185 248.008 122.213 247.564L111.039 248.61" stroke="#333333" stroke-width="5" stroke-miterlimit="10"/>
<path d="M100.163 249.038H87.3596C91.5917 249.133 95.8187 249.133 100.041 249.038" stroke="#333333" stroke-width="5" stroke-miterlimit="10"/>
<path d="M133.686 249.126L135.284 249.062H133.686" stroke="#333333" stroke-width="5" stroke-miterlimit="10"/>
<path d="M50.043 252.834H48.4521L50.0507 252.929" stroke="#333333" stroke-width="5" stroke-miterlimit="10"/>
<path d="M49.6837 252.477L48.1541 252.667L49.7373 252.73" stroke="#333333" stroke-width="5" stroke-miterlimit="10"/>
<path d="M77.9827 250.552C76.9348 250.552 75.8794 250.552 74.8315 250.623" stroke="#333333" stroke-width="5" stroke-miterlimit="10"/>
<path d="M77.7608 250.948L75.1221 251.154" stroke="#333333" stroke-width="5" stroke-miterlimit="10"/>
<path d="M75.1069 251.17L77.7533 250.956" stroke="#333333" stroke-width="5" stroke-miterlimit="10"/>
<path d="M52.3454 251.677L42.2725 253" stroke="#333333" stroke-width="5" stroke-miterlimit="10"/>
<path d="M63.535 250.369L66.1201 249.854L62.4106 250.346" stroke="#333333" stroke-width="5" stroke-miterlimit="10"/>
<path d="M22.5932 251.162C23.4715 250.906 24.3284 250.578 25.1554 250.179C21.2316 248.967 17.0904 248.712 13.0557 249.434" stroke="#333333" stroke-width="5" stroke-miterlimit="10"/>
<path d="M13.1167 251.209C13.9998 251.457 14.8998 251.634 15.8089 251.74" stroke="#333333" stroke-width="5" stroke-miterlimit="10"/>
<path d="M26.2107 251.249C28.4504 250.481 30.5145 249.246 32.2758 247.62C30.0456 246.329 27.5293 245.662 24.9746 245.684C22.4198 245.706 19.9147 246.417 17.7057 247.747C21.4763 251.558 28.7117 249.894 30.5703 244.791C28.3731 243.879 26.0085 243.482 23.6457 243.627C21.2829 243.772 18.9803 244.456 16.9026 245.631C19.9084 250.496 27.3273 251.304 31.2433 247.216C25.0511 245.511 18.4607 246.39 12.8872 249.664" stroke="#333333" stroke-width="5" stroke-miterlimit="10"/>
<path d="M12.8262 250.623C13.7755 251.077 14.764 251.438 15.7784 251.701" stroke="#333333" stroke-width="5" stroke-miterlimit="10"/>
<path d="M34.0504 251.217C35.6642 250.916 37.2704 250.528 38.8459 250.069C34.8743 247.783 30.4452 246.483 25.9065 246.269C21.3679 246.056 16.8434 246.936 12.6885 248.84" stroke="#333333" stroke-width="5" stroke-miterlimit="10"/>
<path d="M34.6852 251.154C35.3547 250.705 35.9983 250.216 36.6126 249.689C28.8706 247.399 20.6332 247.66 13.0403 250.433C14.1569 250.729 15.2813 250.993 16.4132 251.226" stroke="#333333" stroke-width="5" stroke-miterlimit="10"/>
<path d="M36.9491 252.065C38.9585 251.435 40.8402 250.431 42.5018 249.102C37.7693 247.606 32.7975 247.095 27.8735 247.6C22.9495 248.104 18.1707 249.614 13.8127 252.041" stroke="#333333" stroke-width="5" stroke-miterlimit="10"/>
<path d="M36.1155 251.067C31.9165 245.948 24.1152 244.181 18.4248 247.612C19.9222 249.136 21.674 250.365 23.5951 251.241" stroke="#333333" stroke-width="5" stroke-miterlimit="10"/>
<path d="M39.4579 252.145C39.9493 252.08 40.437 251.987 40.9187 251.867C34.0302 250.446 27.0034 249.874 19.9851 250.164C20.4593 250.513 20.9565 250.837 21.4612 251.146" stroke="#333333" stroke-width="5" stroke-miterlimit="10"/>
<path d="M37.8134 252.057C38.7388 251.78 39.6566 251.471 40.5591 251.13C37.3112 249.072 33.5975 247.936 29.7913 247.835C25.9852 247.735 22.2206 248.675 18.876 250.559C19.6408 250.821 20.4515 251.066 21.2546 251.28" stroke="#333333" stroke-width="5" stroke-miterlimit="10"/>
<path d="M12.9714 249.26C19.5572 249.309 26.1375 248.854 32.6584 247.897C26.1458 246.994 19.5286 248.371 13.8586 251.811" stroke="#333333" stroke-width="5" stroke-miterlimit="10"/>
<path d="M34.8917 251.281C31.3735 251.17 27.8578 250.966 24.3446 250.671L68.4528 246.994C56.0799 248.889 43.5688 249.64 31.0675 249.237C44.8653 250.289 58.7294 249.936 72.4605 248.183L29.2931 250.948C41.2159 249.482 53.049 247.318 64.7357 244.467C52.421 246.484 39.971 247.482 27.5034 247.454C36.9869 245.735 46.5885 244.807 56.2154 244.681L13.1091 248.555" stroke="#333333" stroke-width="5" stroke-miterlimit="10"/>
<path d="M56.0013 250.789C49.6837 251.28 43.3508 251.463 37.0027 251.336" stroke="#333333" stroke-width="5" stroke-miterlimit="10"/>
<path d="M62.3646 250.361L64.4144 249.965L60.7432 250.369" stroke="#333333" stroke-width="5" stroke-miterlimit="10"/>
<path d="M43.7869 253C45.8672 252.794 47.9399 252.564 50.005 252.295" stroke="#333333" stroke-width="5" stroke-miterlimit="10"/>
<path d="M55.6724 250.512L41.4312 252.136" stroke="#333333" stroke-width="5" stroke-miterlimit="10"/>
<path d="M59.3435 250.361L69.9212 248.896L56.7278 250.393" stroke="#333333" stroke-width="5" stroke-miterlimit="10"/>
<path d="M41.8823 252.771L55.6494 250.869" stroke="#333333" stroke-width="5" stroke-miterlimit="10"/>
<path d="M60.2461 250.329L62.2806 249.886L60.7509 250.29" stroke="#333333" stroke-width="5" stroke-miterlimit="10"/>
<path d="M46.4485 253L50.0356 252.358" stroke="#333333" stroke-width="5" stroke-miterlimit="10"/>
<path d="M14.501 252.065L14.5469 249.878C14.131 250.265 13.7543 250.695 13.4226 251.161" stroke="#333333" stroke-width="5" stroke-miterlimit="10"/>
<path d="M22.4554 248.198L16.4744 248.404C16.7941 249.246 16.9501 250.146 16.9333 251.051" stroke="#333333" stroke-width="5" stroke-miterlimit="10"/>
</svg>
