<svg width="139" height="181" viewBox="0 0 139 181" fill="none" xmlns="http://www.w3.org/2000/svg">
<path d="M25.7095 84.5327L26.7532 88.6257C27.2139 87.3246 27.2936 85.9189 26.9831 84.574C26.6725 83.229 25.9846 82.0007 25 81.0332C30.2928 95.4104 34.0698 110.301 36.2695 125.463C37.2381 132.373 37.9203 139.29 38.6025 146.208C39.6758 157.322 40.749 168.437 41.8223 179.552" stroke="#333333" stroke-width="3.41085" stroke-miterlimit="10"/>
<path d="M112.379 80.8081L111.451 84.9625C110.957 83.6712 110.841 82.266 111.115 80.9108C111.389 79.5557 112.043 78.3063 113 77.3086C108.091 91.8322 104.707 106.828 102.904 122.052C102.085 128.956 101.594 135.886 101.103 142.817C100.316 153.955 99.5272 165.097 98.7358 176.244" stroke="#333333" stroke-width="3.41085" stroke-miterlimit="10"/>
<path d="M40.997 145.443C40.4277 145.829 39.7706 146.064 39.0863 146.129C38.4019 146.193 37.7124 146.084 37.0813 145.812C40.1306 147.504 42.6546 149.987 45.1377 152.436C51.8298 159.039 58.6788 165.847 62.499 174.436C62.9628 175.68 63.5914 176.857 64.3681 177.935" stroke="#333333" stroke-width="3.41085" stroke-miterlimit="10"/>
<path d="M40.1919 119.964L36.4263 119.534C40.9763 119.582 44.9466 122.645 47.9618 126.049C50.977 129.453 53.4874 133.382 57.096 136.159C58.4058 137.168 59.8657 138.028 60.9435 139.29C63.8086 142.646 63.297 148.056 66.4008 151.221C66.9783 151.706 67.4837 152.271 67.9016 152.899C68.4542 153.956 68.1881 155.239 68.3791 156.412C68.7543 158.677 70.719 160.273 72.363 161.87C75.6845 165.084 78.1633 169.067 79.5804 173.466L77.9977 167.757" stroke="#333333" stroke-width="3.41085" stroke-miterlimit="10"/>
<path d="M33.343 104.391L41.3312 105.407C42.3863 105.471 43.4247 105.701 44.4078 106.089C45.9222 106.771 46.9728 108.183 48.2143 109.302C49.6791 110.518 51.2577 111.589 52.9281 112.502C59.0861 116.243 64.8063 120.662 69.9824 125.674C75.6423 131.071 80.4701 137.279 84.308 144.093C84.9673 145.394 85.7244 146.644 86.5728 147.831C87.5834 149.045 88.7123 150.156 89.9427 151.147L97.9514 158.091" stroke="#333333" stroke-width="3.41085" stroke-miterlimit="10"/>
<path d="M40.2603 85.9649C40.6389 85.2024 41.2025 84.547 41.8996 84.0585C42.5967 83.5699 43.4051 83.2637 44.251 83.168C44.1418 85.3509 47.082 85.9922 49.0261 87.0222C52.3892 88.8368 53.3511 93.2709 56.1889 95.8222C58.2354 97.6572 61.0392 98.3258 63.6041 99.3149C69.5458 101.607 74.5189 105.789 79.3896 109.895C82.5908 112.49 85.6023 115.31 88.401 118.334C93.1217 123.682 97.0237 130.613 103.859 132.659L97.5489 130.708" stroke="#333333" stroke-width="3.41085" stroke-miterlimit="10"/>
<path d="M68.3042 77.5745C71.6673 76.8309 72.9702 82.3497 76.2447 83.4207C77.0768 83.5652 77.901 83.7519 78.7141 83.9801C81.2313 85.0715 80.9312 89.0691 83.155 90.6653C84.0276 91.1607 84.978 91.5044 85.9656 91.6818C93.5991 93.8374 97.2692 102.828 104.384 106.348C104.271 106.994 103.972 107.592 103.523 108.069C103.075 108.546 102.497 108.883 101.86 109.036" stroke="#333333" stroke-width="3.41085" stroke-miterlimit="10"/>
<path d="M96.9143 132.019C97.263 132.181 97.657 132.218 98.0298 132.123C98.4026 132.029 98.7315 131.809 98.9608 131.5C93.981 130.941 88.9125 133.124 85.3993 136.705C83.0731 139.079 81.3881 141.985 79.7305 144.891L74.5596 153.855C73.1953 156.256 71.7491 158.787 71.6467 161.557C71.6058 162.655 71.7013 163.93 70.8691 164.647C70.3223 165.031 69.6679 165.231 68.9999 165.22C65.8619 165.506 62.1782 166.038 60.7047 168.815C60.1522 169.845 60.0225 171.039 59.5109 172.096C58.9269 173.171 58.1632 174.137 57.2529 174.954L53.1599 179.122" stroke="#333333" stroke-width="3.41085" stroke-miterlimit="10"/>
<path d="M100.482 109.772C100.769 108.77 99.2816 108.279 98.2378 108.408C91.1774 109.09 84.915 113.245 79.7033 118.061C71.9151 125.258 65.7681 134.048 61.6803 143.833C61.2692 145.054 60.6121 146.178 59.7498 147.135C58.1399 148.656 55.6568 148.738 53.6648 149.604C45.9085 152.926 46.9182 165.751 39.5166 169.797" stroke="#333333" stroke-width="3.41085" stroke-miterlimit="10"/>
<path d="M39.8781 144.85C39.96 144.324 38.8958 144.563 39.0049 145.082C39.1141 145.6 39.7758 145.764 40.3147 145.764C43.7256 145.764 46.4542 142.987 48.1665 140.033C49.8787 137.08 50.9361 133.73 53.2009 131.165C55.8204 128.287 59.7497 126.786 62.4784 123.968C64.8387 121.54 66.169 118.32 68.079 115.53C73.4409 107.685 83.3256 103.292 87.1116 94.5737C87.7938 93.0252 88.3804 91.2106 89.9153 90.4807C91.0204 89.9691 92.3575 90.1806 93.4626 89.6689C94.8269 89.0413 95.4341 87.5406 96.2459 86.3058C97.2016 84.8716 98.4955 83.6946 100.013 82.8785C101.531 82.0624 103.227 81.6323 104.95 81.6261L106.731 74.2246" stroke="#333333" stroke-width="3.41085" stroke-miterlimit="10"/>
<path d="M38.8412 120.203L41.5357 120.101C41.788 119.018 41.6999 117.884 41.2833 116.853C40.9137 116.668 40.5074 116.568 40.0941 116.561C39.6808 116.553 39.2711 116.638 38.8949 116.81C38.5188 116.981 38.1858 117.235 37.9203 117.551C37.6549 117.868 37.4637 118.24 37.3608 118.641C41.0309 119.323 44.394 116.547 46.843 113.722C49.292 110.898 51.7478 107.624 55.3906 106.812C56.3866 106.594 57.4849 106.546 58.2489 105.877C58.8028 105.281 59.2012 104.557 59.4086 103.769C62.417 95.8086 70.5211 91.0334 75.31 83.9866C78.0796 79.8936 80.2762 74.6272 85.0377 73.3447" stroke="#333333" stroke-width="3.41085" stroke-miterlimit="10"/>
<path d="M31.1599 102.869C33.0216 102.878 34.8363 102.285 36.3336 101.179C37.8309 100.072 38.9306 98.5117 39.4687 96.7295C40.035 94.683 39.919 92.3091 41.4198 90.8356C42.2384 90.017 43.3981 89.6691 44.4281 89.1438C48.835 86.8995 50.7314 81.6945 52.2458 76.9603L55.5543 76.7488C55.7327 76.4027 55.7675 76.0004 55.6513 75.6288C55.5351 75.2573 55.2773 74.9465 54.9336 74.7637" stroke="#333333" stroke-width="3.41085" stroke-miterlimit="10"/>
<path d="M96.5871 158.03C94.4645 157.587 92.2528 157.977 90.4101 159.12C88.5675 160.263 87.235 162.071 86.6888 164.169C86.4295 165.37 86.3682 166.755 85.4268 167.58C84.7855 168.126 83.8578 168.262 83.2165 168.781C82.1864 169.64 82.2137 171.182 81.9886 172.505C81.7465 173.845 81.1744 175.102 80.324 176.165C79.4735 177.227 78.3716 178.061 77.1179 178.59" stroke="#333333" stroke-width="3.41085" stroke-miterlimit="10"/>
<rect opacity="0.4" x="1.5" y="1.5" width="136" height="70" stroke="#B4B4B4" stroke-width="3"/>
<g clip-path="url(#clip0_141_6809)">
<path d="M23.9282 65.9286C24.8742 69.6894 24.843 73.556 23.8364 77.3076C23.5767 73.2089 23.8268 69.1006 24.5832 65.0381C54.6441 64.2789 84.7723 63.5197 114.76 65.2771C115.945 69.8397 115.634 74.5563 113.854 79.0041C107.182 78.2871 100.387 78.3808 93.654 78.4746L23.5916 79.4587L23.8364 74.4581C24.1602 75.9136 25.0448 77.2616 26.3767 78.3293L25.0912 76.7265" fill="#7D7D7D"/>
<path d="M23.9282 65.9286C24.8742 69.6894 24.843 73.556 23.8364 77.3076C23.5767 73.2089 23.8268 69.1006 24.5832 65.0381C54.6441 64.2789 84.7723 63.5197 114.76 65.2771C115.945 69.8397 115.634 74.5563 113.854 79.0041C107.182 78.2871 100.387 78.3808 93.654 78.4746L23.5916 79.4587L23.8364 74.4581C24.1602 75.9136 25.0448 77.2616 26.3767 78.3293L25.0912 76.7265" stroke="#333333" stroke-width="3.06701" stroke-miterlimit="10"/>
</g>
<defs>
<clipPath id="clip0_141_6809">
<rect width="95" height="24" fill="white" transform="translate(22 63)"/>
</clipPath>
</defs>
</svg>
