<svg width="335" height="175" viewBox="0 0 335 175" fill="none" xmlns="http://www.w3.org/2000/svg">
<path opacity="0.5" d="M24.3359 76L27.5391 60.2578H14.7266L11.5234 76H5.97656L9.14062 60.2578H0L1.09375 54.6328H10.3516L13.2031 40.4141H3.55469L4.6875 34.8281H14.3359L17.5 19.6328H23.0469L20 34.8281H32.7344L35.8984 19.6328H41.4844L38.3594 34.8281H48.0859L46.9922 40.4141H37.1875L34.2578 54.6328H44.4531L43.3594 60.2578H33.125L29.9219 76H24.3359ZM15.8203 54.75H28.7109L31.6406 40.3359H18.75L15.8203 54.75ZM52.3438 35.8828C52.3438 30.9609 54.1146 26.8724 57.6562 23.6172C61.1979 20.3359 65.625 18.6953 70.9375 18.6953C75.9635 18.6953 80.2214 20.1927 83.7109 23.1875C87.2005 26.1823 88.9453 29.8411 88.9453 34.1641C88.9453 37.2891 88.0859 40.2969 86.3672 43.1875C84.6484 46.0781 81.4193 49.9714 76.6797 54.8672L62.4219 69.5938V69.75H89.8828V76H52.6953V71.1562L72.5391 50.2578C76.3151 46.2734 78.8151 43.2526 80.0391 41.1953C81.2891 39.138 81.9141 36.9375 81.9141 34.5938C81.9141 31.8854 80.8203 29.5807 78.6328 27.6797C76.4714 25.7786 73.8411 24.8281 70.7422 24.8281C67.4349 24.8281 64.6745 25.8828 62.4609 27.9922C60.2474 30.1016 59.1406 32.7318 59.1406 35.8828V35.9219H52.3438V35.8828Z" fill="#B4B4B4"/>
<path d="M11.04 62.56C6.08 68.56 1.6 79.04 1.6 86.8C1.6 88.72 1.68 90.64 2.88 92.24L4 93.84L3.84 94L4.64 94.8C4.96 95.2 5.28 95.52 5.6 95.92C6.96 97.44 8.88 98.32 10.96 98.32C11.92 98.32 14.56 98 14.96 96.88C15.12 96.32 14.8 95.84 14.48 95.44C14.08 94.96 13.68 94.8 13.28 94.72C12.64 94.56 11.84 94.56 11.04 94.56C10.8 94.64 10.56 94.64 10.32 94.64H9.76C9.12 94.64 9.12 94.64 9.12 93.36C9.04 93.12 8.96 92.96 8.96 92.8L8.88 92.72C7.68 89.44 8.32 86.16 8.96 83.28C11.36 74 18.4 62.88 26 56.96C29.68 54.16 38.96 48.16 43.92 48.16C44.16 48.16 44.48 48.16 44.8 48.24C47.12 48.48 48.08 49.44 48.56 51.76C48.88 53.36 48.96 55.12 48.64 57.36C47.6 67.28 43.68 76.64 39.76 85.68C37.6 90.72 35.44 95.92 33.76 101.36C33.52 102.24 33.04 102.96 32.24 103.44C31.52 103.92 30.88 104.4 30.16 104.88C28.08 106.32 26 107.76 23.68 108.88C22.64 109.36 22 109.84 21.92 110.48C21.76 111.12 22.08 111.68 22.8 112.64C23.12 113.04 23.52 113.52 24.16 113.52C24.4 113.52 24.64 113.44 24.88 113.36C24.96 113.28 25.04 113.28 25.12 113.28C25.52 113.76 25.92 114.08 26.4 114.08C26.88 114.08 27.36 113.76 27.76 113.6C27.84 113.44 28 113.36 28.16 113.28L28.4 113.2C28.96 112.96 29.44 112.72 30.08 112.72H30.32C30.32 112.72 30.32 112.8 30.24 112.96C30.16 113.12 30.08 113.28 30 113.52L29.76 114C26 122.88 23.28 130.32 21.04 137.28L20.96 137.6C20.8 138.16 20.64 138.64 20.48 139.2C20.32 140.08 20.72 140.8 21.6 141.12C21.92 141.28 22.16 141.28 22.4 141.28C22.96 141.28 23.44 141.04 23.76 140.48C23.92 140.08 24.16 139.76 24.32 139.36C26.08 134.64 28.08 129.92 30.08 125.44C30.72 123.84 31.44 122.32 32.08 120.72C32.24 120.32 32.48 119.84 32.64 119.44C33.28 117.84 33.92 116.24 34.8 114.8C35.28 114.96 35.68 115.36 36.08 115.76C42.56 123.2 49.92 130 56.96 136.56C58.16 137.68 59.36 138.72 60.48 139.84L60.64 139.92C61.12 140.4 61.6 140.88 62.32 141.12C62.64 141.2 62.96 141.28 63.36 141.28C63.84 141.28 64.32 141.04 64.64 140.56C65.2 139.76 64.64 139.12 64.32 138.72L64.08 138.48C64 138.4 63.92 138.24 63.84 138.16L63.68 138C62.32 136.48 60.96 134.96 59.6 133.36C56.56 129.84 53.36 126.24 50.16 122.72C48.8 121.36 47.6 119.84 46.4 118.32C43.76 115.2 41.12 111.92 37.6 109.44C37.44 109.36 37.28 109.28 37.28 109.2C37.36 108.96 37.44 108.72 37.44 108.48C37.76 107.44 38 106.32 38.72 105.92C39.28 105.6 39.68 105.2 40.16 104.8C40.64 104.48 41.04 104.16 41.52 103.84C45.04 101.68 48.48 99.36 51.6 96.96L52 96.72C52.8 96.08 53.84 95.36 54 94C54.08 93.76 54.32 93.6 54.64 93.36C54.72 93.28 54.88 93.2 54.96 93.12L56.72 91.68C59.04 89.92 61.28 88.16 63.6 86.4C63.84 86.16 64.16 86 64.4 85.76L64.64 85.52L64.96 85.76L64.88 86.24L65.28 86.08L65.76 86.48L65.84 85.84C66.8 85.36 67.68 84.8 68.32 84.24C78.56 75.92 92.8 61.36 94.4 47.92C94.48 47.12 94.48 46.08 93.92 45.12C93.6 44.64 93.2 44.4 92.72 44.4C92.56 44.4 92.32 44.4 92.16 44.48C91.92 44.56 91.68 44.72 91.6 44.96C91.36 44.48 91.04 44.16 90.8 43.84C90.4 43.36 89.92 42.88 89.68 42.16L89.12 40.88L88.8 42.24C88.72 42.64 88.64 42.96 88.56 43.28C88.48 43.76 88.4 44.16 88.24 44.56C86.16 51.28 84.4 56.48 79.6 61.68C79.28 62.08 78.88 62.48 78.56 62.88C76.16 65.76 73.36 68.32 70.72 70.88C68 73.44 65.2 76.08 62.72 79.04C61.04 81.04 58.88 82.88 56.88 84.64L56.56 84.88C53.04 87.92 49.44 90.96 45.84 93.92C45.76 94 45.68 94.16 45.52 94.24C45.28 94.48 44.88 94.8 44.72 94.88C44.4 94.64 44.16 94.56 43.84 94.56C43.28 94.56 42.96 95.12 42.8 95.44C42.8 95.52 42.72 95.6 42.72 95.6C42.88 94.72 43.2 93.84 43.52 92.88C43.68 92.64 43.76 92.32 43.84 92.08C44.56 90.16 45.28 88.16 46.08 86.32L46.4 85.52C47.44 82.8 48.24 79.92 48.88 77.12C49.28 75.68 49.6 74.24 50 72.88C50.56 71.12 51.04 69.28 51.52 67.44C52.8 61.92 53.28 57.6 53.04 53.44C53.04 52.96 52.88 52.56 52.8 52.16C52.72 51.92 52.64 51.76 52.56 51.52C52.96 52.32 53.2 53.2 53.28 54.24C53.6 58 53.28 62.08 52.32 67.04C52.16 67.68 52 68.32 51.84 68.96C51.76 69.36 51.68 69.76 51.6 70.24L50.72 74.24L52.24 71.2C55.28 65.28 56.32 59.12 55.28 52.88C55.2 52.48 55.04 52.08 54.96 51.76V51.68C53.92 48.64 52.24 46.64 49.6 45.52C48.88 45.2 48.16 44.8 47.36 44.32C45.12 42.88 43.68 42.8 41.2 42.8C28.4 44.32 19.84 52 12.72 62.08L12.8 61.76L12.08 61.84C11.44 61.92 11.2 62.32 11.04 62.56ZM3.68 91.84C2.96 88.8 2.96 85.76 3.84 82.48C3.28 85.6 3.36 88.48 4.08 91.36C4.08 91.52 4.16 91.68 4.16 91.84C4.4 92.48 4.56 93.12 4.08 93.68L3.68 91.84ZM28.88 107.76C29.84 107.12 30.72 106.48 31.76 105.84C31.84 105.76 32.08 105.6 32.16 105.6V105.68C32.32 105.84 32.32 106.16 32.08 106.4C31.52 107.28 30.08 107.84 28.64 107.92L28.88 107.76ZM51.52 95.28C51.52 95.28 51.6 95.2 51.68 95.2H51.76V95.52H51.68C51.6 95.52 51.6 95.44 51.52 95.44V95.28ZM107.973 92.72L107.893 92.4C107.493 91.76 107.253 91.28 107.493 90.56C107.653 90.24 107.493 89.6 107.253 89.2C107.013 88.72 106.613 88.72 106.133 88.72L105.893 88.8C105.253 88.88 104.293 89.04 103.893 90.08C103.653 90.8 103.093 91.52 102.533 92.16C101.813 93.12 101.013 94.08 100.853 95.44C100.773 95.52 100.613 95.6 100.533 95.68C100.453 95.76 100.293 95.92 100.213 96C99.5725 96.64 98.9325 97.28 98.2925 98C96.9325 99.36 95.4925 100.88 94.1325 102.32C91.0125 105.36 88.4525 107.52 85.8125 109.28C85.6525 109.28 85.5725 109.36 85.4925 109.52C85.1725 109.68 84.7725 110 84.5325 109.92C84.1325 109.6 84.0525 109.04 84.2125 108.16C84.2125 108 84.2125 107.92 84.2125 107.76C84.2925 107.6 84.2925 107.44 84.2925 107.28C84.6125 104.72 85.5725 102.32 86.6125 100.08C88.4525 96 90.6925 91.76 94.7725 88.96C95.0925 88.72 95.8125 88.24 95.4925 87.44C95.2525 87.04 94.6925 86.72 93.9725 86.64C93.5725 86.64 93.1725 86.72 92.8525 86.8L92.6125 86.88C89.8925 87.44 88.2925 89.36 86.6925 91.36C82.4525 96.8 79.9725 103.28 79.3325 110.56C79.2525 111.2 79.4925 111.52 79.7325 111.84C81.0925 113.28 82.2925 113.76 84.2925 113.76C90.0525 113.12 99.4125 102.72 102.693 98.48L102.613 98.64C102.373 99.76 102.133 100.8 101.973 101.92C100.213 110.88 98.7725 115.92 93.9725 124.08C93.5725 124.8 93.0125 125.2 92.1325 125.36C90.4525 125.68 88.8525 126.16 87.3325 126.64L86.5325 126.88C85.2525 127.28 83.8925 127.68 82.6125 128.32C81.5725 128.8 80.5325 128.96 79.4125 129.04C74.4525 130.08 70.0525 132.24 67.4125 136.72C66.5325 138.24 66.3725 139.84 66.8525 141.36C67.8125 144.32 71.4125 145.84 74.2925 145.84C80.6925 145.84 87.8925 139.04 91.8925 134.56C101.973 123.28 107.493 109.84 108.213 94.64V94.4C108.213 93.84 108.293 93.2 107.973 92.72ZM73.0125 139.44C74.2125 136.48 77.6525 133.76 80.5325 132.56C83.8125 131.12 86.7725 129.92 89.5725 128.72C89.7325 128.72 89.8925 128.64 90.0525 128.56C90.4525 128.4 90.7725 128.24 91.1725 128.24C91.1725 128.32 90.7725 128.88 90.6125 129.04C89.4925 130.48 88.4525 131.92 87.3325 133.28C86.8525 133.92 86.3725 134.4 85.5725 134.4C84.4525 134.4 83.9725 134.72 83.1725 135.44L83.0125 135.6C80.6925 137.68 77.4125 140.4 74.3725 141.44C74.0525 141.6 73.7325 141.76 73.4125 141.76C73.2525 141.76 73.0925 141.68 73.0125 141.6C72.5325 141.2 72.6925 140.48 73.0125 139.44ZM137.003 91.36C136.043 92.72 134.923 93.36 133.963 94.24C130.203 97.92 126.923 101.92 124.523 106.56C124.283 106.96 124.283 107.44 123.723 107.52C122.603 107.68 122.443 107.84 122.523 108.64C122.763 110.64 124.683 112.24 126.683 112.24C129.163 112.24 132.443 109.6 134.203 108.08C137.003 105.68 139.803 103.36 142.523 100.96C142.843 100.64 143.483 100.4 143.003 99.76C142.763 99.44 142.443 99.28 142.123 99.28C141.883 99.28 141.723 99.36 141.483 99.52C141.083 99.76 140.763 100 140.363 100.24C136.763 102.64 133.163 105.12 129.483 107.52C128.923 107.84 128.443 108.32 127.563 108.32C127.483 108.32 127.403 108.32 127.243 108.32C128.043 103.76 137.323 94.88 140.843 92.24C141.403 91.76 142.363 91.36 142.043 90.4C141.803 89.52 140.763 89.36 140.043 89.12C139.723 89.04 139.403 89.04 139.163 89.04C135.403 89.36 131.563 89.76 127.803 90.16C128.603 88.88 129.323 88.08 129.803 87.2C130.603 85.68 130.203 85.04 128.603 84.88C128.283 84.88 128.043 84.88 127.723 84.88C126.683 84.88 125.643 84.96 124.603 85.36C122.843 86 121.163 86.72 119.403 87.44C118.443 87.92 117.483 88.64 116.363 88.64C116.043 88.64 115.803 88.56 115.483 88.48C115.163 88.4 114.763 88.64 114.443 88.8C112.843 89.6 111.243 90.48 109.803 91.52C109.163 92.08 108.043 92.48 108.203 93.6C108.363 94.88 109.643 95.28 110.603 95.84C110.763 95.92 110.923 95.92 111.083 95.92C111.483 95.92 111.883 95.76 112.283 95.68C114.683 95.2 117.003 94.64 119.403 94.08C119.723 94 119.963 93.92 120.283 93.92C120.603 93.92 120.923 94.08 121.243 94.48C121.643 94.96 121.963 95.2 122.363 95.2C122.763 95.2 123.083 94.96 123.563 94.4C124.603 93.12 125.803 92.48 127.403 92.4C128.443 92.32 129.483 91.92 130.603 91.84C132.203 91.68 133.803 91.28 135.643 91.28C136.043 91.28 136.523 91.28 137.003 91.36ZM116.363 91.6C118.523 89.84 123.883 87.44 126.523 87.04C125.403 90 122.363 91.92 118.843 91.92C118.043 91.92 117.243 91.84 116.363 91.6ZM143.779 108C143.699 107.6 143.699 107.44 143.699 107.28C145.139 102.24 146.979 97.36 150.339 93.2C150.819 92.64 151.299 92.16 151.539 91.44C151.699 90.88 151.619 90.4 151.059 90.32C150.179 90.16 149.299 89.84 148.419 89.84C147.699 89.84 147.059 90.08 146.419 90.96C146.259 91.28 145.779 91.36 145.539 91.6C144.419 92.72 142.739 93.28 141.859 94.64C139.619 98.24 138.099 102.16 137.539 106.4C137.299 108.64 137.779 110.32 140.179 111.52C141.139 112 142.019 112.24 142.819 112.24C146.179 112.24 153.139 106 155.459 103.76C156.579 102.8 157.539 101.76 158.579 100.64C158.819 100.4 159.139 100.08 158.739 99.68C158.499 99.44 158.179 99.2 157.859 99.2C157.779 99.2 157.619 99.2 157.539 99.28C157.139 99.44 156.819 99.68 156.579 99.92C155.059 101.04 153.619 102.24 152.179 103.36C149.699 105.28 146.979 106.88 143.779 108ZM142.579 96.8C142.659 95.76 143.299 94.96 144.019 94.32C143.859 95.28 143.299 96.08 142.579 96.8ZM139.059 108.96C139.059 108.24 139.059 107.52 139.059 106.72C139.139 106.72 139.219 106.72 139.219 106.72C139.219 107.44 139.219 108.16 139.219 108.96C139.219 108.96 139.139 108.96 139.059 108.96ZM153.539 80.16C152.019 80.16 150.259 81.76 149.859 83.28C149.299 85.28 150.819 87.28 152.819 87.28C152.979 87.28 153.139 87.28 153.299 87.28C155.379 86.96 157.619 84.72 157.939 82.64C157.939 82.16 157.859 81.6 157.379 81.52C156.019 81.12 154.819 80.16 153.539 80.16ZM160.1 113.76C160.82 113.92 161.54 114 162.26 114C168.34 114 178.74 105.2 182.82 101.28C183.3 100.8 183.86 100.32 184.18 99.44C183.86 99.36 183.62 99.36 183.3 99.36C183.06 99.44 182.82 99.52 182.58 99.76C180.18 101.52 178.26 103.92 174.9 104.24C173.62 104.4 172.42 105.52 171.14 106.16C168.18 107.52 165.3 109.28 162.18 110.16C161.94 110.24 161.7 110.32 161.46 110.32C160.9 110.32 160.58 109.92 160.42 109.28C160.02 107.52 160.42 105.84 160.82 104.16C161.14 102.8 161.78 102.56 163.06 102.56C165.14 102.56 167.06 101.84 168.9 101.04C172.1 99.76 174.42 97.44 175.78 94.32C176.66 92.24 176.02 91.2 173.86 90.72C173.3 90.56 172.58 90.64 172.1 90.16C171.22 89.36 170.26 89.04 169.22 89.04C168.66 89.04 168.1 89.12 167.46 89.28C161.7 90.64 158.18 94.64 155.62 99.6C155.54 99.76 155.54 99.92 155.54 100C155.06 101.84 154.58 103.6 154.26 105.44C153.54 109.52 156.02 112.88 160.1 113.76ZM162.9 99.84C164.26 96.24 166.74 93.76 170.42 92.4C170.58 92.32 170.74 92.32 170.98 92.32C171.46 92.32 171.86 92.56 172.26 92.64C172.74 92.8 172.66 93.2 172.66 93.52C173.06 93.36 172.82 92.64 173.46 92.72C174.1 92.8 174.18 93.36 174.02 93.84C173.7 94.88 173.22 95.84 171.94 96.4C172.02 95.6 172.1 95.04 172.26 94.48C169.94 97.12 167.46 99.36 163.86 100C163.7 100 163.54 100.08 163.38 100.08C163.3 100.08 163.14 100 162.9 99.84ZM169.06 89.76C169.78 89.76 170.5 90 171.22 90.56C169.46 91.2 167.7 90.8 166.1 91.44C164.58 92.08 163.3 93.04 161.78 93.68C162.98 91.68 166.66 89.76 169.06 89.76ZM158.26 105.6C158.02 106.96 158.02 108.32 157.86 109.68C157.62 108.24 156.74 106.8 158.26 105.6ZM158.82 102.64C159.3 103.84 158.42 104.48 158.26 105.36C157.86 104.48 158.1 103.6 158.82 102.64ZM232.701 49.92C232.221 50.24 231.741 50.56 231.021 50.56C231.581 49.84 232.141 50 232.701 49.92ZM232.781 49.92C233.661 49.04 234.701 48.72 235.901 48.72C236.221 48.72 236.621 48.8 236.941 48.8C235.661 49.6 234.221 49.76 232.781 49.92ZM209.101 61.68C209.341 60.72 210.221 60.32 210.941 59.76C210.541 60.56 210.061 61.36 209.261 61.84C209.261 62.16 209.101 62.56 209.261 62.72C209.341 62.88 209.421 62.88 209.501 62.88C209.661 62.88 209.821 62.72 209.981 62.64C210.941 62.08 211.501 60.72 213.101 60.8C212.541 62.08 211.661 62.96 210.781 63.76C209.181 65.36 207.741 67.04 206.461 68.8C205.421 70.4 204.461 72.08 204.221 74C203.821 76.8 205.101 78.24 207.901 78.24H208.061C210.461 78.24 212.301 76.88 214.061 75.6C214.701 75.2 215.581 74.56 214.941 73.84C214.781 73.68 214.621 73.6 214.461 73.6C213.981 73.6 213.501 74.08 213.181 74.32C211.981 75.12 210.781 76 209.421 76.48C209.101 76.64 208.781 76.64 208.541 76.64C207.821 76.64 207.421 76.16 207.341 75.2C207.261 74.48 207.421 73.84 207.661 73.12C208.221 71.68 208.941 70.4 209.901 69.2C215.101 61.84 226.221 53.6 234.701 50.64C235.261 50.4 235.821 50.24 236.461 50.24C236.701 50.24 237.021 50.24 237.341 50.4C237.341 51.76 236.861 53.04 236.461 54.24C235.181 57.84 233.741 61.36 232.701 65.04C230.061 74.24 227.901 83.52 225.821 92.8C223.741 101.84 222.221 110.88 221.101 120.08C220.461 125.44 219.981 130.72 220.221 136.08C220.301 137.28 220.461 138.4 221.821 139.44C221.901 137.6 221.901 136.08 222.061 134.56C223.421 123.2 225.821 112.08 228.141 100.96C231.261 85.76 236.221 71.12 241.101 56.4C242.061 53.68 241.741 51.12 240.621 48.64C239.581 46.24 237.661 45.04 235.181 45.04C228.061 45.04 216.141 54.32 210.701 58.72C207.261 61.44 204.541 64.96 202.781 69.04C202.541 69.52 202.141 70 202.621 70.72C203.901 67.52 206.461 63.76 209.101 61.68ZM263.488 91.36C262.528 92.72 261.408 93.36 260.448 94.24C256.688 97.92 253.408 101.92 251.008 106.56C250.768 106.96 250.768 107.44 250.208 107.52C249.088 107.68 248.928 107.84 249.008 108.64C249.248 110.64 251.168 112.24 253.168 112.24C255.648 112.24 258.928 109.6 260.688 108.08C263.488 105.68 266.288 103.36 269.008 100.96C269.328 100.64 269.968 100.4 269.488 99.76C269.248 99.44 268.928 99.28 268.608 99.28C268.368 99.28 268.208 99.36 267.968 99.52C267.568 99.76 267.248 100 266.848 100.24C263.248 102.64 259.648 105.12 255.968 107.52C255.408 107.84 254.928 108.32 254.048 108.32C253.968 108.32 253.888 108.32 253.728 108.32C254.528 103.76 263.808 94.88 267.328 92.24C267.888 91.76 268.848 91.36 268.528 90.4C268.288 89.52 267.248 89.36 266.528 89.12C266.208 89.04 265.888 89.04 265.648 89.04C261.888 89.36 258.048 89.76 254.288 90.16C255.088 88.88 255.807 88.08 256.288 87.2C257.088 85.68 256.688 85.04 255.088 84.88C254.768 84.88 254.528 84.88 254.208 84.88C253.168 84.88 252.128 84.96 251.088 85.36C249.328 86 247.648 86.72 245.888 87.44C244.928 87.92 243.968 88.64 242.848 88.64C242.528 88.64 242.288 88.56 241.968 88.48C241.648 88.4 241.248 88.64 240.928 88.8C239.328 89.6 237.728 90.48 236.288 91.52C235.648 92.08 234.527 92.48 234.688 93.6C234.848 94.88 236.128 95.28 237.088 95.84C237.248 95.92 237.408 95.92 237.568 95.92C237.968 95.92 238.368 95.76 238.768 95.68C241.168 95.2 243.488 94.64 245.888 94.08C246.208 94 246.447 93.92 246.768 93.92C247.088 93.92 247.408 94.08 247.728 94.48C248.128 94.96 248.448 95.2 248.848 95.2C249.248 95.2 249.568 94.96 250.048 94.4C251.088 93.12 252.288 92.48 253.888 92.4C254.928 92.32 255.968 91.92 257.088 91.84C258.688 91.68 260.288 91.28 262.128 91.28C262.528 91.28 263.008 91.28 263.488 91.36ZM242.848 91.6C245.008 89.84 250.368 87.44 253.008 87.04C251.888 90 248.848 91.92 245.328 91.92C244.528 91.92 243.728 91.84 242.848 91.6ZM270.664 103.6C270.584 98 271.464 92.64 272.264 87.28C272.024 87.2 271.864 87.2 271.704 87.2C270.744 87.2 270.424 87.92 270.184 88.72C268.664 94.56 267.864 100.48 267.624 106.56C267.544 107.04 267.704 107.6 267.064 108.16C266.584 106.16 266.984 104.32 267.064 102.48C267.224 98.32 268.024 94.24 268.904 90.24C269.224 88.56 269.144 87.12 267.544 86C267.064 86.56 266.904 87.28 266.664 87.92C265.944 89.92 266.184 92.08 265.544 94C264.904 96.24 264.504 98.48 264.264 100.72C264.024 103.36 263.704 106 264.264 108.64C264.744 111.04 266.664 112.24 268.984 112.24C270.104 112.24 271.064 111.84 271.944 110.8C272.904 109.52 274.024 108.32 274.984 106.96C280.664 99.12 284.664 90.32 288.744 81.52C288.904 81.2 289.144 80.8 288.744 80.4C287.864 80.48 287.704 81.28 287.384 81.84C284.504 86.72 281.624 91.6 278.744 96.48C278.584 96.72 278.584 97.12 278.184 97.12C278.104 97.12 278.024 97.12 277.944 97.12C278.264 95.92 278.664 94.72 279.064 93.52C275.544 96.32 273.704 100.4 270.664 103.6ZM275.864 101.6C275.704 102.24 275.224 102.72 274.664 103.2C274.744 102.48 274.984 101.84 275.544 101.36C275.944 100.48 276.344 99.6 277.224 98.56C277.064 100 276.504 100.8 275.864 101.6ZM289.717 108C289.637 107.6 289.637 107.44 289.637 107.28C291.077 102.24 292.917 97.36 296.277 93.2C296.757 92.64 297.237 92.16 297.477 91.44C297.637 90.88 297.557 90.4 296.997 90.32C296.117 90.16 295.237 89.84 294.357 89.84C293.637 89.84 292.997 90.08 292.357 90.96C292.197 91.28 291.717 91.36 291.477 91.6C290.357 92.72 288.677 93.28 287.797 94.64C285.557 98.24 284.037 102.16 283.477 106.4C283.237 108.64 283.717 110.32 286.117 111.52C287.077 112 287.957 112.24 288.757 112.24C292.117 112.24 299.077 106 301.397 103.76C302.517 102.8 303.477 101.76 304.517 100.64C304.757 100.4 305.077 100.08 304.677 99.68C304.437 99.44 304.117 99.2 303.797 99.2C303.717 99.2 303.557 99.2 303.477 99.28C303.077 99.44 302.757 99.68 302.517 99.92C300.997 101.04 299.557 102.24 298.117 103.36C295.637 105.28 292.917 106.88 289.717 108ZM288.517 96.8C288.597 95.76 289.237 94.96 289.957 94.32C289.797 95.28 289.237 96.08 288.517 96.8ZM284.997 108.96C284.997 108.24 284.997 107.52 284.997 106.72C285.077 106.72 285.157 106.72 285.157 106.72C285.157 107.44 285.157 108.16 285.157 108.96C285.157 108.96 285.077 108.96 284.997 108.96ZM299.477 80.16C297.957 80.16 296.197 81.76 295.797 83.28C295.237 85.28 296.757 87.28 298.757 87.28C298.917 87.28 299.077 87.28 299.237 87.28C301.317 86.96 303.557 84.72 303.877 82.64C303.877 82.16 303.797 81.6 303.317 81.52C301.957 81.12 300.757 80.16 299.477 80.16ZM298.998 112.8C299.318 112.96 299.638 113.12 299.958 113.12C300.198 113.12 300.438 113.04 300.758 112.88C301.158 112.72 301.398 112.32 301.718 111.92C303.318 109.92 315.398 95.28 316.758 95.28C316.838 95.28 316.998 95.28 317.158 95.36C317.318 95.84 317.078 96.32 316.918 96.8L314.998 102.8C314.598 104 314.358 105.2 314.198 106.48C314.038 108.8 316.278 111.36 319.078 111.36C320.518 111.36 322.198 110.56 323.398 109.84C327.718 106.88 330.758 102.72 334.038 98.64C333.878 98.8 333.718 98.8 333.558 98.8C333.158 98.8 332.758 98.32 332.278 98.32C332.278 98.32 332.198 98.32 332.118 98.32C332.118 98.08 332.118 97.84 331.958 97.84C331.958 97.84 331.798 97.92 331.718 98C330.918 98.64 330.118 99.44 329.318 100.16C327.878 100.96 326.758 102.16 325.718 103.36C324.118 104.96 322.438 106.48 320.598 107.84C320.198 108 319.878 108.32 319.478 108.32C319.398 108.32 319.238 108.32 319.078 108.24C318.758 107.52 318.918 106.72 318.997 105.92C319.238 103.84 319.798 101.68 320.438 99.68C320.838 98.48 321.398 97.28 321.478 96.08C321.478 96 321.558 96 321.558 95.92V95.84C321.957 95.44 322.038 94.88 322.198 94.24C321.718 94.8 321.478 95.28 321.558 95.84H321.478V96.08C319.557 99.92 318.838 104.16 317.958 108.32C317.478 106.8 317.878 105.36 318.198 103.84C318.918 100.48 320.198 97.2 321.398 93.92C321.957 92.32 322.518 90.72 321.078 89.2C320.598 88.72 320.358 88.4 320.038 88.4C319.798 88.4 319.557 88.56 319.158 88.88C317.638 90.24 315.958 91.52 314.758 93.2C313.238 95.28 311.398 97.04 309.558 98.8C308.598 99.76 307.638 100.8 306.678 101.76C306.918 100 307.558 98.4 308.118 96.8C308.918 94.72 309.558 92.56 310.038 90.4C310.278 89.2 309.558 88.24 308.598 88.08C307.398 88.08 306.918 88.4 306.518 89.52C304.278 96.64 301.558 103.52 298.838 110.48C298.758 110.8 298.598 111.12 298.518 111.44C298.438 111.92 298.357 112.48 298.998 112.8Z" fill="#333333"/>
</svg>
