<svg width="11" height="20" viewBox="0 0 11 20" fill="none" xmlns="http://www.w3.org/2000/svg">
<path d="M8.16675 18.8335L0.500081 11.1668C0.333414 11.0002 0.215636 10.8196 0.146748 10.6252C0.0767476 10.4307 0.041748 10.2224 0.041748 10.0002C0.041748 9.77794 0.0767476 9.56961 0.146748 9.37516C0.215636 9.18072 0.333414 9.00016 0.500081 8.8335L8.16675 1.16683C8.4723 0.861273 8.86119 0.708496 9.33341 0.708496C9.80564 0.708496 10.1945 0.861273 10.5001 1.16683C10.8056 1.47238 10.9584 1.86127 10.9584 2.3335C10.9584 2.80572 10.8056 3.19461 10.5001 3.50016L4.00008 10.0002L10.5001 16.5002C10.8056 16.8057 10.9584 17.1946 10.9584 17.6668C10.9584 18.1391 10.8056 18.5279 10.5001 18.8335C10.1945 19.139 9.80564 19.2918 9.33341 19.2918C8.86119 19.2918 8.4723 19.139 8.16675 18.8335Z" fill="black"/>
</svg>
