<svg width="27" height="22" viewBox="0 0 27 22" fill="none" xmlns="http://www.w3.org/2000/svg">
<mask id="mask0_169_12061" style="mask-type:luminance" maskUnits="userSpaceOnUse" x="14" y="0" width="13" height="22">
<path d="M17.8612 18.3096C18.9387 19.6888 20.1794 20.8038 21.4838 21.7351C20.4519 19.8389 19.8949 17.5292 19.8972 15.1559C23.6608 15.2197 26.1801 11.687 26.1442 7.33274C26.0962 1.47814 21.053 -1.84529 17.5227 1.08138C16.2457 2.13474 15.29 3.7957 14.8346 5.75332C13.8033 10.3576 15.4204 15.1891 17.8612 18.3096Z" fill="white"/>
</mask>
<g mask="url(#mask0_169_12061)">
<path d="M-4.47011 7.80736C0.704975 9.34851 5.89328 10.7629 11.0948 12.0506C9.50692 11.3855 7.92057 10.7102 6.33576 10.0247C6.16418 9.94941 6.1854 9.63429 6.29886 9.50543L-1.12429 6.43206C-1.35491 6.33637 -1.23776 5.7814 -1.01083 5.86561L9.70741 9.83331C9.72289 9.81294 9.74177 9.7982 9.76238 9.79041C9.78299 9.78262 9.80467 9.78201 9.82549 9.78866C11.438 10.2496 13.0483 10.7344 14.6565 11.2431L2.68553 6.80076L-3.91478 4.34997C-4.11588 4.27597 -4.05315 3.71207 -3.84744 3.76948C-0.433666 4.72803 2.97765 5.71166 6.3865 6.72038L4.76848 5.95491C4.53601 5.84647 4.65686 5.31702 4.88194 5.38974L6.43354 5.89112C6.43667 5.85594 6.44537 5.82214 6.45902 5.79214C6.47268 5.76213 6.49094 5.73666 6.51252 5.71754C6.5341 5.69841 6.55846 5.6861 6.58388 5.68148C6.60929 5.67687 6.63513 5.68006 6.65955 5.69082L8.49159 6.55708L18.8288 9.90475L18.0217 9.5756C16.574 9.04742 15.1288 8.49458 13.686 7.91708C11.7359 7.13374 9.79289 6.30575 7.85693 5.43311L7.13555 5.13841C7.10378 5.12613 7.07546 5.10077 7.05437 5.06569C6.75457 4.92918 6.45476 4.79522 6.15588 4.65616C5.9271 4.55027 6.04242 3.99657 6.26934 4.08971L6.81361 4.31425C6.65217 4.17646 6.76656 3.70569 6.97596 3.77714L10.1622 4.85901C8.97773 4.38697 7.79635 3.89536 6.61804 3.3842C6.42063 3.29872 6.47874 2.7463 6.68538 2.80371L9.76737 3.72228C9.78263 3.70316 9.80097 3.68936 9.82087 3.68204C9.84077 3.67471 9.86164 3.67408 9.88176 3.68018L16.7597 5.64362L11.0948 3.50157L8.41963 2.49114L5.88006 1.66188C5.85089 1.65112 5.82456 1.62908 5.80413 1.59835C5.78371 1.56762 5.77005 1.52947 5.76475 1.48837L4.71959 1.09033C4.51941 1.01505 4.58121 0.460087 4.78693 0.509842L12.5966 2.41587L11.5191 1.92214L6.56177 0.338887C6.35883 0.273822 6.4234 -0.287526 6.62911 -0.241597L10.2674 0.560874L3.846 -1.35281C3.62092 -1.42043 3.6283 -1.99071 3.86722 -1.94733C7.29329 -1.28137 10.7104 -0.504835 14.1187 0.382263L13.9074 0.292958C13.8919 0.285764 13.877 0.275907 13.8632 0.263615L10.6179 -0.785084C10.5818 -0.800655 10.5503 -0.832152 10.5283 -0.874767C10.5063 -0.917383 10.495 -0.968777 10.4961 -1.0211L9.5266 -1.38726L9.2886 -1.4638L3.03976 -3.46424C2.80822 -3.53824 2.92445 -4.10214 3.1523 -4.03069L4.93637 -3.46935C4.94744 -3.62116 5.01478 -3.76278 5.12086 -3.7245L9.68896 -2.32113L4.43546 -4.18123C4.20392 -4.26289 4.32108 -4.81913 4.54893 -4.74768L27.537 2.96191L34.07 5.14096C34.1696 5.17413 34.2037 5.33233 34.1881 5.47521C35.0958 5.68189 36.0044 5.88092 36.914 6.07228L12.1824 -2.44233L4.13566 -5.21335C4.09183 -5.2361 4.05544 -5.28004 4.03323 -5.33704C4.01101 -5.39403 4.00447 -5.46022 4.01481 -5.52337L2.6846 -5.94693C2.48351 -6.01072 2.54716 -6.58482 2.75195 -6.52741L4.51664 -6.03623C4.50598 -6.09245 4.50409 -6.15116 4.5111 -6.20846L2.00751 -6.88974C1.77874 -6.95225 1.79442 -7.54294 2.02965 -7.48425L10.4334 -5.36389L16.304 -4.35729L14.4637 -4.99519L8.58475 -7.02752C8.35414 -7.10662 8.46945 -7.67179 8.69822 -7.59269L19.8408 -3.75257L27.5306 -2.4334L9.25263 -8.15532C9.20795 -8.17793 9.17093 -8.2227 9.14877 -8.28093C9.12661 -8.33916 9.12089 -8.4067 9.13271 -8.47044L7.09312 -9.03434C6.86526 -9.09813 6.8791 -9.68499 7.11433 -9.62885L22.5695 -5.95331L11.0007 -9.50893L5.27307 -11.267C5.04799 -11.3359 5.05813 -11.9176 5.29521 -11.8615L18.803 -8.62736C18.6416 -8.77408 18.6766 -9.24995 18.8851 -9.18616L28.0398 -6.41642C28.2658 -6.34752 28.2556 -5.76449 28.0185 -5.8219L14.1445 -9.13895L25.5066 -5.65222L31.226 -3.89418C31.4511 -3.82529 31.4418 -3.24353 31.2048 -3.29966L22.658 -5.33327L27.6376 -3.95542L33.463 -2.34665C33.6918 -2.28286 33.6742 -1.68962 33.4409 -1.75213L21.731 -4.84847L31.8274 -1.68962C32.0313 -1.62583 31.9649 -1.07469 31.7592 -1.10913L23.2964 -2.56098L28.0656 -0.917767L34.3227 0.660385C34.5303 0.712693 34.5358 1.19877 34.3633 1.25235L35.1198 1.51389C35.1424 1.52101 35.1633 1.53593 35.1806 1.55727L35.4232 1.64147C35.6243 1.71164 35.5616 2.27936 35.3559 2.22195L13.8715 -3.64668L11.1769 -4.29606L10.7683 -4.39429L12.3023 -3.87504L24.5214 -0.482721L30.6411 1.21663C30.8699 1.28042 30.8533 1.87366 30.6199 1.81115L23.5233 -0.0706425L25.5749 0.625939L31.4501 2.61745C31.6817 2.69654 31.5645 3.25534 31.3367 3.1839L17.1675 -1.33112L33.034 4.13181L41.0808 6.90282C41.2837 6.97172 41.2192 7.52158 41.0134 7.48331C38.7546 7.064 36.4989 6.59876 34.2462 6.08759C34.2337 6.15271 34.2041 6.20901 34.1631 6.24538C34.1221 6.28176 34.0728 6.29556 34.0248 6.28407L31.2675 5.41653C31.2543 5.45446 31.2324 5.48523 31.2052 5.50395C31.1779 5.52267 31.1469 5.52827 31.1171 5.51987L30.5489 5.34508C30.5435 5.38986 30.5326 5.43301 30.5166 5.47266L34.7176 6.93982L40.6039 8.99257C40.805 9.06273 40.7413 9.63046 40.5365 9.57305L39.1482 9.15969C39.1482 9.31789 39.0744 9.47482 38.9637 9.44675L34.1825 8.28068L36.8577 9.41613C37.0902 9.51564 36.9693 10.054 36.7442 9.98258L22.4966 5.43056L20.9764 5.05931L25.2114 6.77397C26.752 7.33447 28.2894 7.91963 29.8238 8.52946C31.1872 9.07209 32.5476 9.63429 33.9049 10.216L41.602 12.7319C41.8031 12.7982 41.7394 13.3698 41.5346 13.3124L39.8843 12.8416C39.9203 13.0304 39.8474 13.2881 39.6998 13.246L34.1512 11.5875L33.6364 11.502C33.6982 11.696 33.5894 12.0009 33.4159 11.9358L30.9769 11.0134C30.2451 10.8705 29.5145 10.72 28.7851 10.5618C29.4225 10.7991 30.06 11.0402 30.6946 11.2928C32.5341 12.0234 34.3621 12.8204 36.1788 13.6836L40.6306 15.198C40.8336 15.2669 40.7681 15.8168 40.5633 15.7785C38.1273 15.3235 35.6981 14.8004 33.2757 14.2093L35.1908 15.0398C35.2194 15.0513 35.2453 15.0733 35.2658 15.1033C35.2862 15.1334 35.3005 15.1705 35.307 15.2108L35.7784 15.3894C36.0099 15.4774 35.8909 16.0273 35.6649 15.9558L29.8469 14.0728C30.4825 14.2833 31.1171 14.4912 31.7527 14.703C35.0952 15.8206 38.4364 16.9633 41.7763 18.131C41.9802 18.2012 41.9138 18.7421 41.709 18.7115C37.6593 18.1068 33.6143 17.4264 29.5738 16.6703C32.2183 17.7598 34.8556 18.9148 37.4859 20.1353C40.0412 21.326 42.5853 22.5755 45.1185 23.8836C45.35 24.0035 45.2292 24.5215 45.005 24.45C42.7781 23.7517 40.5537 23.0318 38.3318 22.2901C38.3604 22.4777 38.2552 22.7264 38.0975 22.6729L22.7521 17.5314L28.3848 19.5944L35.2388 22.1051C35.4694 22.1893 35.3531 22.7519 35.1253 22.6716L22.6294 18.2752C24.5205 19.1257 26.4048 20.0103 28.2824 20.9288L28.6772 21.0564C28.6989 21.0639 28.719 21.0781 28.7362 21.098C28.7533 21.1179 28.7669 21.143 28.7759 21.1712C29.4069 21.4842 30.0369 21.8011 30.666 22.1217L34.5238 23.6271C34.6991 23.696 34.6724 24.0405 34.5487 24.1604C35.7719 24.8213 36.9908 25.4979 38.2054 26.1902C38.4333 26.3178 38.318 26.8281 38.092 26.7567C29.6808 23.921 21.3118 20.7583 12.985 17.2686L10.4685 16.5657L9.84209 16.3909L20.2347 20.675C26.0635 22.6312 31.8545 24.8587 37.6077 27.3576C40.3585 28.5542 43.0992 29.8113 45.8297 31.1288C46.0594 31.2398 45.9413 31.7743 45.7162 31.694L27.18 25.1606C23.6746 24.1136 20.192 22.8859 16.7321 21.4774L16.2994 21.3243L15.4065 21.17L36.8014 29.9653L43.5253 32.7286C43.7578 32.8243 43.6379 33.3665 43.4119 33.2951C37.3807 31.3431 31.3837 29.122 25.4125 26.7324C19.4414 24.3429 13.4914 21.7875 7.55435 19.1721C4.1947 17.6922 0.836891 16.1999 -2.51907 14.6953C-2.74969 14.592 -2.63162 14.0498 -2.40561 14.1289L10.0755 18.5278C9.47587 18.2412 8.87749 17.9495 8.28034 17.6526C8.08754 17.5557 8.13828 17.0147 8.34768 17.0721C10.1471 17.5586 11.9438 18.0711 13.7377 18.6095L11.5754 17.7164L5.21034 15.0934C5.01201 15.0117 5.07197 14.4555 5.27768 14.5129L8.88825 15.5221C8.3114 15.2729 7.73546 15.0219 7.16045 14.7693C6.63464 14.538 6.10945 14.3054 5.58487 14.0715L5.41513 14.0051C5.39832 13.9993 5.38239 13.9893 5.36808 13.9758C3.07666 12.9552 0.789536 11.9111 -1.49328 10.8437C-1.72298 10.7353 -1.60583 10.1931 -1.37982 10.2773L0.88578 11.1193L0.424541 10.9228C0.194847 10.8246 0.311077 10.2684 0.538006 10.3564L23.9873 19.5191L24.0334 19.5331C20.707 18.0022 17.3618 16.589 13.9978 15.2937C13.2506 15.0054 12.5022 14.7243 11.7525 14.4504L7.02762 12.7919C6.88463 12.7408 6.87449 12.5086 6.94183 12.3555L3.9733 11.2686C3.95187 11.2605 3.93181 11.2466 3.91426 11.2277L-4.53745 8.39677C-4.73855 8.32023 -4.6749 7.74612 -4.47011 7.80736ZM17.8427 -3.49741L21.3887 -2.60436L19.743 -3.17209L17.8427 -3.49741ZM40.4332 29.2304C38.3724 28.2948 36.3054 27.3984 34.2323 26.541C34.2868 26.726 34.2157 27.0156 34.0644 26.985L35.2 27.3856L40.4332 29.2304ZM4.10337 17.0288C7.86707 18.7017 11.6354 20.3488 15.4083 21.9699C21.3564 24.5125 27.3202 26.9506 33.3163 29.1756L33.9491 29.4077L19.5244 23.474L12.8005 20.7107C12.6003 20.629 12.6621 20.0945 12.8687 20.1302L12.961 20.1468L8.11061 18.4372L4.10337 17.0288ZM16.6878 20.1174C14.9129 19.5561 13.135 19.0211 11.354 18.5125C13.0532 19.306 14.7595 20.0554 16.4728 20.7604L19.9146 21.3562C20.148 21.3971 20.1277 21.9941 19.8925 21.9508L19.6821 21.915L27.3202 24.6069C27.6505 24.7048 27.981 24.8021 28.3119 24.8991C28.9954 25.0956 29.6808 25.2818 30.3662 25.4643L20.0834 21.2248C18.9518 20.8455 17.82 20.4764 16.6878 20.1174ZM15.2358 17.238L15.0578 17.1793L15.5688 17.3796L15.2358 17.238ZM31.0535 22.9459L24.2761 20.4249L23.9292 20.328L26.3821 21.3741L33.701 24.4947C33.7316 24.5071 33.759 24.5312 33.7802 24.5641C33.8014 24.597 33.8155 24.6375 33.8209 24.6809C34.3098 24.8532 34.7997 25.0216 35.2886 25.1913C33.8815 24.4224 32.4698 23.6739 31.0535 22.9459ZM6.47229 11.4727L10.462 12.8085L26.6284 18.1668C22.6925 16.7124 18.7677 15.1895 14.8539 13.5982L14.591 13.491C11.8845 12.8557 9.17822 12.1829 6.47229 11.4727ZM23.0676 14.7783L23.3573 14.8382C21.9643 14.3203 20.5689 13.8197 19.1711 13.3366L23.0676 14.7783ZM22.5234 13.2014C24.3609 13.8691 26.2059 14.4717 28.0582 15.0092C28.5502 15.1521 29.044 15.2899 29.5397 15.4225L19.029 11.5492L22.5234 13.2014ZM6.12913 7.24346C5.15991 6.95683 4.18947 6.67233 3.2178 6.38996L14.7423 10.6664L9.93895 8.39805L9.83563 8.34957C8.60136 7.97789 7.36647 7.60918 6.13097 7.24346H6.12913ZM27.454 6.04039L24.5943 4.82711L18.0355 2.87516L12.6852 1.69505L22.5234 4.83859L27.454 6.04039ZM31.3791 6.99851L34.1899 7.68361L29.4419 6.27003L30.8561 6.87093L31.3791 6.99851ZM25.8341 4.59237L28.5397 5.39867C27.9992 5.2073 27.4577 5.01806 26.9153 4.83094L25.8341 4.59237ZM18.3621 5.05038C17.1936 4.68295 16.0251 4.32913 14.8567 3.98892L19.0004 5.34508L18.3621 5.05038ZM23.7373 6.88879L24.991 7.29832C24.443 7.0993 23.8954 6.90325 23.348 6.71018L23.7373 6.88879ZM11.3171 6.11056C11.7784 6.17435 12.2322 6.24452 12.6889 6.31724L6.98888 4.38186L9.61424 5.46501L11.3171 6.11056ZM28.1624 10.9713L28.87 11.2112C28.4567 11.0564 28.0425 10.905 27.6274 10.757L28.1624 10.9713ZM16.5042 7.62109C15.6777 7.45099 14.8508 7.29236 14.0237 7.14522L17.4746 8.45418L25.2391 11.3426L17.232 7.8686L16.5042 7.62109ZM24.4476 7.84053L23.6239 7.45779L20.3316 6.37847L23.3351 7.51393L24.4476 7.84053ZM11.6049 0.343989L11.3734 0.28913L18.0613 2.28064L19.1803 2.52687L18.9515 2.42991L18.0577 2.04717C15.9107 1.43734 13.7598 0.869615 11.6049 0.343989ZM31.0037 7.5471L30.7777 7.45014L30.4631 7.37359L31.0037 7.5471ZM26.3212 9.25665L16.6417 6.37847L19.8113 7.64278C22.3204 8.40825 24.8388 9.08017 27.3664 9.65853L26.3212 9.25665ZM32.7269 13.4795L23.9163 10.1497L29.9032 12.7472C30.8435 13.0015 31.7847 13.2456 32.7269 13.4795ZM12.5246 8.46567L13.0975 8.73741L14.0025 9.0117C15.9704 9.61813 17.9383 10.2331 19.9063 10.8565L12.5246 8.46567ZM23.8407 12.7115L28.679 14.4976L34.2886 16.5657C34.3984 16.6065 34.4288 16.7889 34.4011 16.9395C35.7904 17.1793 37.1809 17.4098 38.5726 17.6309C33.6687 15.9392 28.7581 14.2994 23.8407 12.7115ZM30.0646 16.1561C28.7424 15.8083 27.4239 15.4255 26.109 15.0079C26.1243 15.0941 26.1158 15.1851 26.085 15.2631L26.7308 15.5182C27.8427 15.7394 28.9539 15.9533 30.0646 16.16V16.1561ZM36.5035 20.2948C36.4674 20.3208 36.4256 20.3272 36.3863 20.3126L24.6921 16.3079L30.238 18.7536L31.8404 19.4489C33.3913 19.9975 34.9433 20.5363 36.4961 21.0654C38.2562 21.6607 40.0181 22.2438 41.7819 22.8145C40.0255 21.9469 38.266 21.1083 36.5035 20.2986V20.2948Z" fill="#333333"/>
</g>
<mask id="mask1_169_12061" style="mask-type:luminance" maskUnits="userSpaceOnUse" x="0" y="0" width="12" height="22">
<path d="M3.34269 18.3096C4.42014 19.6888 5.66087 20.8038 6.96525 21.7351C5.93333 19.8389 5.37632 17.5292 5.3786 15.1559C9.14229 15.2197 11.6616 11.687 11.6256 7.33274C11.5776 1.47814 6.53446 -1.84529 3.00415 1.08138C1.7271 2.13474 0.771436 3.7957 0.316051 5.75332C-0.715276 10.3576 0.901823 15.1891 3.34269 18.3096Z" fill="white"/>
</mask>
<g mask="url(#mask1_169_12061)">
<path d="M-18.9887 7.80736C-13.8136 9.34851 -8.62527 10.7629 -3.42374 12.0506C-5.01163 11.3855 -6.59798 10.7102 -8.18279 10.0247C-8.35437 9.94941 -8.33316 9.63429 -8.21969 9.50543L-15.6428 6.43206C-15.8735 6.33637 -15.7563 5.7814 -15.5294 5.86561L-4.81115 9.83331C-4.79567 9.81294 -4.77678 9.7982 -4.75618 9.79041C-4.73557 9.78262 -4.71389 9.78201 -4.69307 9.78866C-3.08058 10.2496 -1.47025 10.7344 0.137934 11.2431L-11.833 6.80076L-18.4333 4.34997C-18.6344 4.27597 -18.5717 3.71207 -18.366 3.76948C-14.9522 4.72803 -11.5409 5.71166 -8.13206 6.72038L-9.75008 5.95491C-9.98254 5.84647 -9.8617 5.31702 -9.63661 5.38974L-8.08501 5.89112C-8.08188 5.85594 -8.07318 5.82214 -8.05953 5.79214C-8.04588 5.76213 -8.02761 5.73666 -8.00603 5.71754C-7.98446 5.69841 -7.96009 5.6861 -7.93468 5.68148C-7.90926 5.67687 -7.88342 5.68006 -7.859 5.69082L-6.02697 6.55708L4.31029 9.90475L3.50312 9.5756C2.05545 9.04742 0.610243 8.49458 -0.832508 7.91708C-2.78262 7.13374 -4.72566 6.30575 -6.66163 5.43311L-7.38301 5.13841C-7.41478 5.12613 -7.4431 5.10077 -7.46418 5.06569C-7.76399 4.92918 -8.06379 4.79522 -8.36267 4.65616C-8.59145 4.55027 -8.47614 3.99657 -8.24921 4.08971L-7.70495 4.31425C-7.86638 4.17646 -7.752 3.70569 -7.54259 3.77714L-4.35637 4.85901C-5.54082 4.38697 -6.72221 3.89536 -7.90052 3.3842C-8.09793 3.29872 -8.03981 2.7463 -7.83318 2.80371L-4.75119 3.72228C-4.73593 3.70316 -4.71758 3.68936 -4.69769 3.68204C-4.67779 3.67471 -4.65691 3.67408 -4.6368 3.68018L2.24118 5.64362L-3.42374 3.50157L-6.09892 2.49114L-8.6385 1.66188C-8.66766 1.65112 -8.694 1.62908 -8.71442 1.59835C-8.73484 1.56762 -8.74851 1.52947 -8.75381 1.48837L-9.79897 1.09033C-9.99915 1.01505 -9.93734 0.460087 -9.73163 0.509842L-1.92195 2.41587L-2.9994 1.92214L-7.95679 0.338887C-8.15973 0.273822 -8.09516 -0.287526 -7.88944 -0.241597L-4.2512 0.560874L-10.6726 -1.35281C-10.8976 -1.42043 -10.8903 -1.99071 -10.6513 -1.94733C-7.22526 -1.28137 -3.80811 -0.504835 -0.399868 0.382263L-0.611115 0.292958C-0.626701 0.285764 -0.641575 0.275907 -0.655396 0.263615L-3.90066 -0.785084C-3.9368 -0.800655 -3.96827 -0.832152 -3.99025 -0.874767C-4.01224 -0.917383 -4.02354 -0.968777 -4.02243 -1.0211L-4.99195 -1.38726L-5.22995 -1.4638L-11.4788 -3.46424C-11.7103 -3.53824 -11.5941 -4.10214 -11.3663 -4.03069L-9.58219 -3.46935C-9.57112 -3.62116 -9.50378 -3.76278 -9.39769 -3.7245L-4.8296 -2.32113L-10.0831 -4.18123C-10.3146 -4.26289 -10.1975 -4.81913 -9.96963 -4.74768L13.0185 2.96191L19.5514 5.14096C19.6511 5.17413 19.6852 5.33233 19.6695 5.47521C20.5772 5.68189 21.4859 5.88092 22.3954 6.07228L-2.33614 -2.44233L-10.3829 -5.21335C-10.4267 -5.2361 -10.4631 -5.28004 -10.4853 -5.33704C-10.5075 -5.39403 -10.5141 -5.46022 -10.5037 -5.52337L-11.834 -5.94693C-12.035 -6.01072 -11.9714 -6.58482 -11.7666 -6.52741L-10.0019 -6.03623C-10.0126 -6.09245 -10.0145 -6.15116 -10.0075 -6.20846L-12.511 -6.88974C-12.7398 -6.95225 -12.7241 -7.54294 -12.4889 -7.48425L-4.08516 -5.36389L1.78547 -4.35729L-0.054863 -4.99519L-5.9338 -7.02752C-6.16442 -7.10662 -6.04911 -7.67179 -5.82033 -7.59269L5.32224 -3.75257L13.012 -2.4334L-5.26593 -8.15532C-5.31061 -8.17793 -5.34762 -8.2227 -5.36978 -8.28093C-5.39194 -8.33916 -5.39767 -8.4067 -5.38585 -8.47044L-7.42544 -9.03434C-7.65329 -9.09813 -7.63945 -9.68499 -7.40422 -9.62885L8.05093 -5.95331L-3.51784 -9.50893L-9.24548 -11.267C-9.47057 -11.3359 -9.46042 -11.9176 -9.22335 -11.8615L4.28446 -8.62736C4.12303 -8.77408 4.15808 -9.24995 4.36656 -9.18616L13.5212 -6.41642C13.7472 -6.34752 13.7371 -5.76449 13.5 -5.8219L-0.374039 -9.13895L10.9881 -5.65222L16.7074 -3.89418C16.9325 -3.82529 16.9233 -3.24353 16.6862 -3.29966L8.13948 -5.33327L13.119 -3.95542L18.9444 -2.34665C19.1732 -2.28286 19.1557 -1.68962 18.9223 -1.75213L7.2124 -4.84847L17.3089 -1.68962C17.5128 -1.62583 17.4463 -1.07469 17.2406 -1.10913L8.77784 -2.56098L13.547 -0.917767L19.8042 0.660385C20.0117 0.712693 20.0173 1.19877 19.8448 1.25235L20.6012 1.51389C20.6238 1.52101 20.6448 1.53593 20.6621 1.55727L20.9047 1.64147C21.1058 1.71164 21.0431 2.27936 20.8374 2.22195L-0.647095 -3.64668L-3.34164 -4.29606L-3.7503 -4.39429L-2.21622 -3.87504L10.0029 -0.482721L16.1226 1.21663C16.3514 1.28042 16.3348 1.87366 16.1014 1.81115L9.00476 -0.0706425L11.0563 0.625939L16.9316 2.61745C17.1631 2.69654 17.046 3.25534 16.8181 3.1839L2.64891 -1.33112L18.5155 4.13181L26.5622 6.90282C26.7652 6.97172 26.7006 7.52158 26.4949 7.48331C24.2361 7.064 21.9803 6.59876 19.7276 6.08759C19.7152 6.15271 19.6855 6.20901 19.6445 6.24538C19.6036 6.28176 19.5542 6.29556 19.5062 6.28407L16.7489 5.41653C16.7358 5.45446 16.7138 5.48523 16.6866 5.50395C16.6594 5.52267 16.6284 5.52827 16.5986 5.51987L16.0303 5.34508C16.0249 5.38986 16.014 5.43301 15.998 5.47266L20.199 6.93982L26.0853 8.99257C26.2864 9.06273 26.2228 9.63046 26.018 9.57305L24.6296 9.15969C24.6296 9.31789 24.5559 9.47482 24.4452 9.44675L19.664 8.28068L22.3391 9.41613C22.5716 9.51564 22.4508 10.054 22.2257 9.98258L7.97805 5.43056L6.45781 5.05931L10.6929 6.77397C12.2334 7.33447 13.7709 7.91963 15.3053 8.52946C16.6687 9.07209 18.029 9.63429 19.3863 10.216L27.0834 12.7319C27.2845 12.7982 27.2209 13.3698 27.0161 13.3124L25.3658 12.8416C25.4018 13.0304 25.3289 13.2881 25.1813 13.246L19.6326 11.5875L19.1179 11.502C19.1797 11.696 19.0708 12.0009 18.8974 11.9358L16.4584 11.0134C15.7265 10.8705 14.9959 10.72 14.2666 10.5618C14.904 10.7991 15.5414 11.0402 16.1761 11.2928C18.0155 12.0234 19.8435 12.8204 21.6602 13.6836L26.1121 15.198C26.315 15.2669 26.2495 15.8168 26.0447 15.7785C23.6088 15.3235 21.1796 14.8004 18.7572 14.2093L20.6722 15.0398C20.7009 15.0513 20.7268 15.0733 20.7472 15.1033C20.7677 15.1334 20.7819 15.1705 20.7885 15.2108L21.2598 15.3894C21.4914 15.4774 21.3724 16.0273 21.1464 15.9558L15.3283 14.0728C15.9639 14.2833 16.5986 14.4912 17.2342 14.703C20.5766 15.8206 23.9178 16.9633 27.2578 18.131C27.4616 18.2012 27.3952 18.7421 27.1904 18.7115C23.1408 18.1068 19.0957 17.4264 15.0553 16.6703C17.6997 17.7598 20.3371 18.9148 22.9673 20.1353C25.5226 21.326 28.0668 22.5755 30.5999 23.8836C30.8314 24.0035 30.7106 24.5215 30.4864 24.45C28.2596 23.7517 26.0352 23.0318 23.8133 22.2901C23.8419 22.4777 23.7367 22.7264 23.579 22.6729L8.23358 17.5314L13.8662 19.5944L20.7202 22.1051C20.9508 22.1893 20.8346 22.7519 20.6067 22.6716L8.11089 18.2752C10.002 19.1257 11.8863 20.0103 13.7638 20.9288L14.1586 21.0564C14.1803 21.0639 14.2005 21.0781 14.2176 21.098C14.2347 21.1179 14.2483 21.143 14.2573 21.1712C14.8883 21.4842 15.5184 21.8011 16.1475 22.1217L20.0053 23.6271C20.1806 23.696 20.1538 24.0405 20.0302 24.1604C21.2534 24.8213 22.4723 25.4979 23.6869 26.1902C23.9147 26.3178 23.7994 26.8281 23.5734 26.7567C15.1623 23.921 6.79329 20.7583 -1.53359 17.2686L-4.0501 16.5657L-4.67646 16.3909L5.71614 20.675C11.545 22.6312 17.3359 24.8587 23.0891 27.3576C25.8399 28.5542 28.5806 29.8113 31.3111 31.1288C31.5408 31.2398 31.4228 31.7743 31.1977 31.694L12.6615 25.1606C9.15605 24.1136 5.6734 22.8859 2.2135 21.4774L1.78086 21.3243L0.887907 21.17L22.2829 29.9653L29.0068 32.7286C29.2393 32.8243 29.1193 33.3665 28.8933 33.2951C22.8622 31.3431 16.8652 29.122 10.894 26.7324C4.92281 24.3429 -1.02715 21.7875 -6.9642 19.1721C-10.3239 17.6922 -13.6817 16.1999 -17.0376 14.6953C-17.2682 14.592 -17.1502 14.0498 -16.9242 14.1289L-4.44308 18.5278C-5.04269 18.2412 -5.64106 17.9495 -6.23821 17.6526C-6.43101 17.5557 -6.38028 17.0147 -6.17088 17.0721C-4.37143 17.5586 -2.57476 18.0711 -0.780849 18.6095L-2.94313 17.7164L-9.30821 15.0934C-9.50654 15.0117 -9.44658 14.4555 -9.24087 14.5129L-5.6303 15.5221C-6.20716 15.2729 -6.78309 15.0219 -7.3581 14.7693C-7.88391 14.538 -8.40911 14.3054 -8.93369 14.0715L-9.10342 14.0051C-9.12024 13.9993 -9.13617 13.9893 -9.15047 13.9758C-11.4419 12.9552 -13.729 11.9111 -16.0118 10.8437C-16.2415 10.7353 -16.1244 10.1931 -15.8984 10.2773L-13.6328 11.1193L-14.094 10.9228C-14.3237 10.8246 -14.2075 10.2684 -13.9805 10.3564L9.46877 19.5191L9.51489 19.5331C6.18845 18.0022 2.84324 16.589 -0.520716 15.2937C-1.26792 15.0054 -2.01635 14.7243 -2.76602 14.4504L-7.49094 12.7919C-7.63392 12.7408 -7.64407 12.5086 -7.57673 12.3555L-10.5452 11.2686C-10.5667 11.2605 -10.5867 11.2466 -10.6043 11.2277L-19.056 8.39677C-19.2571 8.32023 -19.1935 7.74612 -18.9887 7.80736ZM3.32416 -3.49741L6.87016 -2.60436L5.22446 -3.17209L3.32416 -3.49741ZM25.9147 29.2304C23.8538 28.2948 21.7869 27.3984 19.7138 26.541C19.7682 26.726 19.6972 27.0156 19.5459 26.985L20.6815 27.3856L25.9147 29.2304ZM-10.4152 17.0288C-6.65148 18.7017 -2.88317 20.3488 0.88975 21.9699C6.83787 24.5125 12.8017 26.9506 18.7978 29.1756L19.4306 29.4077L5.00583 23.474L-1.71809 20.7107C-1.91826 20.629 -1.85646 20.0945 -1.64982 20.1302L-1.55758 20.1468L-6.40795 18.4372L-10.4152 17.0288ZM2.16922 20.1174C0.394381 19.5561 -1.38353 19.0211 -3.16453 18.5125C-1.46533 19.306 0.240944 20.0554 1.95429 20.7604L5.39604 21.3562C5.62943 21.3971 5.60913 21.9941 5.3739 21.9508L5.16358 21.915L12.8017 24.6069C13.1319 24.7048 13.4625 24.8021 13.7933 24.8991C14.4769 25.0956 15.1623 25.2818 15.8477 25.4643L5.56485 21.2248C4.43328 20.8455 3.30141 20.4764 2.16922 20.1174ZM0.717247 17.238L0.539211 17.1793L1.05026 17.3796L0.717247 17.238ZM16.5349 22.9459L9.75751 20.4249L9.41065 20.328L11.8635 21.3741L19.1824 24.4947C19.213 24.5071 19.2404 24.5312 19.2616 24.5641C19.2828 24.597 19.2969 24.6375 19.3024 24.6809C19.7913 24.8532 20.2811 25.0216 20.77 25.1913C19.3629 24.4224 17.9512 23.6739 16.5349 22.9459ZM-8.04626 11.4727L-4.05656 12.8085L12.1098 18.1668C8.17392 16.7124 4.2491 15.1895 0.335342 13.5982L0.0724392 13.491C-2.6341 12.8557 -5.34034 12.1829 -8.04626 11.4727ZM8.54906 14.7783L8.83872 14.8382C7.44578 14.3203 6.05038 13.8197 4.65253 13.3366L8.54906 14.7783ZM8.0048 13.2014C9.84237 13.8691 11.6873 14.4717 13.5397 15.0092C14.0316 15.1521 14.5255 15.2899 15.0211 15.4225L4.51047 11.5492L8.0048 13.2014ZM-8.38943 7.24346C-9.35864 6.95683 -10.3291 6.67233 -11.3008 6.38996L0.223722 10.6664L-4.57961 8.39805L-4.68292 8.34957C-5.91719 7.97789 -7.15208 7.60918 -8.38758 7.24346H-8.38943ZM12.9354 6.04039L10.0758 4.82711L3.51696 2.87516L-1.8334 1.69505L8.0048 4.83859L12.9354 6.04039ZM16.8606 6.99851L19.6713 7.68361L14.9234 6.27003L16.3375 6.87093L16.8606 6.99851ZM11.3156 4.59237L14.0212 5.39867C13.4806 5.2073 12.9391 5.01806 12.3967 4.83094L11.3156 4.59237ZM3.84352 5.05038C2.67505 4.68295 1.50658 4.32913 0.338112 3.98892L4.48187 5.34508L3.84352 5.05038ZM9.21878 6.88879L10.4724 7.29832C9.92447 7.0993 9.37683 6.90325 8.82949 6.71018L9.21878 6.88879ZM-3.20143 6.11056C-2.74019 6.17435 -2.28633 6.24452 -1.8297 6.31724L-7.52968 4.38186L-4.90432 5.46501L-3.20143 6.11056ZM13.6439 10.9713L14.3514 11.2112C13.9382 11.0564 13.524 10.905 13.1089 10.757L13.6439 10.9713ZM1.98565 7.62109C1.15911 7.45099 0.332268 7.29236 -0.494886 7.14522L2.95609 8.45418L10.7206 11.3426L2.71349 7.8686L1.98565 7.62109ZM9.92908 7.84053L9.10531 7.45779L5.813 6.37847L8.81658 7.51393L9.92908 7.84053ZM-2.91361 0.343989L-3.14516 0.28913L3.54279 2.28064L4.66175 2.52687L4.43298 2.42991L3.5391 2.04717C1.39219 1.43734 -0.758713 0.869615 -2.91361 0.343989ZM16.4851 7.5471L16.2591 7.45014L15.9445 7.37359L16.4851 7.5471ZM11.8026 9.25665L2.1231 6.37847L5.29272 7.64278C7.80186 8.40825 10.3202 9.08017 12.8478 9.65853L11.8026 9.25665ZM18.2083 13.4795L9.39774 10.1497L15.3846 12.7472C16.3249 13.0015 17.2661 13.2456 18.2083 13.4795ZM-1.99391 8.46567L-1.42105 8.73741L-0.516102 9.0117C1.45185 9.61813 3.41979 10.2331 5.38774 10.8565L-1.99391 8.46567ZM9.3221 12.7115L14.1605 14.4976L19.7701 16.5657C19.8798 16.6065 19.9103 16.7889 19.8826 16.9395C21.2718 17.1793 22.6623 17.4098 24.054 17.6309C19.1501 15.9392 14.2395 14.2994 9.3221 12.7115ZM15.546 16.1561C14.2238 15.8083 12.9053 15.4255 11.5905 15.0079C11.6058 15.0941 11.5972 15.1851 11.5665 15.2631L12.2122 15.5182C13.3241 15.7394 14.4354 15.9533 15.546 16.16V16.1561ZM21.9849 20.2948C21.9489 20.3208 21.907 20.3272 21.8678 20.3126L10.1735 16.3079L15.7195 18.7536L17.3218 19.4489C18.8728 19.9975 20.4247 20.5363 21.9775 21.0654C23.7376 21.6607 25.4995 22.2438 27.2633 22.8145C25.5069 21.9469 23.7475 21.1083 21.9849 20.2986V20.2948Z" fill="#333333"/>
</g>
</svg>
