<svg width="766" height="26" viewBox="0 0 766 26" fill="none" xmlns="http://www.w3.org/2000/svg">
<g clip-path="url(#clip0_59_275)">
<path fill-rule="evenodd" clip-rule="evenodd" d="M380.062 23.3369C373.108 22.3358 366.126 21.9293 359.144 22.1192C355.874 22.1919 352.598 21.9556 349.328 21.8738C344.205 21.7557 339.076 21.5376 333.953 21.5739C330.418 21.5739 326.89 21.9738 323.362 22.1919C322.214 22.2555 321.067 22.3463 319.919 22.3373C314.44 22.2736 308.95 22.2646 303.471 22.0919C300.029 21.9738 296.587 21.4376 293.144 21.3649C289.077 21.2831 285.009 21.5194 280.936 21.5739C278.021 21.6103 275.103 21.6103 272.181 21.5739C267.052 21.5012 261.917 21.3649 256.782 21.3013C250.144 21.2286 243.507 21.1468 236.869 21.1741C228.9 21.1741 220.931 21.3013 212.962 21.3831C207.569 21.4467 202.176 21.4921 196.783 21.6375C187.937 21.8829 179.084 22.0646 170.238 22.5463C157.415 23.2187 144.587 23.1188 131.758 23.146C126.09 23.146 120.428 23.2369 114.765 23.146C106.808 23.0006 98.8503 22.619 90.8928 22.4827C87.2727 22.4281 83.6468 22.7644 80.0267 22.8552C76.4066 22.9461 72.9471 23.0006 69.4015 23.037C60.4631 23.137 51.5303 23.2006 42.5861 23.3369C40.2052 23.3369 37.8243 23.7367 35.4491 23.7004C32.5289 23.6549 29.6087 23.2914 26.6943 23.1642C23.1372 22.9461 19.6032 22.9279 16.0633 22.7189C14.4799 22.6371 12.9022 22.1828 11.3187 22.1101C8.66816 21.9828 6.01187 22.0192 3.36131 21.9919C3.00561 21.9919 2.64991 22.0555 2.29994 21.9919C1.9873 21.9016 1.70338 21.6454 1.49485 21.2656C1.28631 20.8857 1.16559 20.4048 1.15251 19.9018C1.09397 19.3994 1.14863 18.8804 1.30695 18.4353C1.46527 17.9903 1.71721 17.6473 2.01882 17.4664C2.7848 17.1498 3.57371 16.994 4.36531 17.0029C8.95502 17.2028 13.5447 17.6754 18.1344 18.3024C20.9456 18.6841 23.7855 18.5478 26.6139 18.6296C30.5898 18.7477 34.5714 18.8749 38.5472 18.9385C39.6946 18.9385 40.842 18.675 41.9895 18.6568C50.4804 18.5478 58.9771 18.5296 67.4681 18.366C75.0756 18.2206 82.683 17.6299 90.2904 17.8208C95.9415 17.9662 101.587 17.6572 107.249 18.1025C115.195 18.7295 123.17 18.5387 131.127 18.6023C137.943 18.6477 144.753 18.6023 151.563 18.5296C155.189 18.5296 158.821 18.0752 162.435 18.3206C165.808 18.5478 169.136 17.5936 172.492 17.7662C175.848 17.9389 179.044 17.8844 182.32 17.8389C184.712 17.8389 187.093 17.5936 189.486 17.4845C190.885 17.4209 192.285 17.3573 193.691 17.321C197.667 17.221 201.648 17.1029 205.63 17.0483C211.91 16.9575 218.19 16.8878 224.471 16.8393C230.489 16.8393 236.519 16.8393 242.52 16.7666C246.318 16.703 250.116 16.7121 253.908 17.1937C255.4 17.3937 256.914 16.9665 258.417 16.9665C264.608 16.9665 270.804 17.0302 276.994 17.0302C282.037 17.0302 287.08 16.9029 292.123 16.9665C295.037 17.012 297.952 17.3391 300.866 17.5391C306.793 17.948 312.719 17.9116 318.652 17.7844C322.094 17.7117 325.536 17.4209 328.978 17.3482C332.243 17.2664 335.507 17.3482 338.777 17.3482C339.661 17.3482 340.539 17.3482 341.422 17.3482C341.68 17.3482 341.996 17.0574 342.202 17.1665C345.169 18.4932 348.209 17.012 351.181 17.8117C351.616 17.9414 352.059 17.9902 352.501 17.9571C358.513 17.4482 364.549 17.8571 370.538 18.1025C373.103 18.2024 375.661 18.4932 378.22 18.7659C378.627 18.7326 379.031 18.8768 379.389 19.1829C379.747 19.4891 380.046 19.9452 380.251 20.5016C380.414 20.9445 380.484 21.4584 380.45 21.9684C380.416 22.4783 380.28 22.9578 380.062 23.3369Z" stroke="#333333" stroke-width="2.29486" stroke-miterlimit="10"/>
<path fill-rule="evenodd" clip-rule="evenodd" d="M9.37992 1.92676C11.3133 2.10851 13.2525 2.29935 15.1916 2.46292C15.8926 2.58839 16.5994 2.60969 17.3029 2.52653C20.555 1.91929 23.8398 1.88881 27.0962 2.43566C30.7914 2.99141 34.506 3.15232 38.2148 2.91729C42.0931 2.64467 45.9886 2.72646 49.8726 2.72646C52.0814 2.72646 54.296 2.82642 56.5048 2.92638C63.5729 3.26262 70.6526 3.40802 77.7322 4.04414C83.4693 4.55304 89.2065 4.56213 94.978 4.55304C97.095 4.55304 99.2178 4.63483 101.335 4.55304C106.292 4.42582 111.237 4.18954 116.188 4.08958C122.736 3.9563 129.282 3.86542 135.826 3.81696C140.336 3.81696 144.845 3.81696 149.355 3.81696C157.232 3.81696 165.109 3.81696 172.992 3.88966C176.084 3.88966 179.194 4.52578 182.269 4.18046C185.711 3.78969 189.153 4.08049 192.595 4.04414C194.449 4.04414 196.307 4.11684 198.155 4.30768C201.781 4.68936 205.401 4.30768 209.021 4.22589C214.397 4.07141 219.784 4.28951 225.159 4.43491C232.773 4.64392 240.38 4.52578 247.982 3.91692C250.896 3.68064 253.828 3.91692 256.737 3.56251C261.326 3.08087 265.916 3.56251 270.506 3.66247C275.807 3.82604 281.114 3.83513 286.415 3.98053C289.502 4.06232 292.588 4.33494 295.675 4.43491C299.392 4.56213 303.133 4.72571 306.822 4.64392C311.337 4.55304 315.846 4.13502 320.356 4.03506C323.179 3.98053 326.001 4.25316 328.83 4.37129C331.48 4.47126 334.136 4.62574 336.787 4.67118C341.759 4.76206 346.714 4.81961 351.652 4.84384C353.155 4.84384 354.652 4.67118 356.161 4.59848C359.879 4.43491 363.579 4.37129 367.263 5.65263C368.567 6.06437 369.901 6.18671 371.227 6.01613C372.991 5.9065 374.758 6.05251 376.505 6.45233C377.457 6.62569 378.417 6.66522 379.374 6.57047C379.822 6.51002 380.271 6.66945 380.66 7.0271C381.049 7.38476 381.359 7.92333 381.548 8.56971C381.616 8.75623 381.658 8.96333 381.672 9.17741C381.685 9.3915 381.67 9.60775 381.627 9.81197C381.585 10.0162 381.515 10.2038 381.423 10.3624C381.332 10.5211 381.22 10.6472 381.095 10.7325C380.11 11.4001 379.015 11.5436 377.974 11.1415C375.203 9.84196 372.386 9.8874 369.552 10.0601C368.754 10.1388 367.954 10.0285 367.177 9.73291C364.124 8.48793 361.038 8.82416 357.946 8.87869C352.375 9.00591 346.798 9.00591 341.228 8.97865C337.596 8.97865 333.964 8.97865 330.327 8.64241C327.143 8.33344 323.97 8.32435 320.786 8.44249C313.706 8.67876 306.633 8.8696 299.559 8.93321C296.816 8.93321 294.08 8.47884 291.337 8.37888C285.319 8.17895 279.289 8.10625 273.288 7.93359C269.926 7.82454 266.57 7.47922 263.214 7.51557C257.477 7.57918 251.74 7.90633 246.003 8.04264C238.843 8.20621 231.694 8.95139 224.517 8.2153C220.025 7.76093 215.498 8.15169 210.989 8.13351C203.553 8.13351 196.12 8.09111 188.688 8.00629C179.848 7.95177 170.995 7.84271 162.148 7.82454C153.744 7.82454 145.339 7.89724 136.934 7.96085C129.952 8.01538 122.964 8.0699 115.982 8.19713C113.601 8.19713 111.22 8.52428 108.833 8.56971C105.833 8.64241 102.826 8.56971 99.8202 8.56971C97.6114 8.56971 95.4026 8.7242 93.1938 8.71511C89.2964 8.71511 85.4047 8.66059 81.5187 8.55154C78.5067 8.47884 75.5062 8.30618 72.4999 8.16078C66.1891 7.88815 59.9413 7.52465 53.6592 7.3429C47.6466 7.17024 41.6112 6.93397 35.6273 7.7064C33.4415 7.9972 31.2269 7.57009 29.0239 7.40652C26.4594 7.21568 23.9006 6.84309 21.3361 6.77039C19.5748 6.77039 17.8135 7.13389 16.0522 7.17024C13.3156 7.22477 10.5732 7.08845 7.83089 7.11572C6.5974 7.11572 5.36965 7.40652 4.13043 7.45195C3.06906 7.561 2.48387 6.77039 2.43798 5.4527C2.36339 3.58068 2.97727 2.29026 4.08454 2.24482C5.84584 2.16303 7.61288 2.24482 9.37418 2.24482C9.37992 2.12668 9.37992 2.02672 9.37992 1.92676Z" stroke="#333333" stroke-width="2.29486" stroke-miterlimit="10"/>
</g>
<defs>
<clipPath id="clip0_59_275">
<rect width="765.564" height="25.4722" fill="white"/>
</clipPath>
</defs>
</svg>
